<?xml version="1.0" encoding="utf-8"?>
<!-- Generator: Adobe Illustrator 22.0.0, SVG Export Plug-In . SVG Version: 6.00 Build 0)  -->
<svg version="1.1" id="Layer_1" xmlns="http://www.w3.org/2000/svg" xmlns:xlink="http://www.w3.org/1999/xlink" x="0px" y="0px"
	 viewBox="0 0 216 216" style="enable-background:new 0 0 216 216;" xml:space="preserve">
<style type="text/css">
	.st0{fill:#FFFFFF;}
	.st1{fill:#FFB81C;}
</style>
<g>
	<circle class="st0" cx="106.5" cy="106.5" r="97.1"/>
	<path class="st1" d="M106.5,209C50,209,4,163,4,106.5C4,50,50,4,106.5,4C163,4,209,50,209,106.5C209,163,163,209,106.5,209z
		 M106.5,14.8c-50.6,0-91.7,41.1-91.7,91.7s41.1,91.7,91.7,91.7s91.7-41.1,91.7-91.7S157.1,14.8,106.5,14.8z"/>
</g>
<path class="st1" d="M68,82.6c-3.8,0-6.9,3.1-6.9,6.9s3.1,6.9,6.9,6.9s6.9-3.1,6.9-6.9S71.8,82.6,68,82.6z M136.6,82.6H87.2
	c-3.4,0-6.2,2.8-6.2,6.2v1.5c0,3.4,2.8,6.2,6.2,6.2h49.3c3.4,0,6.2-2.8,6.2-6.2v-1.5C142.7,85.4,139.9,82.6,136.6,82.6z M68,99.6
	c-3.8,0-6.9,3.1-6.9,6.9s3.1,6.9,6.9,6.9s6.9-3.1,6.9-6.9S71.8,99.6,68,99.6z M136.6,99.6H87.2c-3.4,0-6.2,2.8-6.2,6.2v1.5
	c0,3.4,2.8,6.2,6.2,6.2h49.3c3.4,0,6.2-2.8,6.2-6.2v-1.5C142.7,102.3,139.9,99.6,136.6,99.6z M68,116.5c-3.8,0-6.9,3.1-6.9,6.9
	s3.1,6.9,6.9,6.9s6.9-3.1,6.9-6.9S71.8,116.5,68,116.5z M136.6,116.5H87.2c-3.4,0-6.2,2.8-6.2,6.2v1.5c0,3.4,2.8,6.2,6.2,6.2h49.3
	c3.4,0,6.2-2.8,6.2-6.2v-1.5C142.7,119.3,139.9,116.5,136.6,116.5z"/>
</svg>
