<?xml version="1.0" encoding="utf-8"?>
<!-- Generator: Adobe Illustrator 22.0.0, SVG Export Plug-In . SVG Version: 6.00 Build 0)  -->
<svg version="1.1" id="Layer_1" xmlns="http://www.w3.org/2000/svg" xmlns:xlink="http://www.w3.org/1999/xlink" x="0px" y="0px"
	 viewBox="0 0 216 216" style="enable-background:new 0 0 216 216;" xml:space="preserve">
<path d="M198.2,73.8c-2.3,6.5-6.1,13.2-11.8,19.6c0,0,0,0,0,0c-2.5,2.6-5.4,5.6-8.5,9c-20.3,21.3-51.9,54.5-69.8,73.4
	c-0.1,0.1-0.2,0.2-0.3,0.4c-9.8,10-17.5,15.7-23.2,18.8c-11.8,4.6-24.1,5.7-35,3.4c0,0,0,0,0,0c-13.5-3.8-21.5-11.2-26.1-18.2
	c-3.2-6-5.3-11.8-6.5-17.2c0,0,0,0,0,0c-5.3-23.4,4.5-41.3,9.2-48.3c0,0,0-0.1,0.1-0.1c0.8-1,1.5-2.1,2.3-3c0,0,0,0,0,0
	c0.7-0.9,1.4-1.8,2-2.6c1-1.3,3-0.9,3.4,0.6c1.4,5,4.1,13.6,7,18.7v0c-7.7,19.8-6.8,31.9-2.4,39.1c0,0,0,0,0,0
	c1.2,1.9,2.6,3.5,4.1,4.8c0,0,0,0,0.1,0c4.7,4.5,12.8,10,22.3,6.5c0.9-0.2,1.8-0.6,2.7-1c0,0,0,0,0,0v0c6-2.5,13.6-7.9,23.9-18.2
	l80.9-80.9c0.8-0.8,1.4-1.6,1.9-2.6c2.6-5.1,9.4-21.5-3.4-34.3c-5.1-5.1-20.5-15.4-35.9,0s-61.5,58.9-61.5,58.9s-4,10,7.5,12.3
	c3,0.6,6.2-0.4,8.3-2.6c10.6-11,35.4-37.9,35.4-37.9s9.7-7.3,10.2,18.1c0,1.5-0.5,2.9-1.6,4l-36.8,36.8c0,0-19.9,12.4-37.6-4.4
	c-0.6-0.5-1-1.1-1.4-1.8c-5.3-8.2-14.1-25.3,0.7-40c10.8-10.8,41.8-40.5,59.3-57.3c0,0,0,0,0.1-0.1c0.7-0.7,1.5-1.4,2.2-2.1
	c0,0,0.1-0.1,0.1-0.1c4.9-4.3,17.1-13.4,33.8-14.1c6.5,0.4,32.2,3.7,42.5,33c0.4,1.1,0.7,2.2,1.1,3.3c0,0,0,0.1,0,0.1
	C199.9,58.2,199.7,66.7,198.2,73.8z"/>
</svg>
