<?xml version="1.0" encoding="utf-8"?>
<!-- Generator: Adobe Illustrator 22.0.0, SVG Export Plug-In . SVG Version: 6.00 Build 0)  -->
<svg version="1.1" id="Layer_1" xmlns="http://www.w3.org/2000/svg" xmlns:xlink="http://www.w3.org/1999/xlink" x="0px" y="0px"
	 viewBox="0 0 216 216" style="enable-background:new 0 0 216 216;" xml:space="preserve">
<style type="text/css">
	.st0{fill:#FFFFFF;}
	.st1{fill:#FFB81C;}
</style>
<g>
	<circle class="st0" cx="108.5" cy="108.5" r="97.1"/>
	<path class="st1" d="M108.5,211C52,211,6,165,6,108.5C6,52,52,6,108.5,6C165,6,211,52,211,108.5C211,165,165,211,108.5,211z
		 M108.5,16.8c-50.6,0-91.7,41.1-91.7,91.7s41.1,91.7,91.7,91.7s91.7-41.1,91.7-91.7S159.1,16.8,108.5,16.8z"/>
</g>
<path class="st1" d="M138,148H74c-6.6,0-12-5.4-12-12V90c0-6.6,5.4-12,12-12h64c6.6,0,12,5.4,12,12v46C150,142.6,144.6,148,138,148z
	"/>
<path class="st1" d="M117.5,87h-22c-4.7,0-8.5-3.8-8.5-8.5v0c0-4.7,3.8-8.5,8.5-8.5h22c4.7,0,8.5,3.8,8.5,8.5v0
	C126,83.2,122.2,87,117.5,87z"/>
<path class="st0" d="M109,131.5c-10.8,0-19.5-8.7-19.5-19.5c0-10.8,8.7-19.5,19.5-19.5c10.8,0,19.5,8.7,19.5,19.5
	C128.5,122.8,119.8,131.5,109,131.5z M109,95.5c-9.1,0-16.5,7.4-16.5,16.5c0,9.1,7.4,16.5,16.5,16.5c9.1,0,16.5-7.4,16.5-16.5
	C125.5,102.9,118.1,95.5,109,95.5z"/>
</svg>
