<?xml version="1.0" encoding="utf-8"?>
<!-- Generator: Adobe Illustrator 22.0.0, SVG Export Plug-In . SVG Version: 6.00 Build 0)  -->
<svg version="1.1" id="Layer_1" xmlns="http://www.w3.org/2000/svg" xmlns:xlink="http://www.w3.org/1999/xlink" x="0px" y="0px"
	 viewBox="0 0 216 216" style="enable-background:new 0 0 216 216;" xml:space="preserve">
<style type="text/css">
	.st0{fill:#FFFFFF;}
	.st1{fill:#FFB81C;}
</style>
<g>
	<circle class="st0" cx="108.5" cy="108.5" r="97.1"/>
	<path class="st1" d="M108.5,211C52,211,6,165,6,108.5C6,52,52,6,108.5,6C165,6,211,52,211,108.5C211,165,165,211,108.5,211z
		 M108.5,16.8c-50.6,0-91.7,41.1-91.7,91.7s41.1,91.7,91.7,91.7s91.7-41.1,91.7-91.7S159.1,16.8,108.5,16.8z"/>
</g>
<path class="st1" d="M128.7,134.6L79.9,85.8c-2.3-2.3-2.3-6.2,0-8.5l0,0c2.3-2.3,6.2-2.3,8.5,0l48.8,48.8c2.3,2.3,2.3,6.2,0,8.5l0,0
	C134.8,137,131,137,128.7,134.6z"/>
<path class="st1" d="M79.9,126.2l48.8-48.8c2.3-2.3,6.2-2.3,8.5,0l0,0c2.3,2.3,2.3,6.2,0,8.5l-48.8,48.8c-2.3,2.3-6.2,2.3-8.5,0l0,0
	C77.5,132.3,77.5,128.5,79.9,126.2z"/>
</svg>
