<?xml version="1.0" encoding="utf-8"?>
<!-- Generator: Adobe Illustrator 22.0.0, SVG Export Plug-In . SVG Version: 6.00 Build 0)  -->
<svg version="1.1" id="Layer_1" xmlns="http://www.w3.org/2000/svg" xmlns:xlink="http://www.w3.org/1999/xlink" x="0px" y="0px"
	 viewBox="0 0 216 216" style="enable-background:new 0 0 216 216;" xml:space="preserve">
<style type="text/css">
	.st0{fill:#FFFFFF;}
	.st1{fill:#FFB81C;}
</style>
<g>
	<circle class="st0" cx="108.5" cy="108.5" r="97.1"/>
	<path class="st1" d="M108.5,211C52,211,6,165,6,108.5C6,52,52,6,108.5,6C165,6,211,52,211,108.5C211,165,165,211,108.5,211z
		 M108.5,16.8c-50.6,0-91.7,41.1-91.7,91.7s41.1,91.7,91.7,91.7s91.7-41.1,91.7-91.7S159.1,16.8,108.5,16.8z"/>
</g>
<path class="st1" d="M144,147H75c-6.6,0-12-5.4-12-12V93c0-6.6,5.4-12,12-12h69c6.6,0,12,5.4,12,12v42C156,141.6,150.6,147,144,147z
	"/>
<path class="st1" d="M100,102H75c-6.6,0-12-5.4-12-12v-5c0-6.6,5.4-12,12-12h25c6.6,0,12,5.4,12,12v5C112,96.6,106.6,102,100,102z"
	/>
</svg>
