<?xml version="1.0" encoding="utf-8"?>
<!-- Generator: Adobe Illustrator 22.0.0, SVG Export Plug-In . SVG Version: 6.00 Build 0)  -->
<svg version="1.1" id="Layer_1" xmlns="http://www.w3.org/2000/svg" xmlns:xlink="http://www.w3.org/1999/xlink" x="0px" y="0px"
	 viewBox="0 0 216 216" style="enable-background:new 0 0 216 216;" xml:space="preserve">
<style type="text/css">
	.st0{fill:#FFFFFF;}
	.st1{fill:#FFB81C;}
</style>
<image style="display:none;overflow:visible;" width="233" height="496" xlink:href="C:\Users\Nitheesh\Desktop\008B.png"  transform="matrix(1.8871 0 0 1.8871 -159 -216)">
</image>
<g>
	<circle class="st0" cx="106.5" cy="106.5" r="97.1"/>
	<path class="st1" d="M106.5,209C50,209,4,163,4,106.5C4,50,50,4,106.5,4C163,4,209,50,209,106.5C209,163,163,209,106.5,209z
		 M106.5,14.8c-50.6,0-91.7,41.1-91.7,91.7s41.1,91.7,91.7,91.7s91.7-41.1,91.7-91.7S157.1,14.8,106.5,14.8z"/>
</g>
<g>
	<path class="st1" d="M105.7,116.4h2.1c6.3,0,11.4-5.1,11.4-11.4V74.4c0-6.3-5.1-11.4-11.4-11.4h-2.1c-6.3,0-11.4,5.1-11.4,11.4V105
		C94.3,111.2,99.5,116.4,105.7,116.4z"/>
	<path class="st1" d="M128.3,147.1h-17.7c0,0,0-16.1,0-18.8c8.9-0.7,16.1-6.3,18.5-8.5c10.7-10,10.5-21.9,10.5-23.7
		c0-1.8-1.4-4-3.6-4c-3.4,0.2-3.6,3.6-3.6,3.6v2.9c-1.8,8.9-5.1,12.3-5.1,12.3c-7.4,10.1-19.2,10.5-20.4,10.5
		c-8.7,0-14.3-4.5-15.7-5.6c-10.7-8.3-9.8-20.3-9.8-20.3s-0.2-3.4-3.4-3.4S74.1,95,74.1,95s-1.5,12.8,8.7,23s20.3,10.3,20.3,10.3
		v18.6c0,0-15.4,0-17.5,0c-2,0.7-2.9,1.6-3.1,3.1c-0.2,3.3,2.7,4,2.7,4s41.6,0,43.2,0c1.4-0.2,3.1-1.3,3.1-3.1
		C131.4,147.5,128.3,147.1,128.3,147.1z"/>
</g>
</svg>
