<?xml version="1.0" encoding="utf-8"?>
<!-- Generator: Adobe Illustrator 22.0.0, SVG Export Plug-In . SVG Version: 6.00 Build 0)  -->
<svg version="1.1" id="Layer_1" xmlns="http://www.w3.org/2000/svg" xmlns:xlink="http://www.w3.org/1999/xlink" x="0px" y="0px"
	 viewBox="0 0 216 216" style="enable-background:new 0 0 216 216;" xml:space="preserve">
<style type="text/css">
	.st0{fill:#FFFFFF;}
	.st1{fill:#FFB81C;}
</style>
<g>
	<circle class="st0" cx="106.5" cy="106.5" r="97.1"/>
	<path class="st1" d="M106.5,209C50,209,4,163,4,106.5C4,50,50,4,106.5,4C163,4,209,50,209,106.5C209,163,163,209,106.5,209z
		 M106.5,14.8c-50.6,0-91.7,41.1-91.7,91.7s41.1,91.7,91.7,91.7s91.7-41.1,91.7-91.7S157.1,14.8,106.5,14.8z"/>
</g>
<path class="st1" d="M142.5,88L131,98.1V86c0-5-4-9-9-9H71c-5,0-9,4-9,9v39c0,5,4,9,9,9h51c5,0,9-4,9-9v-10l11.4,11.4
	c1.3,1.3,3.6,0.4,3.6-1.4V89.5C146,87.8,143.9,86.9,142.5,88z"/>
</svg>
