<?xml version="1.0" encoding="utf-8"?>
<!-- Generator: Adobe Illustrator 22.0.0, SVG Export Plug-In . SVG Version: 6.00 Build 0)  -->
<svg version="1.1" id="Layer_1" xmlns="http://www.w3.org/2000/svg" xmlns:xlink="http://www.w3.org/1999/xlink" x="0px" y="0px"
	 viewBox="0 0 216 216" style="enable-background:new 0 0 216 216;" xml:space="preserve">
<style type="text/css">
	.st0{fill:#585858;}
</style>
<image style="display:none;overflow:visible;" width="512" height="512" xlink:href="C:\Users\Nitheesh\Downloads\add-button (1).png"  transform="matrix(0.3887 0 0 0.3887 9 7)">
</image>
<path class="st0" d="M99.6,160.5v-102c0-4.1,3.4-7.5,7.5-7.5h8.3c4.1,0,7.5,3.4,7.5,7.5v102c0,4.1-3.4,7.5-7.5,7.5h-8.3
	C103,168,99.6,164.6,99.6,160.5z"/>
<path class="st0" d="M60.2,97.9h102c4.1,0,7.5,3.4,7.5,7.5v8.3c0,4.1-3.4,7.5-7.5,7.5h-102c-4.1,0-7.5-3.4-7.5-7.5v-8.3
	C52.8,101.2,56.1,97.9,60.2,97.9z"/>
<path class="st0" d="M213,107c-0.1-3.6-2.3-6.7-5.6-7.9c-2.7-1-5.4-1.1-8-0.2c-5.7,1.3-7.5,4.5-8.1,6.4l-0.4,0.5l0,1.1
	c1.3,40.3-27.6,75.5-67.4,82.1c-41.8,6.9-82-20.1-91.5-61.3c-5-21.8-1-44,11.4-62.6c12.4-18.6,31.3-31,53.2-34.8
	c25-4.4,50.9,3.5,69.4,21.1c1.8,1.7,4.3,2.3,6.6,1.7c3-0.9,7.2-3,10.1-8.1c1.7-3.1,1.1-7-1.5-9.5C157,12.2,122.8,2.3,90,9
	c-25.9,5.3-48.5,20.2-63.7,42.1C11.2,73,5.1,99.4,9.3,125.5c4.4,27.3,19.2,51.2,41.7,67.3c17.6,12.6,38.2,19.1,59.3,19.1
	c5.9,0,11.9-0.5,17.8-1.5c24.3-4.2,46.3-17.1,61.9-36.3C205.4,155.1,213.6,131.2,213,107z"/>
</svg>
