<?xml version="1.0" encoding="utf-8"?>
<!-- Generator: Adobe Illustrator 22.0.0, SVG Export Plug-In . SVG Version: 6.00 Build 0)  -->
<svg version="1.1" id="Layer_1" xmlns="http://www.w3.org/2000/svg" xmlns:xlink="http://www.w3.org/1999/xlink" x="0px" y="0px"
	 viewBox="0 0 216 216" style="enable-background:new 0 0 216 216;" xml:space="preserve">
<style type="text/css">
	.st0{fill:#333333;}
</style>
<path class="st0" d="M203,197h-8V97h0c0-2.1-1.3-4.1-3.4-4.8L125,70.4V50h0c0-2-1.2-3.9-3.2-4.7l-95-36c-0.1,0-0.2-0.1-0.3-0.1
	c-0.2-0.1-0.4-0.1-0.5-0.1c-0.2,0-0.4,0-0.5-0.1c-0.1,0-0.2,0-0.4,0c0,0-0.1,0-0.1,0c-0.2,0-0.4,0-0.5,0.1c-0.1,0-0.3,0-0.4,0.1
	c-0.1,0-0.3,0.1-0.4,0.1c-0.2,0.1-0.3,0.1-0.5,0.2c-0.1,0.1-0.2,0.1-0.4,0.2c-0.2,0.1-0.3,0.2-0.5,0.3c-0.1,0.1-0.2,0.2-0.4,0.3
	c-0.1,0.1-0.2,0.2-0.4,0.3c-0.1,0.1-0.2,0.2-0.3,0.4c-0.1,0.1-0.2,0.3-0.3,0.4c-0.1,0.1-0.1,0.2-0.2,0.4c-0.1,0.2-0.2,0.3-0.3,0.5
	c0,0,0,0,0,0.1c0,0.1-0.1,0.2-0.1,0.3c-0.1,0.2-0.1,0.3-0.1,0.5c0,0.2,0,0.4-0.1,0.6c0,0.1,0,0.2,0,0.3v183h-8c-2.8,0-5,2.2-5,5
	s2.2,5,5,5h191c2.8,0,5-2.2,5-5S205.8,197,203,197z M67,194.5H53.5v-25H67V194.5z M90.5,194.5H77v-25h13.5V194.5z M115,197h-14.5
	v-30.3c0-3.9-3.2-7.2-7.2-7.2H50.7c-3.9,0-7.2,3.2-7.2,7.2V197H30V21.2l85,32.2V197z M161,196.5h-13.5v-25H161V196.5z M185,197h-14
	v-28.3c0-3.9-3.2-7.2-7.2-7.2h-19.2c-3.9,0-7.2,3.2-7.2,7.2V197H125V80.9l60,19.7V197z M49,79h12c3.3,0,6-2.7,6-6s-2.7-6-6-6H49
	c-3.3,0-6,2.7-6,6S45.7,79,49,79z M49,102h12c3.3,0,6-2.7,6-6s-2.7-6-6-6H49c-3.3,0-6,2.7-6,6S45.7,102,49,102z M49,126h12
	c3.3,0,6-2.7,6-6s-2.7-6-6-6H49c-3.3,0-6,2.7-6,6S45.7,126,49,126z M49,150h12c3.3,0,6-2.7,6-6s-2.7-6-6-6H49c-3.3,0-6,2.7-6,6
	S45.7,150,49,150z M84,79h12c3.3,0,6-2.7,6-6s-2.7-6-6-6H84c-3.3,0-6,2.7-6,6S80.7,79,84,79z M84,102h12c3.3,0,6-2.7,6-6s-2.7-6-6-6
	H84c-3.3,0-6,2.7-6,6S80.7,102,84,102z M84,126h12c3.3,0,6-2.7,6-6s-2.7-6-6-6H84c-3.3,0-6,2.7-6,6S80.7,126,84,126z M84,150h12
	c3.3,0,6-2.7,6-6s-2.7-6-6-6H84c-3.3,0-6,2.7-6,6S80.7,150,84,150z M143,126h23c3.3,0,6-2.7,6-6s-2.7-6-6-6h-23c-3.3,0-6,2.7-6,6
	S139.7,126,143,126z M143,149h23c3.3,0,6-2.7,6-6s-2.7-6-6-6h-23c-3.3,0-6,2.7-6,6S139.7,149,143,149z"/>
</svg>
