<?xml version="1.0" encoding="utf-8"?>
<!-- Generator: Adobe Illustrator 22.0.0, SVG Export Plug-In . SVG Version: 6.00 Build 0)  -->
<svg version="1.1" id="Layer_1" xmlns="http://www.w3.org/2000/svg" xmlns:xlink="http://www.w3.org/1999/xlink" x="0px" y="0px"
	 viewBox="0 0 216 216" style="enable-background:new 0 0 216 216;" xml:space="preserve">
<style type="text/css">
	.st0{fill:#333333;}
</style>
<path class="st0" d="M53.5,179.5c-2.8,0-5,2.2-5,5v24c0,2.8,2.2,5,5,5s5-2.2,5-5v-24C58.5,181.7,56.3,179.5,53.5,179.5z
	 M192.9,161.5h-10.1c-4.7-8.7-12.8-13.3-16.8-15.6c-6-3.3-28.9-12.4-37.4-15.7v-13.9c10.2-9.1,13-21.4,13-24.8v-6h3.4
	c4.7,0,8.6-3.9,8.6-8.6V63.1c0-3.8-2.5-7.1-6-8.2c-0.3-9.9-2.7-25.3-13.5-36.3c-7.9-8-18.8-12.1-32.5-12.1
	c-13.6,0-24.6,4.2-32.7,12.5c-12.4,12.7-14.1,31-14.3,36.8c-2.4,1.5-4,4.2-4,7.3v13.8c0,4.7,3.9,8.6,8.6,8.6h2.4v2l0,0.2
	c0.2,7.3,3.6,19,13,27.7v14.7c-2.1,0.8-5.1,2-8.5,3.4c-0.8,0.3-1.7,0.7-2.6,1c-10,4.1-22.3,9.2-26.4,11.6
	c-6.1,3.5-20.5,11.7-20.5,31.3v31c0,2.8,2.2,5,5,5s5-2.2,5-5v-31c0-12.1,7.4-18.1,15.5-22.7c3.2-1.8,13.1-6,22.5-9.9L79.2,170
	c0.1,0.2,0.3,0.4,0.4,0.6c0,0,0,0,0,0c0.1,0.1,0.2,0.2,0.3,0.3c0,0,0.1,0.1,0.1,0.1c0.1,0.1,0.3,0.3,0.5,0.4c0,0,0.1,0.1,0.1,0.1
	c0.1,0.1,0.3,0.2,0.4,0.3c0.1,0,0.1,0.1,0.2,0.1c0.1,0.1,0.2,0.1,0.4,0.2c0.1,0,0.1,0.1,0.2,0.1c0.1,0,0.2,0.1,0.4,0.1
	c0.1,0,0.1,0,0.2,0.1c0.1,0,0.3,0.1,0.4,0.1c0.1,0,0.1,0,0.2,0c0.2,0,0.4,0,0.6,0c0,0,0,0,0,0c0,0,0,0,0,0c0,0,0,0,0,0c0,0,0,0,0,0
	c0.2,0,0.5,0,0.7-0.1c0.1,0,0.2,0,0.2,0c0.2,0,0.3-0.1,0.5-0.1c0.1,0,0.2-0.1,0.3-0.1c0.2-0.1,0.3-0.1,0.5-0.2
	c0.1,0,0.2-0.1,0.2-0.1c0,0,0,0,0,0c0,0,0.1-0.1,0.1-0.1c0.2-0.1,0.4-0.2,0.6-0.4l6.9-5.7l-9,41.8c-0.6,2.7,1.1,5.4,3.8,5.9
	c0.4,0.1,0.7,0.1,1.1,0.1c2.3,0,4.4-1.6,4.9-4l7.1-33.2l7.1,33.2c0.5,2.3,2.6,4,4.9,4c0.3,0,0.7,0,1.1-0.1c2.7-0.6,4.4-3.2,3.8-5.9
	l-9-41.8l6.9,5.7c0.2,0.1,0.4,0.3,0.6,0.4c0,0,0.1,0.1,0.1,0.1c0,0,0,0,0,0c0.1,0,0.2,0.1,0.2,0.1c0.2,0.1,0.3,0.2,0.5,0.2
	c0.1,0,0.2,0.1,0.3,0.1c0.2,0.1,0.3,0.1,0.5,0.1c0.1,0,0.2,0,0.2,0c0.2,0,0.5,0.1,0.7,0.1c0,0,0,0,0,0c0,0,0,0,0,0c0,0,0,0,0,0
	c0,0,0,0,0,0c0.2,0,0.4,0,0.6,0c0.1,0,0.1,0,0.2,0c0.1,0,0.3,0,0.4-0.1c0.1,0,0.1,0,0.2-0.1c0.1,0,0.2-0.1,0.4-0.1
	c0.1,0,0.1-0.1,0.2-0.1c0.1-0.1,0.2-0.1,0.4-0.2c0.1,0,0.1-0.1,0.2-0.1c0.1-0.1,0.3-0.2,0.4-0.3c0,0,0.1-0.1,0.1-0.1
	c0.2-0.1,0.3-0.3,0.5-0.4c0,0,0.1-0.1,0.1-0.1c0.1-0.1,0.2-0.2,0.3-0.3c0,0,0,0,0,0c0.2-0.2,0.3-0.4,0.4-0.6l14.7-25.1l0,0
	c9.4,3.8,19.3,7.9,22.5,9.7c3.4,1.9,6.7,4,9.4,6.8h-30.4c-4.7,0-8.6,3.9-8.6,8.6v32.8c0,4.7,3.9,8.6,8.6,8.6h52.8
	c4.7,0,8.6-3.9,8.6-8.6v-32.8C201.5,165.4,197.6,161.5,192.9,161.5z M141.5,64.5h2v11h-2V64.5z M61.5,75.5h-1v-11h1V75.5z
	 M65.5,47.9c1.2-6.6,4.1-15.4,10.5-22c6.2-6.3,14.8-9.5,25.5-9.5c10.8,0,19.4,3.1,25.3,9.1c5.4,5.4,8.1,12.6,9.4,19.1
	c-2.6-3.2-6.2-5.7-11.3-6.2c-2.4-0.2-4.5,1.2-5.2,3.4c-0.2-0.3-0.4-0.6-0.7-0.9c-2-2-5.1-2-7.1,0c-1,1-5.6,4.7-9.1,3.7
	c-1.8-0.5-3.7-1.6-5.7-2.7c-4.9-2.7-10.9-6-18.4-3.2L78.3,39c-0.2,0.1-0.4,0.2-0.7,0.3C75.2,40.2,69.5,42.3,65.5,47.9z M71.5,87.4
	V58.9c1.3-6.7,5.6-8.8,9.6-10.3c0.5-0.2,0.9-0.3,1.3-0.5c3-1,5.6,0.3,9.9,2.6c2.4,1.3,4.9,2.7,7.8,3.5c9.5,2.7,18-5.3,18.9-6.3
	c0.6-0.6,1-1.2,1.2-1.9c0.8,1.3,2.2,2.2,3.8,2.4c6.2,0.6,7.3,10,7.5,11.2l0,31.7c0,0.2-2.9,23.9-30.8,25
	C73.3,112.9,71.6,89.1,71.5,87.4z M84.8,159.9l-11-18.7c1.2-0.5,2.3-0.9,3.3-1.3l16.4,12.8L84.8,159.9z M101.5,146.2l-17-13.3v-10.7
	c4.4,2.1,9.4,3.6,15.4,4.3l0.4,0l0.4,0c7.1-0.2,12.9-1.7,17.8-3.8v10.2L101.5,146.2z M129.1,141.2l-11,18.7l-8.7-7.3l16.3-12.8
	C126.8,140.3,127.9,140.7,129.1,141.2L129.1,141.2z M191.5,201.5h-50v-30h38.1c0,0,0,0,0,0c0,0,0,0,0,0h11.9V201.5z M149,174
	c-2.2,0-4,1.8-4,4c0,2.2,1.8,4,4,4s4-1.8,4-4C153,175.8,151.2,174,149,174z M149,189c-2.2,0-4,1.8-4,4c0,2.2,1.8,4,4,4s4-1.8,4-4
	C153,190.8,151.2,189,149,189z M160,174c-2.2,0-4,1.8-4,4c0,2.2,1.8,4,4,4s4-1.8,4-4C164,175.8,162.2,174,160,174z M160,189
	c-2.2,0-4,1.8-4,4c0,2.2,1.8,4,4,4s4-1.8,4-4C164,190.8,162.2,189,160,189z M172,174c-2.2,0-4,1.8-4,4c0,2.2,1.8,4,4,4s4-1.8,4-4
	C176,175.8,174.2,174,172,174z M172,189c-2.2,0-4,1.8-4,4c0,2.2,1.8,4,4,4s4-1.8,4-4C176,190.8,174.2,189,172,189z M184,182
	c2.2,0,4-1.8,4-4c0-2.2-1.8-4-4-4s-4,1.8-4,4C180,180.2,181.8,182,184,182z M184,197c2.2,0,4-1.8,4-4c0-2.2-1.8-4-4-4s-4,1.8-4,4
	C180,195.2,181.8,197,184,197z"/>
</svg>
