<?xml version="1.0" encoding="utf-8"?>
<!-- Generator: Adobe Illustrator 22.0.0, SVG Export Plug-In . SVG Version: 6.00 Build 0)  -->
<svg version="1.1" id="Layer_1" xmlns="http://www.w3.org/2000/svg" xmlns:xlink="http://www.w3.org/1999/xlink" x="0px" y="0px"
	 viewBox="0 0 216 216" style="enable-background:new 0 0 216 216;" xml:space="preserve">
<style type="text/css">
	.st0{fill:#333333;}
</style>
<path class="st0" d="M208.7,189.1l-0.6-1.2c-1.3-2.5-3.1-4.7-5.2-6.5c4.8-4.1,7.8-10.2,7.8-16.9c0-10.7-7.6-19.7-17.8-21.8v-17.5
	c0-4-3.2-7.2-7.2-7.2H112v-9.5c26.7-2.5,47.8-25.1,47.8-52.5c0-29.1-23.7-52.8-52.8-52.8C77.9,3.3,54.3,26.9,54.3,56
	c0,27.7,21.5,50.5,48.8,52.6v9.4H27.2c-3.9,0-7.2,3.2-7.2,7.2v17.8c-9.6,2.5-16.8,11.2-16.8,21.6c0,7,3.3,13.3,8.3,17.3
	c-1.9,1.7-3.5,3.8-4.7,6.1L6.3,189v0.1c-0.6,1.3-1,2.6-1.4,4c-0.4,1.7-0.6,3.5-0.6,5.4v8.8c0,4.1,3.3,7.4,7.4,7.4h28.7
	c4.1,0,7.4-3.3,7.4-7.4v-8.8c0-1.8-0.2-3.6-0.6-5.4c-0.3-1.4-0.8-2.7-1.4-4l-0.6-1.2c-1.3-2.5-3.1-4.7-5.2-6.5
	c4.8-4.1,7.8-10.2,7.8-16.9c0-10.7-7.6-19.7-17.8-21.8V128h73v14.7c-10.1,2.1-17.8,11.1-17.8,21.8c0,7,3.3,13.3,8.3,17.3
	c-1.9,1.7-3.5,3.8-4.7,6.1l-0.6,1.1v0.1c-0.6,1.3-1,2.6-1.4,4c-0.4,1.7-0.6,3.5-0.6,5.4v8.8c0,4.1,3.3,7.4,7.4,7.4h28.7
	c4.1,0,7.4-3.3,7.4-7.4v-8.8c0-1.8-0.2-3.6-0.6-5.4c-0.3-1.4-0.8-2.7-1.4-4l-0.6-1.2c-1.3-2.5-3.1-4.7-5.2-6.5
	c4.8-4.1,7.8-10.2,7.8-16.9c0-10.7-7.6-19.7-17.8-21.8V128h71v14.9c-9.6,2.5-16.8,11.2-16.8,21.6c0,7,3.3,13.3,8.3,17.3
	c-1.9,1.7-3.5,3.8-4.7,6.1l-0.6,1.1v0.1c-0.6,1.3-1,2.6-1.4,4c-0.4,1.7-0.6,3.5-0.6,5.4v8.8c0,4.1,3.3,7.4,7.4,7.4h28.7
	c4.1,0,7.4-3.3,7.4-7.4v-8.8c0-1.8-0.2-3.6-0.6-5.4C209.8,191.8,209.3,190.4,208.7,189.1z M37.3,204.3H14.8v-5.8
	c0-1.9,0.4-3.8,1.3-5.4l0.2-0.4c2-3.6,5.8-5.9,9.8-5.9s7.7,2.3,9.7,5.8L36,193c0.8,1.7,1.3,3.5,1.3,5.5V204.3z M37.3,164.5
	c0,6.5-5.3,11.8-11.8,11.8s-11.8-5.3-11.8-11.8s5.3-11.8,11.8-11.8S37.3,158,37.3,164.5z M119.3,204.3H96.8v-5.8
	c0-1.9,0.4-3.8,1.3-5.4l0.2-0.4c2-3.6,5.8-5.9,9.8-5.9c4,0,7.7,2.3,9.7,5.9l0.2,0.4c0.8,1.7,1.3,3.5,1.3,5.5V204.3z M119.3,164.5
	c0,6.5-5.3,11.8-11.8,11.8c-6.5,0-11.8-5.3-11.8-11.8s5.3-11.8,11.8-11.8C114,152.8,119.3,158,119.3,164.5z M107,98.3
	c-23.3,0-42.3-19-42.3-42.3s19-42.3,42.3-42.3s42.3,19,42.3,42.3S130.3,98.3,107,98.3z M200.3,204.3h-22.5v-5.8
	c0-1.9,0.4-3.8,1.3-5.4l0.2-0.4c2-3.6,5.8-5.9,9.8-5.9s7.7,2.3,9.7,5.9l0.2,0.4c0.8,1.7,1.3,3.5,1.3,5.5V204.3z M188.5,176.3
	c-6.5,0-11.8-5.3-11.8-11.8s5.3-11.8,11.8-11.8s11.8,5.3,11.8,11.8S195,176.3,188.5,176.3z M129.8,38.5c0-12.3-10-22.3-22.3-22.3
	s-22.3,10-22.3,22.3c0,7,3.3,13.3,8.3,17.3c-1.9,1.7-3.5,3.8-4.7,6.1L88.3,63v0.1c-0.6,1.3-1,2.6-1.4,4c-0.4,1.7-0.6,3.5-0.6,5.4
	v8.8c0,4.1,3.3,7.4,7.4,7.4h28.7c4.1,0,7.4-3.3,7.4-7.4v-8.8c0-1.8-0.2-3.6-0.6-5.4c-0.3-1.4-0.8-2.7-1.4-4l-0.6-1.2
	c-1.3-2.5-3.1-4.7-5.2-6.5C126.7,51.3,129.8,45.3,129.8,38.5z M119.3,78.3H96.8v-5.8c0-1.9,0.4-3.8,1.3-5.4l0.2-0.4
	c2-3.6,5.8-5.9,9.8-5.9c4,0,7.7,2.3,9.7,5.9L118,67c0.8,1.7,1.3,3.5,1.3,5.5V78.3z M107.5,50.3c-6.5,0-11.8-5.3-11.8-11.8
	s5.3-11.8,11.8-11.8c6.5,0,11.8,5.3,11.8,11.8S114,50.3,107.5,50.3z"/>
</svg>
