<?xml version="1.0" encoding="utf-8"?>
<!-- Generator: Adobe Illustrator 22.0.0, SVG Export Plug-In . SVG Version: 6.00 Build 0)  -->
<svg version="1.1" id="Layer_1" xmlns="http://www.w3.org/2000/svg" xmlns:xlink="http://www.w3.org/1999/xlink" x="0px" y="0px"
	 viewBox="0 0 216 216" style="enable-background:new 0 0 216 216;" xml:space="preserve">
<style type="text/css">
	.st0{fill:#333333;}
</style>
<path class="st0" d="M208,173l-12.3-12.3c-3.2-3.2-7.5-5-12-5c-3.8,0-7.4,1.3-10.4,3.6l-6.7-6.7c8.3-10.1,13.3-23,13.3-37.1
	c0-11.7-3.5-22.6-9.4-31.8l8.3-7.1c3.5,2.7,7.8,4.4,12.6,4.4c11.3,0,20.5-9.2,20.5-20.5S202.8,40,191.5,40S171,49.2,171,60.5
	c0,2.9,0.6,5.7,1.7,8.2l-8.3,7.1c-10.7-11.5-26-18.8-42.9-18.8c-2.4,0-4.7,0.2-7,0.4L97.7,40.6c2.1-3.2,3.3-7,3.3-11.1
	C101,18.2,91.8,9,80.5,9S60,18.2,60,29.5c0,4.6,1.6,8.9,4.2,12.4l-34.9,48c-1.8-0.5-3.8-0.8-5.8-0.8C12.2,89,3,98.2,3,109.5
	S12.2,130,23.5,130S44,120.8,44,109.5c0-5.7-2.3-10.8-6.1-14.5L72,48.1c2.6,1.2,5.5,1.9,8.5,1.9c3.6,0,6.9-0.9,9.9-2.5L103,60
	c-23.2,7.8-40,29.7-40,55.5c0,32.3,26.2,58.5,58.5,58.5c14.6,0,27.9-5.4,38.2-14.2l6.6,6.6c-2.2,2.9-3.5,6.5-3.5,10.3
	c0,4.5,1.8,8.8,5,12l12.3,12.3c3.2,3.2,7.5,5,12,5s8.8-1.8,12-5l3.9-3.9c3.2-3.2,5-7.5,5-12S211.3,176.2,208,173z M191.5,50
	c5.8,0,10.5,4.7,10.5,10.5S197.3,71,191.5,71S181,66.3,181,60.5S185.7,50,191.5,50z M23.5,120c-5.8,0-10.5-4.7-10.5-10.5
	c0-5.8,4.7-10.5,10.5-10.5S34,103.7,34,109.5C34,115.3,29.3,120,23.5,120z M80.5,40C74.7,40,70,35.3,70,29.5S74.7,19,80.5,19
	S91,23.7,91,29.5S86.3,40,80.5,40z M121.5,164C94.8,164,73,142.2,73,115.5S94.8,67,121.5,67S170,88.8,170,115.5S148.2,164,121.5,164
	z M201,190l-3.9,3.9c-2.7,2.7-7.2,2.7-9.9,0l-12.3-12.3c-2.7-2.7-2.7-7.2,0-9.9l3.9-3.9c1.3-1.3,3.1-2,5-2s3.6,0.7,5,2L201,180
	c1.3,1.3,2,3.1,2,5S202.3,188.6,201,190z M123.5,89c-3.6,0-6.5,2.9-6.5,6.5v38c0,3.6,2.9,6.5,6.5,6.5s6.5-2.9,6.5-6.5v-38
	C130,91.9,127.1,89,123.5,89z M147.5,100c-3.6,0-6.5,2.9-6.5,6.5v16c0,3.6,2.9,6.5,6.5,6.5s6.5-2.9,6.5-6.5v-16
	C154,102.9,151.1,100,147.5,100z M97.5,100c-3.6,0-6.5,2.9-6.5,6.5v16c0,3.6,2.9,6.5,6.5,6.5s6.5-2.9,6.5-6.5v-16
	C104,102.9,101.1,100,97.5,100z"/>
</svg>
