<?xml version="1.0" encoding="utf-8"?>
<!-- Generator: Adobe Illustrator 22.0.0, SVG Export Plug-In . SVG Version: 6.00 Build 0)  -->
<svg version="1.1" id="Layer_1" xmlns="http://www.w3.org/2000/svg" xmlns:xlink="http://www.w3.org/1999/xlink" x="0px" y="0px"
	 viewBox="0 0 216 216" style="enable-background:new 0 0 216 216;" xml:space="preserve">
<path d="M163.2,88.5c-2.5,0-5,0.2-7.4,0.6c0.6-3,0.9-6.1,0.9-9.3c0-26.4-21.4-47.8-47.8-47.8C82.5,32,61,53.4,61,79.8
	c0,2.2,0.2,4.4,0.5,6.6c-2.7-0.5-5.6-0.8-8.4-0.8c-26.4,0-47.8,21.4-47.8,47.8c0,26.4,21.4,47.8,47.8,47.8c4,0,7.9-0.5,11.6-1.4v-3
	c-3.7,1-7.6,1.5-11.6,1.5c-24.8,0-44.9-20.1-44.9-44.9c0-24.8,20.1-44.9,44.9-44.9c3.1,0,6.1,0.3,9,0.9c0,0,0,0,0,0l0.3,0.1
	c0.8,0.2,1.5,0.3,2.3,0.5v-0.1l0.5,0.1c-0.2-0.7-0.3-1.5-0.5-2.2V87c0,0-0.1,0-0.1,0c-0.4-2.3-0.6-4.8-0.6-7.2
	c0-24.8,20.1-44.9,44.9-44.9c24.8,0,44.9,20.1,44.9,44.9c0,2-0.1,3.9-0.4,5.8c-0.1,0.4-0.1,0.8-0.2,1.2c-0.1,0.6-0.2,1.1-0.3,1.6
	l-0.2,1.2l-0.3,1.7l-0.1,0.6l-0.1,0.8c3.5-0.9,7.2-1.4,10.9-1.4c24.8,0,44.9,20.1,44.9,44.9c0,24.8-20.1,44.9-44.9,44.9
	c-4,0-7.9-0.5-11.6-1.5v3c3.7,0.9,7.6,1.4,11.6,1.4c26.4,0,47.8-21.4,47.8-47.8C211,110,189.6,88.5,163.2,88.5z M102.3,58.1
	c0.9,0,1.8,0.1,2.6,0.1l1.9-2.7c-1.5-0.3-3-0.4-4.5-0.4c-15.2,0-27.5,12.3-27.5,27.5c0,4.8,1.2,9.4,3.4,13.4l1.9-2.7
	c-1.6-3.2-2.4-6.8-2.4-10.7C77.7,69.1,88.7,58.1,102.3,58.1z M108.1,121.4l-44.5,38.1h17v26.1h55.1v-26.1h20.1L108.1,121.4z
	 M132.7,156.6v26.1H83.5v-26.1h-12l36.7-31.5l39.3,31.5H132.7z"/>
</svg>
