<?xml version="1.0" encoding="utf-8"?>
<!-- Generator: Adobe Illustrator 22.0.0, SVG Export Plug-In . SVG Version: 6.00 Build 0)  -->
<svg version="1.1" id="Layer_1" xmlns="http://www.w3.org/2000/svg" xmlns:xlink="http://www.w3.org/1999/xlink" x="0px" y="0px"
	 viewBox="0 0 216 216" style="enable-background:new 0 0 216 216;" xml:space="preserve">
<style type="text/css">
	.st0{fill:#585858;}
</style>
<path class="st0" d="M209,29H47v20H25v20H6v113h162v-20h19v-20h22V29z M81.4,143.2L81.4,143.2l6.3,6.5l0.1-0.1l0.1,0.1l6.4-6.4
	l-0.1-0.1l14.9-14.9l44.7,44.7H19.8l45.7-45.7L81.4,143.2z M115.3,121.9L159,78.3v87.4L115.3,121.9z M87.7,136.8L28.9,78h117.6
	L87.7,136.8z M16.2,78l42.9,42.9L15,165V78H16.2z M178,153h-10V69H34V58h144V153z M200,133h-13V49H56V38h144V133z"/>
</svg>
