<?xml version="1.0" encoding="utf-8"?>
<!-- Generator: Adobe Illustrator 22.0.0, SVG Export Plug-In . SVG Version: 6.00 Build 0)  -->
<svg version="1.1" id="Layer_1" xmlns="http://www.w3.org/2000/svg" xmlns:xlink="http://www.w3.org/1999/xlink" x="0px" y="0px"
	 viewBox="0 0 216 216" style="enable-background:new 0 0 216 216;" xml:space="preserve">
<style type="text/css">
	.st0{fill:#585858;}
	.st1{display:none;fill:#585858;}
</style>
<path class="st0" d="M108.5,6C51.4,6,5,52.4,5,109.5C5,166.6,51.4,213,108.5,213c57.1,0,103.5-46.4,103.5-103.5
	C212,52.4,165.6,6,108.5,6z M108.5,202.6c-51.4,0-93.2-41.8-93.2-93.1c0-24.4,9.4-46.6,24.8-63.3l11.7,11.7
	c-0.5,1.4-0.8,2.9-0.8,4.5v21c0.3,1.4,1,2.8,3.1,2.8c1,0,4.1,1,4.1-5.7v-6.7h9.5l14.5,14.5H48c-5.1,0-9.3,4.2-9.3,9.3v21.7
	c0,5.1,4.2,9.3,9.3,9.3h18.6l9.3,9.3c0,0,1,2.1,4.1,0v-9.3h3.1c5.1,0,9.3-4.2,9.3-9.3V98.5l25.9,25.9v22.9h-60v-14
	c-0.3-1.3-1-2.5-3.1-2.5c-0.9,0-3.6-0.2-4.1,3.3v25.7c0,6.8,5.6,12.4,12.4,12.4h48.6c6.8,0,12.4-5.6,12.4-12.4v-29.1l10.5,10.5h-4.9
	c-1.4,0-2.5,1.1-2.5,2.5v0.2c0,1.4,1.1,2.5,2.5,2.5h10.1L152,158c-1.1,0.4-2.4,0.7-3.7,0.7h-17.6c-0.4,0-0.8,0-1.2-0.1
	c-0.3,0-0.6-0.1-0.9-0.1c-0.6,0.1-1.5,0.5-2,2.2c0,0.9,0.8,1.8,3,2c0.3,0,0.7,0,1.1,0h17.6c2.4,0,4.7-0.6,6.8-1.7l16.7,16.7
	C155.1,193.2,132.9,202.6,108.5,202.6z M94.8,64.8c-0.5,0.5-1.1,0.8-1.8,0.8H82.6c-1.4,0-2.6-1.2-2.6-2.6c0-0.7,0.3-1.4,0.8-1.8
	c0.5-0.5,1.1-0.8,1.8-0.8H93c1.4,0,2.6,1.2,2.6,2.6C95.6,63.6,95.3,64.3,94.8,64.8z M118.3,73.8v37.4L80.9,73.8H118.3z M153.4,146.2
	h5.3v2.2c0,0.9-0.1,1.9-0.4,2.7L153.4,146.2z M178.3,171.1l-16.8-16.8c0.8-1.8,1.3-3.8,1.3-5.9v-19.1c0,0,0-2.4-2.1-2.4
	s-2.1,2-2.1,2v12.1h-10.5l-23.7-23.7v-55c0-6.8-5.6-12.4-12.4-12.4H63.5c-1.9,0-3.6,0.4-5.2,1.2L46.9,39.7
	c16.4-14.5,38-23.4,61.6-23.4c51.4,0,93.2,41.8,93.2,93.2C201.7,133.1,192.8,154.7,178.3,171.1z M170.9,90.4h-31.7
	c-4.1,0-7.5,3.4-7.5,7.5v19.3c0,4.1,3.4,7.5,7.5,7.5h2.9v8.3c0,0,1,3.1,5.2,0c1.9-1.5,5.3-5,8.2-8.3h15.4c4.1,0,7.5-3.4,7.5-7.5
	V97.8C178.4,93.7,175,90.4,170.9,90.4z M150.4,112.2c-0.6,0.6-1.6,0.6-2.2,0c-0.6-0.6-0.6-1.6,0-2.2l7.3-7.3c0.6-0.6,1.6-0.6,2.2,0
	c0.3,0.3,0.5,0.7,0.5,1.1c0,0.4-0.2,0.8-0.5,1.1L150.4,112.2z M166,105.9l-7.3,7.3c-0.6,0.6-1.6,0.6-2.2,0c-0.6-0.6-0.6-1.6,0-2.2
	l7.3-7.3c0.6-0.6,1.6-0.6,2.2,0c0.3,0.3,0.5,0.7,0.5,1.1C166.5,105.2,166.3,105.6,166,105.9z M158.7,84c0.2,0.8,0.8,1.5,2.1,1.9
	c0.6,0,1.6-0.7,2.1-1.7V72.6c0-7.9-6.5-14.3-14.5-14.3h-17.6c-0.8,0-1.6,0.1-2.4,0.2c-0.4,0.2-0.7,0.7-0.7,1.9c0,1.8,0.8,2,2.3,2.1
	c0.3,0,0.5,0,0.8,0h17.6c5.7,0,10.4,4.6,10.4,10.2v3.2h-28.5c-1.4,0-2.5,1.1-2.5,2.5v0.2c0,1.4,1.1,2.5,2.5,2.5h28.5V84z
	 M129.6,71.7h6.3c1.1,0,2-0.9,2-2v-0.1c0-1.1-0.9-2-2-2h-6.3c-1.1,0-2,0.9-2,2v0.1C127.6,70.8,128.5,71.7,129.6,71.7z"/>
<path class="st1" d="M158.7,82.1v1c0,0-0.1,0.2-0.1,0.5C158.5,82.7,158.7,82.1,158.7,82.1z"/>
<path class="st1" d="M162.8,81.5v0.5C162.7,81.8,162.7,81.6,162.8,81.5z"/>
</svg>
