<?xml version="1.0" encoding="utf-8"?>
<!-- Generator: Adobe Illustrator 22.0.0, SVG Export Plug-In . SVG Version: 6.00 Build 0)  -->
<svg version="1.1" id="Layer_1" xmlns="http://www.w3.org/2000/svg" xmlns:xlink="http://www.w3.org/1999/xlink" x="0px" y="0px"
	 viewBox="0 0 216 216" style="enable-background:new 0 0 216 216;" xml:space="preserve">
<style type="text/css">
	.st0{fill:#585858;}
</style>
<path class="st0" d="M17,109.5c0-1.1-1.1-17.9,13.7-32.6c3.2-2.1,7.9-7.9,24.7-11l-5.3,6.3c0,0-2.1,4.2,1.1,7.4
	c1.1,1.1,5.3,1.1,8.4-2.1c3.2-3.2,13.7-13.7,13.7-13.7s2.1-3.2-1.1-6.3c-3.2-3.2-15.8-15.8-15.8-15.8s-3.7-2.6-7.4,1.1
	c-1.1,2.1-1.6,4.7,2.1,8.4s3.7,3.7,3.7,3.7S37,55.9,19.1,73.7C16,77.9,6.5,86.4,6.5,110.6c0,6.3,1.1,23.1,14.7,36.8
	c3.2,3.2,8.4,7.4,11.6,9.5c2.1,1.1,5.3,2.1,8.4-1.1c1.1-2.1,1.1-5.3-2.1-8.4C37,146.3,17,135.8,17,109.5z M85.9,109.5
	c0-13.6-11.1-24.7-24.7-24.7s-24.7,11.1-24.7,24.7s11.1,24.7,24.7,24.7S85.9,123.1,85.9,109.5z M47,109.5c0-7.8,6.4-14.2,14.2-14.2
	c7.8,0,14.2,6.4,14.2,14.2c0,7.8-6.4,14.2-14.2,14.2C53.4,123.7,47,117.3,47,109.5z M209,131.1c0,0,0-17.9,0-23.1s-1.1-8.4-4.2-12.6
	c-4.7-4.7-12.6-5.1-12.6-5.1h-80.6c-2.2-6.3-6.1-13.3-12.6-19.5c-3.2-3.1-8.6-7.1-11.8-9.1c-2.1-1-5.3-2-8.4,1.3
	c-1,2.1-0.9,5.3,2.3,8.4c2.1,1,22.4,10.9,23.1,37.2c0,1.1,1.6,17.8-12.8,33c-3.1,2.2-7.7,8.1-24.4,11.7l5.1-6.5c0,0,2-4.3-1.3-7.3
	c-1.1-1-5.3-0.9-8.4,2.3c-3.1,3.2-13.3,14.1-13.3,14.1s-2,3.2,1.2,6.3c3.2,3.1,16.2,15.3,16.2,15.3s3.8,2.5,7.3-1.3
	c1-2.1,1.4-4.8-2.3-8.4c-3.8-3.6-3.8-3.6-3.8-3.6s17.8-1.6,35.2-19.9c3-4.3,12.3-13,11.6-37.2c0-1.5-0.2-3.6-0.5-6h78.5
	c5.3,1.1,5.3,4.2,5.3,4.2s0,18.9,0,25.2c0,6.3-4.2,6.3-5.3,6.3c-4.2,0-5.3-4.2-5.3-4.2s0-4.2,0-9.5s-6.3-5.3-6.3-5.3s-10.5,0-15.8,0
	s-5.3,5.3-5.3,5.3s0,7.4,0,8.4c0,4.2-4.2,5.3-6.3,5.3c-4.2,0-5.3-4.2-5.3-4.2s0-3.2,0-9.5s-7.4-5.3-7.4-5.3s-9.5,0-14.7,0
	s-5.3,4.2-5.3,5.3c0,4.2,4.2,5.3,4.2,5.3s9.5,0,12.6,0c0,11.6,4.2,14.7,5.3,15.8c3.7,3.7,11.6,4.2,11.6,4.2
	c12.6,0,15.8-13.7,15.8-13.7v-6.3h5.3c0,0,0,3.2,0,5.3c4.2,14.7,14.7,14.7,16.8,14.7C209.5,148.4,209,131.1,209,131.1z"/>
</svg>
