<?xml version="1.0" encoding="utf-8"?>
<!-- Generator: Adobe Illustrator 22.0.0, SVG Export Plug-In . SVG Version: 6.00 Build 0)  -->
<svg version="1.1" id="Layer_1" xmlns="http://www.w3.org/2000/svg" xmlns:xlink="http://www.w3.org/1999/xlink" x="0px" y="0px"
	 viewBox="0 0 216 216" style="enable-background:new 0 0 216 216;" xml:space="preserve">
<style type="text/css">
	.st0{fill:#585858;}
</style>
<path class="st0" d="M189.6,122.5C199.3,111.2,205,97.2,205,82c0-36.9-33.9-67-75.5-67S54,45.1,54,82s33.9,67,75.5,67
	c14,0,27.2-3.4,38.4-9.4c7,2,12.9,3,17.8,3c2.6,0,4.9-0.3,6.9-0.9c2.4-0.7,4.3-2.7,4.8-5.2c0.6-2.5-0.3-5.1-2.2-6.8
	C193.2,127.9,191.2,125,189.6,122.5z M186.6,109.9c-0.7,1-1.4,2-2.1,3l0.1,0.2c-1.4,2-3.2,4.2-5.2,5.8c0,2.3,0.6,4.9,2.1,7.5
	l1.7,2.5c0,0,0,0,0,0c0.4,0.6,0.9,1.3,1.3,1.9l0,0c0.6,0.9,1.3,1.8,2,2.6c-1.2,0-2.8,0-4.6-0.2h0c-0.5-0.1-1.1-0.1-1.7-0.2h0
	c-0.5-0.1-1.1-0.2-1.6-0.3c0.1,0,0.1-0.1,0.2-0.1c-0.5-0.1-1-0.3-1.6-0.5c-2.6-0.8-6-2.1-9-3.8c0,0,0.2-0.6-0.4-0.2
	c-10.8,6.8-24,10.7-38.2,10.7C93.4,139,64,113.4,64,82s29.4-57,65.5-57S195,50.6,195,82c0,9.8-2.8,18.9-7.8,27
	C187,109.3,186.8,109.6,186.6,109.9z M131.4,155.8c-0.3,0-0.6,0-0.9,0c-0.5,0-0.8,0.4-1,0.8c-6.1,21.1-28.1,36.8-54.2,36.8
	c-12.2,0-23.4-3.4-32.6-9.1c-0.5-0.3-0.3,0.2-0.3,0.2c-2.5,1.4-5.4,2.5-7.6,3.2c-0.5,0.2-1,0.3-1.4,0.4c0,0,0.1,0.1,0.2,0.1
	c-0.5,0.1-1,0.2-1.4,0.2h0c-0.5,0.1-1,0.1-1.5,0.2h0c-1.6,0.2-2.9,0.2-3.9,0.2c0.6-0.7,1.2-1.5,1.7-2.2l0,0c0.4-0.5,0.8-1.1,1.1-1.6
	c0,0,0,0,0,0l1.4-2.2c1.3-2.3,1.7-4.5,1.8-6.4c-1.7-1.4-3.3-3.3-4.4-5l0.1-0.2c-0.6-0.8-1.2-1.7-1.8-2.6c-0.2-0.3-0.4-0.5-0.5-0.8
	c-4.3-6.9-6.7-14.7-6.7-23c0-17.4,10.5-32.7,26.3-41.2c0,0,0,0,0,0s2.1-6.5-5.7-6.5h0c-0.2,0.1-0.5,0.3-0.7,0.4
	C22.3,107.8,11,125.2,11,144.9c0,13,4.9,24.9,13.1,34.5c-1.4,2.1-3.1,4.6-4.8,6.1c-1.6,1.5-2.3,3.7-1.8,5.8c0.5,2.1,2.1,3.8,4.1,4.4
	c1.7,0.5,3.6,0.8,5.9,0.8c4.1,0,9.2-0.8,15.2-2.5c9.6,5.1,20.8,8,32.8,8c29,0,53.6-17.1,61.6-40.6c0,0,0,0,0,0
	C137,161.1,136.7,155.8,131.4,155.8z M164,58H94c-2.8,0-5,2.3-5,5s2.3,5,5,5h70c2.8,0,5-2.3,5-5S166.8,58,164,58z M164,76H94
	c-2.8,0-5,2.3-5,5s2.3,5,5,5h70c2.8,0,5-2.3,5-5S166.8,76,164,76z M164,94H94c-2.8,0-5,2.3-5,5s2.3,5,5,5h70c2.8,0,5-2.3,5-5
	S166.8,94,164,94z"/>
</svg>
