<?xml version="1.0" encoding="utf-8"?>
<!-- Generator: Adobe Illustrator 22.0.0, SVG Export Plug-In . SVG Version: 6.00 Build 0)  -->
<svg version="1.1" id="Layer_1" xmlns="http://www.w3.org/2000/svg" xmlns:xlink="http://www.w3.org/1999/xlink" x="0px" y="0px"
	 viewBox="0 0 216 216" style="enable-background:new 0 0 216 216;" xml:space="preserve">
<style type="text/css">
	.st0{fill:#FFFFFF;stroke:#515151;stroke-width:6;stroke-miterlimit:10;}
	.st1{fill:#515151;}
</style>
<path class="st0" d="M208.2,153.7H8.9c-2,0-3.6-1.6-3.6-3.6V24.5c0-2,1.6-3.6,3.6-3.6h199.3c2,0,3.6,1.6,3.6,3.6v125.6
	C211.8,152.1,210.1,153.7,208.2,153.7z"/>
<path class="st1" d="M88.6,154.9l-1.5,23.8c0,0,0,9.5-15.1,15.2c0,0-5,3.3,0,5.2h47.9l-0.9-47.6l-30.4,2.9L88.6,154.9z"/>
<path class="st1" d="M128.4,154.9l1.5,23.8c0,0,0,9.5,15.1,15.2c0,0,5,3.3,0,5.2H97.1l0.9-47.6l30.4,2.9L128.4,154.9z"/>
<path class="st1" d="M175.8,117.6c-4.7,2.5-10.1,3.8-15.8,3.8c-19.1,0-34.6-15.5-34.6-34.6c0-17.8,13.4-32.4,30.6-34.4V88
	L175.8,117.6z"/>
<path class="st1" d="M162.2,50.9v33.5l26.2-19.5C188.4,64.9,178.7,50.7,162.2,50.9z"/>
<path class="st1" d="M190.7,68.9l-27.2,20.7l17.6,27.2c0,0,9.4-5.4,13.6-19.3C194.7,97.4,199.9,82.3,190.7,68.9z"/>
<g>
	<path class="st1" d="M34.5,120.1H23.6c-0.8,0-1.4-0.6-1.4-1.4v-18.3c0-0.8,0.6-1.4,1.4-1.4h10.9c0.8,0,1.4,0.6,1.4,1.4v18.3
		C35.9,119.5,35.3,120.1,34.5,120.1z"/>
	<path class="st1" d="M54.8,120.1H43.9c-0.8,0-1.4-0.6-1.4-1.4V86c0-0.8,0.6-1.4,1.4-1.4h10.9c0.8,0,1.4,0.6,1.4,1.4v32.7
		C56.3,119.5,55.6,120.1,54.8,120.1z"/>
	<path class="st1" d="M75.2,120.1H64.3c-0.8,0-1.4-0.6-1.4-1.4V93.2c0-0.8,0.6-1.4,1.4-1.4h10.9c0.8,0,1.4,0.6,1.4,1.4v25.5
		C76.6,119.5,76,120.1,75.2,120.1z"/>
	<path class="st1" d="M95.8,120.1H85c-0.8,0-1.4-0.6-1.4-1.4V79.1c0-0.8,0.6-1.4,1.4-1.4h10.9c0.8,0,1.4,0.6,1.4,1.4v39.6
		C97.3,119.5,96.6,120.1,95.8,120.1z"/>
	<path class="st1" d="M51.2,64.5L25.8,88.3C25.1,89,24,89,23.3,88.3l-0.8-0.8c-0.7-0.7-0.6-1.8,0.1-2.5L48,61.2
		c0.7-0.7,1.8-0.6,2.5,0.1l0.8,0.8C51.9,62.8,51.9,63.9,51.2,64.5z"/>
	<path class="st1" d="M94.9,55.8l-23.1,26c-0.6,0.7-1.8,0.8-2.5,0.1l-0.8-0.7c-0.7-0.6-0.8-1.8-0.1-2.5l23.1-26
		c0.6-0.7,1.8-0.8,2.5-0.1l0.8,0.7C95.5,54,95.6,55.1,94.9,55.8z"/>
	<path class="st1" d="M69.1,82.1L47.5,64.5c-0.7-0.6-0.9-1.7-0.3-2.5l0.7-0.9c0.6-0.7,1.7-0.9,2.5-0.3L72,78.5
		c0.7,0.6,0.9,1.7,0.3,2.5l-0.7,0.9C70.9,82.6,69.8,82.7,69.1,82.1z"/>
	<path class="st1" d="M95.3,53.7H80.4c-1.1,0-1.9-0.9-1.9-1.9v-0.6c0-1.1,0.9-1.9,1.9-1.9h14.9c1.1,0,1.9,0.9,1.9,1.9v0.6
		C97.3,52.9,96.4,53.7,95.3,53.7z"/>
	<path class="st1" d="M92.9,66.1V51.2c0-1.1,0.9-1.9,1.9-1.9h0.6c1.1,0,1.9,0.9,1.9,1.9v14.9c0,1.1-0.9,1.9-1.9,1.9h-0.6
		C93.8,68.1,92.9,67.2,92.9,66.1z"/>
</g>
</svg>
