<?xml version="1.0" encoding="utf-8"?>
<!-- Generator: Adobe Illustrator 22.0.0, SVG Export Plug-In . SVG Version: 6.00 Build 0)  -->
<svg version="1.1" id="Layer_1" xmlns="http://www.w3.org/2000/svg" xmlns:xlink="http://www.w3.org/1999/xlink" x="0px" y="0px"
	 viewBox="0 0 216 216" style="enable-background:new 0 0 216 216;" xml:space="preserve">
<style type="text/css">
	.st0{fill:url(#SVGID_1_);}
	.st1{fill:#F49898;}
	.st2{fill:#FFFFFF;}
</style>
<linearGradient id="SVGID_1_" gradientUnits="userSpaceOnUse" x1="108" y1="198.7951" x2="108" y2="23.4618">
	<stop  offset="6.372549e-02" style="stop-color:#AA0009"/>
	<stop  offset="0.848" style="stop-color:#FF0000"/>
</linearGradient>
<path class="st0" d="M166.6,198.8H49.4c-16,0-29.1-13.1-29.1-29.1V52.5c0-16,13.1-29.1,29.1-29.1h117.2c16,0,29.1,13.1,29.1,29.1
	v117.2C195.7,185.7,182.6,198.8,166.6,198.8z"/>
<g>
	<path class="st1" d="M32.6,62.4c0.6-3.4,1.8-6.7,3.4-9.9c1.6-3.1,3.6-6.1,6-8.7c2.4-2.6,5.4-4.8,8.7-6.4c3.3-1.6,6.9-2.6,10.5-3
		l0,0l0.1,0l8.3-0.2l8.3-0.1c5.5-0.1,11.1-0.2,16.6-0.2c11.1-0.1,22.2,0,33.3,0l16.6,0.3l8.3,0.2l2.2,0.1c0.8,0.1,1.6,0.2,2.3,0.4
		c1.5,0.3,2.9,0.8,4.2,1.3c2.7,1.1,5.2,2.6,7.5,4.4c1.2,0.8,2.2,1.8,3.3,2.8c0.5,0.5,1,1,1.5,1.6c0.5,0.5,1,1,1.4,1.6
		c3.6,4.4,6.2,9.4,8.2,14.6c-2.7-4.9-5.8-9.4-9.6-13.3c-0.5-0.5-1-0.9-1.5-1.4c-0.5-0.4-1-0.9-1.5-1.3c-1.1-0.8-2.1-1.7-3.2-2.4
		c-2.2-1.5-4.6-2.7-7.1-3.5c-1.2-0.4-2.5-0.7-3.8-0.9c-0.6-0.1-1.3-0.2-1.8-0.2l-2,0.1l-8.3,0.2l-16.6,0.3
		c-11.1,0.1-22.2,0.2-33.3,0c-5.5,0-11.1-0.1-16.6-0.2l-8.3-0.1l-8.3-0.2l0.2,0c-3.3,0.2-6.5,0.9-9.5,2.1c-3,1.2-5.8,3-8.3,5.2
		c-2.5,2.2-4.6,4.8-6.5,7.7c-0.9,1.4-1.8,2.9-2.5,4.5C33.8,59.2,33.1,60.8,32.6,62.4z"/>
</g>
<g>
	<path class="st2" d="M145.3,108.2H77.8c-0.9,0-1.6,0.7-1.6,1.6c0,0.1,0,0.1,0,0.2l9,66.2c0.1,0.8,0.8,1.4,1.6,1.4H137
		c0.8,0,1.5-0.6,1.6-1.4l8.3-66.2C147.1,109.1,146.3,108.2,145.3,108.2z M100.1,164.8c-1.8,0.3-3.6-0.9-3.9-2.7l-6.5-36.9
		c-0.3-1.8,0.9-3.6,2.7-3.9c0.2,0,0.4,0,0.6,0c1.6,0,3,1.2,3.3,2.8l6.5,36.9C103.2,162.7,102,164.5,100.1,164.8z M115.4,161
		c0,1.8-1.5,3.4-3.4,3.4h0c-1.8,0-3.4-1.5-3.4-3.4v-37.5c0-1.8,1.5-3.4,3.4-3.4h0c1.8,0,3.4,1.5,3.4,3.4V161z M133.5,123.9
		l-3.6,37.3c-0.2,1.9-1.8,3.2-3.7,3c-1.8-0.2-3.2-1.8-3-3.7l3.6-37.3c0.2-1.9,1.8-3.2,3.7-3c1.7,0.2,3,1.6,3,3.4
		C133.5,123.7,133.5,123.8,133.5,123.9z"/>
	<path class="st2" d="M92.7,83.9l-8.8,4.3l23,10.8l8.5-25.3l-8.5,3.8c0,0-18.9-38-55.3-8.3C51.7,69.1,93.7,61.6,92.7,83.9z"/>
	<path class="st2" d="M148.1,88.5l4.4-3.4c0,0,2.8-1.3,4.5,0.8s5.6,8.6,5.6,8.6s0.6,2.3-1.4,4.8l-4.8,2.9L148.1,88.5z"/>
	<path class="st2" d="M168.1,127.4L168.1,127.4c-1.9,1.2-4.5,0.6-5.7-1.3l-33.7-53.5c-1.2-1.9-0.6-4.5,1.3-5.7l0,0
		c1.9-1.2,4.5-0.6,5.7,1.3l33.7,53.5C170.6,123.6,170,126.2,168.1,127.4z"/>
</g>
</svg>
