<?xml version="1.0" encoding="utf-8"?>
<!-- Generator: Adobe Illustrator 22.0.0, SVG Export Plug-In . SVG Version: 6.00 Build 0)  -->
<svg version="1.1" id="Layer_1" xmlns="http://www.w3.org/2000/svg" xmlns:xlink="http://www.w3.org/1999/xlink" x="0px" y="0px"
	 viewBox="0 0 216 216" style="enable-background:new 0 0 216 216;" xml:space="preserve">
<style type="text/css">
	.st0{fill:#FFFFFF;}
</style>
<path d="M207.3,139.8H9.7c-2.6,0-4.7,2.1-4.7,4.7v48.7c0,2.6,2.1,4.7,4.7,4.7h197.5c2.6,0,4.7-2.1,4.7-4.7v-48.7
	C212,141.9,209.9,139.8,207.3,139.8z M156.6,186c-5.1,0-9.2-4.1-9.2-9.2c0-5.1,4.1-9.2,9.2-9.2c5.1,0,9.2,4.1,9.2,9.2
	C165.9,181.9,161.7,186,156.6,186z M187,186c-5.1,0-9.2-4.1-9.2-9.2c0-5.1,4.1-9.2,9.2-9.2s9.2,4.1,9.2,9.2
	C196.2,181.9,192.1,186,187,186z"/>
<g>
	<path d="M89.4,75.9V25.8c0-3.2,2.5-5.9,5.6-5.9h25.7c3.1,0,5.6,2.6,5.6,5.9v50.2c0,3.2,2.5,5.9,5.6,5.9h24.2c4.8,0,7.4,5.9,4.2,9.7
		L117,143.2c-2.1,2.5-5.9,2.7-8.2,0.3L58.4,91.9c-3.6-3.7-1.1-10.1,3.9-10.1h21.5C86.9,81.8,89.4,79.2,89.4,75.9z"/>
	<path class="st0" d="M112.8,148.5c-2.4,0-4.6-1-6.3-2.7L56,94.2c-2.6-2.7-3.4-6.7-1.9-10.2c1.4-3.4,4.6-5.5,8.2-5.5h21.5
		c1.3,0,2.3-1.2,2.3-2.6V25.8c0-5.1,4-9.2,8.9-9.2h25.7c4.9,0,8.9,4.1,8.9,9.2v50.2c0,1.4,1,2.6,2.3,2.6h24.2c3.5,0,6.5,2,8,5.2
		c1.6,3.3,1.1,7.2-1.3,10l-43.3,51.6c-1.6,1.9-4,3.1-6.4,3.2C113,148.5,112.9,148.5,112.8,148.5z M62.3,85.1c-1.3,0-1.9,1-2.1,1.5
		c-0.3,0.8-0.4,2,0.5,3l50.5,51.6c0.5,0.5,1,0.7,1.7,0.7c0.6,0,1.2-0.3,1.6-0.8l43.3-51.6c1-1.2,0.5-2.6,0.4-2.9
		c-0.2-0.4-0.8-1.4-2.1-1.4h-24.2c-4.9,0-8.9-4.1-8.9-9.2V25.8c0-1.4-1-2.6-2.3-2.6H95c-1.3,0-2.3,1.2-2.3,2.6v50.2
		c0,5.1-4,9.2-8.9,9.2H62.3z"/>
</g>
</svg>
