<?xml version="1.0" encoding="utf-8"?>
<!-- Generator: Adobe Illustrator 22.0.0, SVG Export Plug-In . SVG Version: 6.00 Build 0)  -->
<svg version="1.1" id="Layer_1" xmlns="http://www.w3.org/2000/svg" xmlns:xlink="http://www.w3.org/1999/xlink" x="0px" y="0px"
	 viewBox="0 0 216 216" style="enable-background:new 0 0 216 216;" xml:space="preserve">
<style type="text/css">
	.st0{fill:#A17633;}
	.st1{fill:#FFFFFF;}
</style>
<path class="st0" d="M166.2,195.6H49.1c-16,0-29.1-13.1-29.1-29.1V49.4c0-16,13.1-29.1,29.1-29.1h117.2c16,0,29.1,13.1,29.1,29.1
	v117.2C195.3,182.5,182.2,195.6,166.2,195.6z"/>
<path class="st1" d="M61,35l8.2,0.2l8.3,0.1c5.5,0.1,11.1,0.2,16.6,0.2c11.1,0.1,22.2,0,33.3,0l16.6-0.3l8.3-0.2l2-0.1
	c0.6,0,1.2,0.1,1.8,0.2c1.3,0.2,2.5,0.5,3.8,0.9c2.5,0.8,4.9,2,7.1,3.5c1.1,0.7,2.2,1.6,3.2,2.4c0.5,0.4,1,0.9,1.5,1.3
	c0.5,0.5,1,0.9,1.5,1.4c3.8,3.9,7,8.4,9.6,13.3c-2-5.2-4.6-10.2-8.2-14.6c-0.4-0.6-0.9-1.1-1.4-1.6c-0.5-0.5-0.9-1.1-1.5-1.6
	c-1.1-1-2.1-2-3.3-2.8c-2.3-1.8-4.8-3.3-7.5-4.4c-1.4-0.5-2.8-1-4.2-1.3c-0.7-0.2-1.5-0.3-2.3-0.4l-2.2-0.1l-8.3-0.2l-16.6-0.3
	c-11.1-0.1-22.2-0.2-33.3,0c-5.5,0-11.1,0.1-16.6,0.2L69.3,31l-8.3,0.2l-0.1,0l0,0c-3.6,0.4-7.2,1.3-10.5,3
	c-3.3,1.6-6.2,3.8-8.7,6.4c-2.5,2.6-4.5,5.6-6,8.7c-1.6,3.1-2.7,6.5-3.4,9.9c0.5-1.6,1.2-3.2,2-4.8c0.8-1.5,1.6-3,2.5-4.5
	c1.9-2.8,4-5.5,6.5-7.7c2.5-2.2,5.3-4,8.3-5.2C54.6,35.9,57.8,35.2,61,35z M159.3,159.2c0,4.6-3.7,8.3-8.3,8.3H64.3
	c-4.6,0-8.3-3.7-8.3-8.3V72.5c0-4.6,3.7-8.3,8.3-8.3h60.5l10-9.9H64.3c-10,0-18.2,8.2-18.2,18.2v86.8c0,10,8.2,18.2,18.2,18.2H151
	c10,0,18.2-8.2,18.2-18.2V99.4l-9.9,9.9V159.2z M78.2,150h25.4l55.9-56.6l-24.6-24.3l-56.6,56.2V150z M133.9,77.6l1.5,1.8l-31.6,32
	l-2.2-1.5L133.9,77.6z M87.6,130.5l9.2-8.1l10,10.8l-0.9,0.9l0.1,0.1l-6.1,5.5l-1.3,1.1h-5.1l-5.9-5.9V130.5z M155.6,56.4
	c-2.3-2.3-5.9-2.4-8.3-0.1l-9.6,9.2l24.4,24.4l9.2-8c2.7-2.4,2.9-6.5,0.4-9.1L155.6,56.4z"/>
</svg>
