<?xml version="1.0" encoding="utf-8"?>
<!-- Generator: Adobe Illustrator 22.0.0, SVG Export Plug-In . SVG Version: 6.00 Build 0)  -->
<svg version="1.1" id="Layer_1" xmlns="http://www.w3.org/2000/svg" xmlns:xlink="http://www.w3.org/1999/xlink" x="0px" y="0px"
	 viewBox="0 0 216 216" style="enable-background:new 0 0 216 216;" xml:space="preserve">
<style type="text/css">
	.st0{fill:#585858;}
</style>
<path class="st0" d="M201.9,12.5H15.1c-4.7,0-8.6,3.9-8.6,8.6v71.2C6.6,92.9,7,94.1,8,95c1.9,1.7,4.5,1.1,5,1c0.4-0.1,1.2-0.3,2-1
	c1.2-1,1.4-2.4,1.5-2.8V46l87.3,50.4c0.7,0.4,1.5,0.6,2.3,0.6c0.1,0,0.2,0,0.3,0c0.1,0,0.2,0,0.3,0c0.8,0,1.6-0.2,2.3-0.6l91.4-52.8
	V156H118c-0.3,0.1-2.5,0.7-3.6,2.9c-0.6,1.3-0.5,2.6-0.4,3.1c0.4,2.6,2.7,3.8,3,4h84.9c4.7,0,8.6-3.9,8.6-8.6V21.1
	C210.5,16.4,206.6,12.5,201.9,12.5z M200.5,32.1c-0.1,0-0.2,0.1-0.3,0.1l-93.8,54.1l-90-51.9V22.5h184V32.1z M52,126
	c-9.9,0-18,8.1-18,18s8.1,18,18,18s18-8.1,18-18S61.9,126,52,126z M52,153c-5,0-9-4-9-9s4-9,9-9s9,4,9,9S57,153,52,153z
	 M100.5,153.5c0,0-2-1-7-5c1-5,0-10,0-10s4-3,7-5c5.5-5.5,0-14-2-18c-6-11-13-8-13-8s-6,2-8,3c-4-3-9-5-9-5s-1-6-1-8c0-7-13-8-15-8
	c-14,0-15,7-15,7s-1,3-1,9c-5,2-9,5-9,5c-2,0-3-1-7-3c-8-4-14,8-16,11c-5,10-1,14,0,15c2,2,7,5,7,5c-1,6,0,10,0,10s-5,4-8,6
	c-4,5,1,15,3,18c5,8,10,8,13,8l8-4c1,2,9,6,9,6s0,4,1,9c3,7,15,6,16,6c9,0,13-4,14-7c0-2,1-7,1-9c5-1,9-5,9-5s4,2,8,4
	c8,1,12-7,14-10C106.5,157.5,100.5,153.5,100.5,153.5z M87.5,170.5l-10-4c0,0-3,0-5,2s-5,4-10,6c0,0-3,0-3,5c0,1-1,8-1,8s-5,2-12,0
	c0-5-1-10-1-10s-1-3-4-4s-5-1-11-6c-1-1-4-1-7,1l-6,3c0,0-6-7-6-11c3-2,8-6,8-6s2-1,1-5c0-1-1-5,0-11c0-1,1-4-1-6c-1-1-8-5-8-5
	s0.5-5.5,6-11c4,2,7,3,9,4s3.4,0.6,5-1c2-2,4-3,9-6c2-1,4-2,5-4l1-9c0,0,6-2,12,0l1,10c0,0,1,2,3,3s4,0,11,6c1,1,3,2,5,1s9-4,9-4
	s5,5,6,11c0,0-5.5,2.5-9,6c0,1-1,1,0,5s0,8-1,11c0,1,0,3,2,5s8,6,8,6S91.5,167.5,87.5,170.5z"/>
</svg>
