<?xml version="1.0" encoding="utf-8"?>
<!-- Generator: Adobe Illustrator 22.0.0, SVG Export Plug-In . SVG Version: 6.00 Build 0)  -->
<svg version="1.1" id="Layer_1" xmlns="http://www.w3.org/2000/svg" xmlns:xlink="http://www.w3.org/1999/xlink" x="0px" y="0px"
	 viewBox="0 0 216 216" style="enable-background:new 0 0 216 216;" xml:space="preserve">
<style type="text/css">
	.st0{fill:#515151;}
	.st1{fill:#FFFFFF;}
</style>
<polygon class="st0" points="12.5,83.8 110.1,145.5 200.8,82 107.6,13.5 "/>
<path class="st0" d="M203.3,196.3H12.5V84.2h190.9V196.3z M16.5,192.3h182.9V88.2H16.5V192.3z"/>
<polygon class="st0" points="200.1,81.5 203.3,84.2 195.5,84.2 "/>
<g>
	<polygon class="st1" points="15.3,194.8 107,123.5 200.8,194.8 	"/>
	<path class="st0" d="M107,121l-94.5,73.4v2.4h190.9v-2.5L107,121z M21.1,192.8L107,126l87.8,66.7H21.1z"/>
</g>
<g>
	<path class="st1" d="M132.2,89.6h6.8c-2.1,4.3-5.4,7.7-9.8,10.1c-5,2.8-11.2,4.2-18.4,4.2c-7,0-13.1-1.2-18.2-3.6
		c-5.1-2.4-8.9-5.9-11.4-10.5c-2.5-4.6-3.7-9.7-3.7-15.1c0-6,1.4-11.5,4.2-16.7c2.8-5.2,6.7-9,11.6-11.6c4.9-2.6,10.5-3.9,16.8-3.9
		c5.4,0,10.1,1,14.3,3.1c4.2,2.1,7.4,5,9.6,8.9c2.2,3.8,3.3,8,3.3,12.6c0,5.4-1.7,10.3-5,14.7c-4.2,5.5-9.6,8.3-16.1,8.3
		c-1.8,0-3.1-0.3-4-0.9c-0.9-0.6-1.5-1.5-1.8-2.7c-2.5,2.4-5.4,3.6-8.7,3.6c-3.5,0-6.5-1.2-8.8-3.7c-2.3-2.4-3.5-5.7-3.5-9.7
		c0-5,1.4-9.6,4.2-13.7c3.4-5,7.8-7.5,13.1-7.5c3.8,0,6.6,1.4,8.4,4.3l0.8-3.5h8.4l-4.8,22.9c-0.3,1.4-0.4,2.4-0.4,2.8
		c0,0.5,0.1,0.9,0.4,1.2c0.2,0.3,0.5,0.4,0.9,0.4c1,0,2.3-0.6,4-1.9c2.2-1.6,3.9-3.8,5.3-6.5c1.3-2.7,2-5.5,2-8.5
		c0-5.2-1.9-9.6-5.7-13.1c-3.8-3.5-9.1-5.3-15.9-5.3c-5.8,0-10.6,1.2-14.7,3.5c-4,2.3-7,5.7-9.1,9.9c-2,4.3-3,8.7-3,13.3
		c0,4.5,1.1,8.6,3.4,12.2c2.3,3.7,5.4,6.4,9.5,8.1c4.1,1.7,8.8,2.5,14.1,2.5c5.1,0,9.5-0.7,13.1-2.1C127.1,94.6,130,92.5,132.2,89.6
		z M97.8,76.5c0,2.7,0.5,4.7,1.6,6c1.1,1.3,2.5,1.9,4.1,1.9c1.2,0,2.3-0.3,3.4-0.9c0.8-0.4,1.6-1.1,2.4-2c1.1-1.3,2.1-3.2,2.9-5.7
		c0.8-2.5,1.2-4.8,1.2-7c0-2.4-0.6-4.2-1.7-5.5c-1.1-1.3-2.5-1.9-4.2-1.9c-1.8,0-3.5,0.7-5.1,2.1c-1.6,1.4-2.7,3.4-3.5,6
		C98.1,72.2,97.8,74.5,97.8,76.5z"/>
</g>
<polygon class="st0" points="12.5,83.8 12.5,85.6 17.2,85.6 "/>
</svg>
