<?xml version="1.0" encoding="utf-8"?>
<!-- Generator: Adobe Illustrator 22.0.0, SVG Export Plug-In . SVG Version: 6.00 Build 0)  -->
<svg version="1.1" id="Layer_1" xmlns="http://www.w3.org/2000/svg" xmlns:xlink="http://www.w3.org/1999/xlink" x="0px" y="0px"
	 viewBox="0 0 216 216" style="enable-background:new 0 0 216 216;" xml:space="preserve">
<style type="text/css">
	.st0{fill:#585858;}
</style>
<path class="st0" d="M200.9,11.7c-2.7-5.4-8.2-8.7-14.2-8.7H34.8c-6,0-11.5,3.3-14.2,8.7c-2.7,5.4-2.2,11.7,1.3,16.6l62.2,85.2v84.6
	c0,6.1,3.4,11.6,8.9,14.3c2.3,1.1,4.7,1.7,7,1.7c3.4,0,6.8-1.1,9.7-3.3l22.4-17.3c3.9-3,6.2-7.7,6.2-12.6v-67.8l61.2-84.7
	C203.2,23.4,203.7,17,200.9,11.7z M123.7,103c-2,2.7-3,6-3,9.3v67.6l-18.9,14.6v-81.6c0-3.4-1.1-6.6-3.1-9.4L61.7,52.7h98.5
	L123.7,103z M173.2,34.6H48.5l-10.2-14h145L173.2,34.6z"/>
</svg>
