<?xml version="1.0" encoding="utf-8"?>
<!-- Generator: Adobe Illustrator 22.0.0, SVG Export Plug-In . SVG Version: 6.00 Build 0)  -->
<svg version="1.1" id="Layer_1" xmlns="http://www.w3.org/2000/svg" xmlns:xlink="http://www.w3.org/1999/xlink" x="0px" y="0px"
	 viewBox="0 0 216 216" style="enable-background:new 0 0 216 216;" xml:space="preserve">
<style type="text/css">
	.st0{fill:#585858;}
</style>
<path class="st0" d="M158.5,85.5c4-1,7,1,7-8s0-19,0-19s-2-5-7-2s-60,49-60,49s-8,8-19,2l-61-50c0,0-4-5-8,1v77c0,0,2,14,13,14
	s81,0,81,0s4,1.1,4-7C108.5,133.5,107.5,91.5,158.5,85.5z M84,99c0,0,4,5,9,0s66-54,66-54s6-6-9-9H25c0,0-12,2-8,9L84,99z
	 M161.5,109c-11.3,0-20.5,9.2-20.5,20.5s9.2,20.5,20.5,20.5s20.5-9.2,20.5-20.5S172.8,109,161.5,109z M161.5,93
	C137,93,117,113,117,137.5s20,44.5,44.5,44.5s44.5-20,44.5-44.5S186,93,161.5,93z M189,162.9c-6.7-4.8-16.5-7.9-27.5-7.9
	c-11,0-20.8,3.1-27.5,7.9c-6.2-6.7-10-15.6-10-25.4c0-20.7,16.8-37.5,37.5-37.5s37.5,16.8,37.5,37.5
	C199,147.3,195.2,156.2,189,162.9z"/>
</svg>
