<?xml version="1.0" encoding="utf-8"?>
<!-- Generator: Adobe Illustrator 22.0.0, SVG Export Plug-In . SVG Version: 6.00 Build 0)  -->
<svg version="1.1" id="Layer_1" xmlns="http://www.w3.org/2000/svg" xmlns:xlink="http://www.w3.org/1999/xlink" x="0px" y="0px"
	 viewBox="0 0 216 216" style="enable-background:new 0 0 216 216;" xml:space="preserve">
<style type="text/css">
	.st0{fill:#585858;}
	.st1{fill:#FFFFFF;}
</style>
<path class="st0" d="M107.1,213C49.3,213,2.4,166,2.4,108.2c0-57.8,47-104.8,104.8-104.8c57.8,0,104.8,47,104.8,104.8
	C211.9,166,164.9,213,107.1,213z M107.1,11.5c-53.4,0-96.8,43.4-96.8,96.8c0,53.4,43.4,96.8,96.8,96.8c53.4,0,96.8-43.4,96.8-96.8
	C203.9,54.9,160.5,11.5,107.1,11.5z"/>
<g>
	<path class="st0" d="M97.9,193.9c-4.2,0-8.5-0.3-12.7-1c-21.1-3.3-39.6-14.6-52-31.7C21,144.6,15.9,124,18.8,103.4
		c2.9-20.6,13.4-39,29.7-51.7l2.8-2.2l49.2,62.8l46.9,64.4l-2.8,2.1C130.7,188.7,114.6,193.9,97.9,193.9z M50,59.4
		c-28.1,24.3-33.3,67.4-11.3,97.7C50.1,172.7,67,183,86.2,186c18.1,2.8,36.1-1,51.1-10.9l-42.7-58.6L50,59.4z"/>
	<path class="st0" d="M162.1,166l-49.2-62.8L66.1,38.8l2.8-2.1c16.7-12.1,37.2-17.2,57.9-14.4c20.6,2.9,39,13.4,51.7,29.7
		c13,16.6,18.8,37.5,16.2,58.7c-2.6,21.2-13.2,40.1-29.8,53.1L162.1,166z M118.6,99l44.7,57.1c13.6-11.7,22.3-28,24.5-46.2
		c2.4-19.4-2.9-38.4-14.8-53.5C149.9,26.8,107,20,75.9,40.4L118.6,99z"/>
</g>
<path class="st0" d="M168.2,174l-11.7-38.5c2.9-3.2,4.7-7.5,4.7-12.2V88.5c0-10-8.1-18.1-18.1-18.1H70.2c-10,0-18.1,8.1-18.1,18.1
	v34.8c0,10,8.1,18.1,18.1,18.1h64L168.2,174z"/>
<path class="st1" d="M125,95.4H91.2c-3.4,0-6.2-2.8-6.2-6.2v0c0-3.4,2.8-6.2,6.2-6.2H125c3.4,0,6.2,2.8,6.2,6.2v0
	C131.2,92.6,128.4,95.4,125,95.4z"/>
<path class="st1" d="M125,112.1H91.2c-3.4,0-6.2-2.8-6.2-6.2v0c0-3.4,2.8-6.2,6.2-6.2H125c3.4,0,6.2,2.8,6.2,6.2v0
	C131.2,109.3,128.4,112.1,125,112.1z"/>
<path class="st1" d="M125,128.6H91.2c-3.4,0-6.2-2.8-6.2-6.2v0c0-3.4,2.8-6.2,6.2-6.2H125c3.4,0,6.2,2.8,6.2,6.2v0
	C131.2,125.9,128.4,128.6,125,128.6z"/>
</svg>
