<?xml version="1.0" encoding="utf-8"?>
<!-- Generator: Adobe Illustrator 22.0.0, SVG Export Plug-In . SVG Version: 6.00 Build 0)  -->
<svg version="1.1" id="Layer_1" xmlns="http://www.w3.org/2000/svg" xmlns:xlink="http://www.w3.org/1999/xlink" x="0px" y="0px"
	 viewBox="0 0 216 216" style="enable-background:new 0 0 216 216;" xml:space="preserve">
<style type="text/css">
	.st0{fill:#585858;}
</style>
<path class="st0" d="M154.7,34L154.7,34c-7.3-1.7-10.1,4.2-11.4,5.4c-2.5,5-1,9.3,0.3,11.6c0.6,1.1,1.5,1.9,2.5,2.6
	c21.3,13.8,35,38.5,33.2,66.1c-2.3,35.9-31,65-66.9,67.8C69.5,191,33.6,157,33.6,114.9c0-26.8,14.6-50.3,36.2-63l0,0
	c2.5-2.5,1.8-7.5,0.7-10.6c-0.4-1.1-1.1-2.2-1.9-3c-6.1-5.4-9.9-4.3-10.7-3.9c0,0-0.1,0-0.1,0c-28,17-46.4,48.2-45.3,83.5
	c1.5,48.6,40.5,88.4,89,91c54.2,2.9,99.3-40.4,99.3-94C200.6,80.5,182.2,50.5,154.7,34z M104.2,140.4h4.7c5.2,0,9.5-4.3,9.5-9.5
	V16.5c0-5.2-4.3-9.5-9.5-9.5h-4.7c-5.2,0-9.5,4.3-9.5,9.5v114.4C94.7,136.1,98.9,140.4,104.2,140.4z"/>
</svg>
