<?xml version="1.0" encoding="utf-8"?>
<!-- Generator: Adobe Illustrator 22.0.0, SVG Export Plug-In . SVG Version: 6.00 Build 0)  -->
<svg version="1.1" id="Layer_1" xmlns="http://www.w3.org/2000/svg" xmlns:xlink="http://www.w3.org/1999/xlink" x="0px" y="0px"
	 viewBox="0 0 216 216" style="enable-background:new 0 0 216 216;" xml:space="preserve">
<style type="text/css">
	.st0{fill:#585858;}
	.st1{fill:#D6D6D6;stroke:#585858;stroke-miterlimit:10;}
</style>
<path class="st0" d="M173.5,210.5H43c-8.8,0-16-7.2-16-16v-171c0-8.8,7.2-16,16-16h130.5c8.8,0,16,7.2,16,16v171
	C189.5,203.3,182.3,210.5,173.5,210.5z M43,15.5c-4.4,0-8,3.6-8,8v171c0,4.4,3.6,8,8,8h130.5c4.4,0,8-3.6,8-8v-171c0-4.4-3.6-8-8-8
	H43z"/>
<path class="st0" d="M166,37H47c-2.2,0-4-1.8-4-4v0c0-2.2,1.8-4,4-4h119c2.2,0,4,1.8,4,4v0C170,35.2,168.2,37,166,37z"/>
<path class="st0" d="M100,55H47c-2.2,0-4-1.8-4-4v0c0-2.2,1.8-4,4-4h53c2.2,0,4,1.8,4,4v0C104,53.2,102.2,55,100,55z"/>
<path class="st0" d="M93,157H47c-2.2,0-4-1.8-4-4l0,0c0-2.2,1.8-4,4-4h46c2.2,0,4,1.8,4,4l0,0C97,155.2,95.2,157,93,157z"/>
<path class="st0" d="M93,173H47c-2.2,0-4-1.8-4-4l0,0c0-2.2,1.8-4,4-4h46c2.2,0,4,1.8,4,4l0,0C97,171.2,95.2,173,93,173z"/>
<path class="st0" d="M93,190H47c-2.2,0-4-1.8-4-4l0,0c0-2.2,1.8-4,4-4h46c2.2,0,4,1.8,4,4l0,0C97,188.2,95.2,190,93,190z"/>
<path class="st0" d="M166,55h-45c-2.2,0-4-1.8-4-4v0c0-2.2,1.8-4,4-4h45c2.2,0,4,1.8,4,4v0C170,53.2,168.2,55,166,55z"/>
<path class="st0" d="M168,90h-45c-2.2,0-4-1.8-4-4v0c0-2.2,1.8-4,4-4h45c2.2,0,4,1.8,4,4v0C172,88.2,170.2,90,168,90z"/>
<path class="st0" d="M168,106h-45c-2.2,0-4-1.8-4-4v0c0-2.2,1.8-4,4-4h45c2.2,0,4,1.8,4,4v0C172,104.2,170.2,106,168,106z"/>
<path class="st1" d="M122.7,190h-11.4c-2.4,0-4.3-1.9-4.3-4.3v-32.4c0-2.4,1.9-4.3,4.3-4.3h11.4c2.4,0,4.3,1.9,4.3,4.3v32.4
	C127,188.1,125.1,190,122.7,190z"/>
<path class="st1" d="M145.2,190.5h-11.4c-2.4,0-4.3-1.9-4.3-4.3v-44.4c0-2.4,1.9-4.3,4.3-4.3h11.4c2.4,0,4.3,1.9,4.3,4.3v44.4
	C149.5,188.6,147.6,190.5,145.2,190.5z"/>
<path class="st1" d="M169.2,191.5h-11.4c-2.4,0-4.3-1.9-4.3-4.3v-57.4c0-2.4,1.9-4.3,4.3-4.3h11.4c2.4,0,4.3,1.9,4.3,4.3v57.4
	C173.5,189.6,171.6,191.5,169.2,191.5z"/>
<path class="st1" d="M105,99c0,17.1-13.9,31-31,31s-31-13.9-31-31c0-15.5,11.4-28.4,26.3-30.7L74,100l30.8-4.2
	C104.9,96.8,105,97.9,105,99z"/>
<path class="st1" d="M73,67l4,29l30-4C107,92,101,63,73,67z"/>
</svg>
