<?xml version="1.0" encoding="utf-8"?>
<!-- Generator: Adobe Illustrator 22.0.0, SVG Export Plug-In . SVG Version: 6.00 Build 0)  -->
<svg version="1.1" id="Layer_1" xmlns="http://www.w3.org/2000/svg" xmlns:xlink="http://www.w3.org/1999/xlink" x="0px" y="0px"
	 viewBox="0 0 216 216" style="enable-background:new 0 0 216 216;" xml:space="preserve">
<style type="text/css">
	.st0{fill:#515151;}
	.st1{fill:#F2F2F2;stroke:#A5A5A5;stroke-miterlimit:10;}
	.st2{fill:#717171;}
</style>
<path class="st0" d="M124.5,3.5h-84C26.4,3.5,15,14.9,15,29v73.9c0,14.1,11.4,25.5,25.5,25.5h18.8l1.1-3.9H40.5
	c-11.9,0-21.6-9.7-21.6-21.6V29c0-11.9,9.7-21.6,21.6-21.6h84c11.9,0,21.6,9.7,21.6,21.6v73.9c0,11.9-9.7,21.6-21.6,21.6H81.6
	l-4.2,3.9h47.1c14.1,0,25.5-11.4,25.5-25.5V29C150,14.9,138.6,3.5,124.5,3.5z"/>
<path class="st0" d="M81.6,124.4l-4.2,3.9h0l-0.8,0.7l-0.2,0.1l-23.6,21.2l5.9-20.2l0.1-0.4l0.4-1.4h0l1.1-3.9h-4l-1.2,3.9l-10,34.2
	l38.1-34.2l4.4-3.9H81.6z"/>
<g>
	<path class="st0" d="M181.4,79.7h-21.9V83h21.9c10.1,0,18.2,8.2,18.2,18.2v62.4c0,10-8.2,18.2-18.2,18.2h-16.8l0.9,3.3h15.9
		c11.9,0,21.5-9.7,21.5-21.5v-62.4C203,89.3,193.3,79.7,181.4,79.7z M110.5,181.8c-10.1,0-18.2-8.2-18.2-18.2v-27.1h-3.3v27.1
		c0,11.9,9.7,21.5,21.5,21.5h39.8l-3.6-3.3H110.5z"/>
	<path class="st0" d="M169,185.1l-1-3.3h-3.4l0.9,3.3h0l0.4,1.2l0.1,0.4l5,17.1l-19.9-17.9l-0.1-0.1l-0.7-0.6h0l-3.6-3.3h-5.1
		l3.7,3.3l32.2,28.9L169,185.1z"/>
</g>
<path class="st0" d="M149.6,149.8c-8.2,0-14.8-6.6-14.8-14.8s6.6-14.8,14.8-14.8c8.2,0,14.8,6.6,14.8,14.8S157.8,149.8,149.6,149.8z
	 M149.6,122.9c-6.7,0-12.2,5.5-12.2,12.2c0,6.7,5.5,12.2,12.2,12.2c6.7,0,12.2-5.5,12.2-12.2C161.8,128.3,156.3,122.9,149.6,122.9z"
	/>
<path class="st0" d="M150,108.3v2.8c0,0,4.6-0.2,6.4,0.9l2.7-4.7l4,1.6l-1.6,5.1c0,0,7.3,4,9.4,9.6l5.2-1.6l1.8,4.1l-4.8,2.6
	c0,0,2.2,5.1,0,13l4.8,2.7l-1.8,4.1l-5.2-1.8c0,0-2.5,5.4-9.5,9.5l1.7,5.1l-4.1,1.7l-2.6-4.9c0,0-6.8,2.2-13.5,0.1l-2.3,4.8
	l-4.2-1.8l1.5-5c0,0-5.9-3.1-9.3-9.4l-5.1,1.5l-2-4l4.5-2.6c0,0-1-9.1-0.1-10.9l-2.6-0.2c0,0-1.1,4.7,0.1,9.5l-5.3,2.8l3.7,8.7
	l5.3-1.7c0,0,3.9,5.8,7.7,7.2l-1.8,5.7l8.8,3.5l2.8-5.1c0,0,5.9,1.3,10.2-0.1l3.1,5.2l8.7-3.7l-1.9-5.4c0,0,4.7-3.1,7.6-7.4l5.7,1.9
	l3.7-8.8l-5.4-2.9c0,0,1.4-5.8-0.1-10.1l5.4-3.1l-3.8-8.7l-5.9,1.7c0,0-2.1-4.3-7-7.2l1.6-5.8l-8.5-3.5l-2.9,4.8l-0.2,0.5
	C155,109.1,152.9,108.4,150,108.3z"/>
<path class="st1" d="M122.9,118.6H42.4c-6.6,0-12-5.4-12-12V26.1c0-6.6,5.4-12,12-12h80.4c6.6,0,12,5.4,12,12v80.4
	C134.9,113.2,129.5,118.6,122.9,118.6z"/>
<g>
	<path class="st2" d="M94.1,62.6L106.6,50c0.4-0.3,0.2-0.8,0.2-0.8c-0.1-0.9-0.9-0.8-0.9-0.8h-5.4c-1.5,0-2.3,1-2.3,1L87.5,60.7
		V50.1c0-1.4-1.6-1.7-1.6-1.7h-5.6c-1.5,0.2-1.5,1.6-1.5,1.6v32.8c0,1.5,1.5,1.6,1.5,1.6l4.9,0c2.3,0.2,2.4-1.8,2.4-1.8l0-14.1
		l0.6-0.7l10.8,15.4c0.7,1.1,2.4,1.2,2.4,1.2h7.1c0.9,0,1.1-0.5,1.1-0.5c0.4-0.7-0.1-1.5-0.1-1.5L94.1,62.6z"/>
	<path class="st2" d="M57.6,48.3c-10,0-18.2,8.1-18.2,18.2c0,10,8.1,18.2,18.2,18.2c10,0,18.2-8.1,18.2-18.2
		C75.8,56.5,67.7,48.3,57.6,48.3z M57.7,77.5c-6.1,0-11-4.9-11-11c0-6.1,4.9-11,11-11c6.1,0,11,4.9,11,11
		C68.7,72.6,63.8,77.5,57.7,77.5z"/>
	<path class="st2" d="M65.3,61.1c-1.3-1.4-2.8-0.3-2.8-0.3l-8.1,8.2l-2.4-2.3c-1.5-1.4-3,0.2-3,0.2c-1.4,1.5-0.3,2.7-0.3,2.7
		l4.1,4.2c1.8,1.5,3.2-0.3,3.2-0.3l9.4-9.6C66.7,62.3,65.3,61.1,65.3,61.1z"/>
	<path class="st2" d="M124,67.1c-1.1-1-2.7-1.8-5-2.6v-5.8c0.7,0.1,1.3,0.2,1.7,0.5c0.4,0.2,0.7,0.6,1,1.2c0.3,0.5,0.5,0.8,0.7,1
		c0.2,0.2,0.5,0.3,0.9,0.3c0.4,0,0.8-0.1,1.1-0.4c0.3-0.3,0.5-0.6,0.5-1c0-0.8-0.6-1.5-1.7-2.1c-1.1-0.6-2.5-1-4.2-1v-2.2h-1.8v2.3
		c-1.8,0.3-3.3,0.9-4.4,1.8c-1.1,1-1.6,2.1-1.6,3.5c0,1.2,0.5,2.3,1.5,3.2c1,0.9,2.5,1.7,4.6,2.4l0,6.8c-0.6,0-1.1-0.1-1.4-0.3
		c-0.4-0.2-0.7-0.4-1-0.8c-0.1-0.1-0.2-0.3-0.3-0.5c-0.5-0.7-1.1-1.1-1.9-1.1c-0.5,0-0.9,0.1-1.2,0.4c-0.3,0.2-0.5,0.5-0.5,0.9
		c0,0.8,0.6,1.5,1.7,2c1.1,0.5,2.7,0.9,4.6,1v3.4h1.8v-3.4c2-0.3,3.7-0.9,4.8-2c1.2-1.1,1.8-2.4,1.8-3.9C125.6,69.2,125,68,124,67.1
		z M117.1,63.8c-0.9-0.4-1.6-0.8-2.1-1.2c-0.5-0.5-0.7-1-0.7-1.5c0-0.6,0.2-1.1,0.7-1.5c0.5-0.4,1.2-0.7,2.1-1V63.8z M121.4,73.7
		c-0.6,0.5-1.4,0.8-2.4,1v-5.9c1.1,0.3,1.9,0.8,2.4,1.3c0.6,0.5,0.8,1.1,0.8,1.8C122.2,72.6,122,73.2,121.4,73.7z"/>
</g>
<g>
	<path d="M105.8,48.3h-5.4c-1.5,0-2.3,1-2.3,1L87.5,60.4v0.3l10.7-11.3c0,0,0.8-1,2.3-1h5.4c0,0,0.2,0,0.4,0.1
		C106.1,48.3,105.8,48.3,105.8,48.3z"/>
	<path d="M80.1,48.3c-1.5,0.2-1.5,1.6-1.5,1.6v32.8c0,0.8,0.4,1.2,0.8,1.4c-0.3-0.2-0.6-0.6-0.6-1.3V50c0,0-0.1-1.4,1.5-1.6h5.6
		c0,0,0.4,0.1,0.8,0.3c-0.5-0.3-1-0.4-1-0.4H80.1z"/>
	<path d="M99.1,83.3L88.2,67.9L88.2,68l10.7,15.2c0.2,0.3,0.4,0.5,0.7,0.6C99.4,83.7,99.2,83.6,99.1,83.3z"/>
	<path d="M63.7,57.4c2.9,2,4.8,5.3,4.8,9.1c0,6.1-4.9,11-11,11c-2.2,0-4.3-0.7-6-1.8c1.8,1.2,3.9,1.9,6.2,1.9c6.1,0,11-4.9,11-11
		C68.7,62.7,66.7,59.3,63.7,57.4z"/>
	<path d="M39.5,66.6c0-10,8.1-18.2,18.2-18.2c3.7,0,7.1,1.1,10,3c-2.9-2-6.4-3.1-10.2-3.1c-10,0-18.2,8.1-18.2,18.2
		c0,6.3,3.2,11.9,8.2,15.2C42.6,78.3,39.5,72.8,39.5,66.6z"/>
	<path d="M54.4,69.2l8.1-8.2c0,0,1.1-0.9,2.2-0.2c-1.2-0.9-2.4,0.1-2.4,0.1L54.3,69L54.4,69.2z"/>
	<path d="M53.1,74.1C53.1,74,53,74,53,73.9l-4.1-4.2c0,0-1.1-1.3,0.3-2.7c0,0,1.2-1.3,2.6-0.5c-1.5-1.1-2.8,0.3-2.8,0.3
		c-1.4,1.5-0.3,2.7-0.3,2.7l4.1,4.2C52.9,73.9,53,74,53.1,74.1z"/>
	<path d="M122.2,61.2c0,0,0.1,0.1,0.1,0.1c-0.2-0.2-0.4-0.5-0.7-0.9c-0.3-0.5-0.6-0.9-1-1.2c0,0,0,0,0,0c0.3,0.2,0.6,0.6,0.8,1
		C121.7,60.7,121.9,61,122.2,61.2z"/>
	<path d="M119,64.5c1.6,0.5,3,1.1,4,1.8C121.9,65.6,120.6,65,119,64.5L119,64.5z"/>
	<path d="M116.9,63.7c-0.6-0.2-1-0.4-1.4-0.7c0.4,0.3,1,0.6,1.6,0.8v-5.2c-0.1,0-0.1,0-0.2,0.1V63.7z"/>
	<path d="M116.9,74.7c-0.6,0-1.1-0.1-1.4-0.3c-0.1,0-0.2-0.1-0.2-0.1c0.1,0.1,0.3,0.2,0.4,0.3c0.4,0.2,0.9,0.3,1.4,0.3l0-6.7
		c-0.1,0-0.1-0.1-0.2-0.1L116.9,74.7z"/>
	<path d="M120.8,69.6c0.2,0.1,0.3,0.2,0.4,0.4c0.6,0.5,0.8,1.1,0.8,1.8c0,0.7-0.3,1.4-0.8,1.9c-0.5,0.5-1.3,0.8-2.2,0.9v0.2
		c1.1-0.2,1.9-0.5,2.4-1c0.6-0.5,0.8-1.1,0.8-1.9c0-0.7-0.3-1.3-0.8-1.8C121.2,69.9,121,69.7,120.8,69.6z"/>
	<path d="M116.9,79.7h0.2v-3.3c-0.1,0-0.1,0-0.2,0V79.7z"/>
	<path d="M111.1,72.4c-0.3,0.2-0.5,0.5-0.5,0.9c0,0.7,0.4,1.2,1.2,1.7c-0.6-0.5-1-1-1-1.6c0-0.3,0.2-0.6,0.5-0.9
		c0.3-0.2,0.7-0.4,1.2-0.4c0.4,0,0.7,0.1,1,0.3c-0.4-0.3-0.8-0.4-1.2-0.4C111.8,72.1,111.4,72.2,111.1,72.4z"/>
	<path d="M116.9,57c-1.8,0.3-3.3,0.9-4.4,1.8c-1.1,1-1.6,2.1-1.6,3.5c0,1.2,0.5,2.3,1.5,3.2c0.3,0.3,0.6,0.5,1,0.8
		c-0.3-0.2-0.6-0.4-0.8-0.6c-1-0.9-1.5-2-1.5-3.2c0-1.4,0.5-2.5,1.6-3.5c1.1-1,2.6-1.6,4.4-1.8v-2.3h1.6v-0.1h-1.8V57z"/>
	<path d="M123,58c-1.1-0.6-2.4-0.9-4-1v0.1c1.7,0,3.1,0.4,4.2,1c0.1,0.1,0.3,0.1,0.4,0.2C123.4,58.2,123.2,58.1,123,58z"/>
</g>
</svg>
