<?xml version="1.0" encoding="utf-8"?>
<!-- Generator: Adobe Illustrator 22.0.0, SVG Export Plug-In . SVG Version: 6.00 Build 0)  -->
<svg version="1.1" id="Layer_1" xmlns="http://www.w3.org/2000/svg" xmlns:xlink="http://www.w3.org/1999/xlink" x="0px" y="0px"
	 viewBox="0 0 216 216" style="enable-background:new 0 0 216 216;" xml:space="preserve">
<style type="text/css">
	.st0{fill:#585858;}
</style>
<path class="st0" d="M198.1,52c0-0.5-0.1-0.9-0.1-1.4c0,0,0,0,0,0c0-0.5-0.1-1-0.2-1.4c-0.2-1.6-0.6-3.3-1.2-5.2
	c-0.2-0.7-0.5-1.4-0.8-2l-26.1-26.5c-3.5-2.3-6.1-3.2-7.6-3.5h-0.7c-2.3-0.4-3.4,0-3.4,0l-5.5-0.2c0,0,0,0.1-0.1,0.2H82.5
	C73.4,12,66,19.4,66,28.5V33H25.5C16.4,33,9,40.4,9,49.5v138c0,9.1,7.4,16.5,16.5,16.5h99c9.1,0,16.5-7.4,16.5-16.5V183h40.5
	c9.1,0,16.5-7.4,16.5-16.5V56c0-0.7,0.1-1.6,0.1-2.6v-0.6C198.1,52.5,198.1,52.3,198.1,52z M132,187.5c0,4.1-3.4,7.5-7.5,7.5h-99
	c-4.1,0-7.5-3.4-7.5-7.5v-138c0-4.1,3.4-7.5,7.5-7.5h73c8.5,0,11.5,4.5,11.5,4.5s15.5,16.5,20,21c0.9,0.9,1.5,1.9,2,2.8V187.5z
	 M189,166.5c0,4.1-3.4,7.5-7.5,7.5H141V77c0-0.7,0.1-1.6,0.1-2.6v-0.6c0-0.3,0-0.5,0-0.8c0-0.5-0.1-0.9-0.1-1.4c0,0,0,0,0,0
	c0-0.5-0.1-1-0.2-1.4c-0.2-1.6-0.6-3.3-1.2-5.2c-0.1-0.4-0.3-0.7-0.4-1.1L117,40.1l-2.4-2.3h0c-4.4-3.4-7.8-4.5-9.5-4.9h-0.7
	c-2.3-0.4-3.4,0-3.4,0l-5.5-0.2c0,0,0,0.1-0.1,0.2H75v-4.5c0-4.1,3.4-7.5,7.5-7.5h73c8.5,0,11.5,4.5,11.5,4.5s15.5,16.5,20,21
	c0.9,0.9,1.5,1.9,2,2.8V166.5z M107,118H46c-2.8,0-5,2.3-5,5s2.3,5,5,5h61c2.8,0,5-2.3,5-5S109.8,118,107,118z M107,141H46
	c-2.8,0-5,2.3-5,5s2.3,5,5,5h61c2.8,0,5-2.3,5-5S109.8,141,107,141z M107,164H46c-2.8,0-5,2.3-5,5s2.3,5,5,5h61c2.8,0,5-2.3,5-5
	S109.8,164,107,164z"/>
</svg>
