<?xml version="1.0" encoding="utf-8"?>
<!-- Generator: Adobe Illustrator 22.0.0, SVG Export Plug-In . SVG Version: 6.00 Build 0)  -->
<svg version="1.1" id="Layer_1" xmlns="http://www.w3.org/2000/svg" xmlns:xlink="http://www.w3.org/1999/xlink" x="0px" y="0px"
	 viewBox="0 0 216 216" style="enable-background:new 0 0 216 216;" xml:space="preserve">
<style type="text/css">
	.st0{fill:#585858;}
</style>
<g>
	<g>
		<path class="st0" d="M65.2,65.8h13.7v-5.9H65.2V65.8z M113.3,59.9H99.6v5.9h13.7V59.9z M193.9,161.7c-0.1-3-0.1-4.9-0.2-6
			c0-0.2,0-0.5,0-0.7l0.1,0c-0.1-0.5-0.1-0.9-0.1-0.9l0,0c-0.1-0.8-0.3-1.4-0.8-1.9c-4.5-10.5-16.9-11.6-17.5-11.6l-38.5,0
			c-3.1-14.4-13.7-25.9-27.3-30c7.8-3.5,14.6-8.9,19.6-15.6c6.9-0.6,12.1-2.4,15.9-4.7c9.6-5.9,10.5-15.4,10.5-19v-0.1
			c0-8.9-3.5-15.7-9.7-19.9c-3.2-27.4-27.1-48.8-56.1-48.8c-29.3,0-53.5,21.9-56.2,49.7c-3.7,2.2-6.1,5-7.6,7.7
			C23.4,64.5,23,69,23,71.3l0,0.2c0,4.8,1,9,2.9,12.4c1.4,2.5,3.2,4.7,5.4,6.5c1.7,1.3,3.7,2.5,5.9,3.4l0,0c0,0,0,13.8,0,16.8
			c0,1.5,0.8,2.7,1.5,3.6c0.7,0.9,1.8,1.3,3,1.3H49c2,0,2.9-2,2.9-2.9c0-3.9-2.5-4.4-2.5-4.4h-4.9l-0.3-12.4l0,0
			c1.9,0.3,3.8,0.5,5.9,0.5c4.9,6.1,11.2,11,18.4,14.3c-16.6,4.7-28.9,20.4-28.9,39V204c0,0.7,0,1.4,0.1,2.1c0,0.1-0.1,0.3-0.1,0.4
			v4c0,0.8,0.6,1.4,1.4,1.4h71.1c0,0,0.1,0,0.1,0l0.2,0h64c12.3,0,16.6-12.2,17.2-18.7l0-0.2C194.1,176.7,194,167,193.9,161.7z
			 M148.6,71.2v0.2c0,5-2,13.1-14.7,15.9c-2,0.4-4.2,0.7-6.7,0.9l-0.1-0.1l0.1-4.8l0.4-29.9c0,0,0-0.1,0.1-0.1c0.4,0,0.8,0,1.2,0
			c2.9,0.1,5.8,0.5,8.6,1.4C143.6,56.8,148.6,61.4,148.6,71.2z M89.7,9.4c24,0,44,16.6,48.6,38.5c-1.1-0.3-2.3-0.6-3.5-0.8
			c-7.6-17.3-25.1-29.4-45.5-29.4c-20.9,0-38.9,12.8-46.1,30.8c-0.8,0.2-1.5,0.4-2.2,0.6C45,26.6,65.3,9.4,89.7,9.4z M51.1,82.8
			l-0.1,6.3c0,0.1,0,0.1-0.1,0.1c-1.8,0-3.7-0.1-5.6-0.4c-8-1.2-15.4-5.5-15.4-17.4l0-0.2c0-4.5,1.5-11.4,10.8-14.8
			c2.3-0.9,5.2-1.5,8.6-1.9c0.7-0.1,1.3-0.1,2-0.2l0.1,0.1L51.1,82.8z M57.2,92.3c0.3-0.6,0.5-1.3,0.7-2c0.1-0.4,0.1-0.7,0.1-1.1
			l0.4-34.7c0-1.9-0.8-3.8-2.2-5.1c-0.1-0.1-0.2-0.2-0.3-0.3c-1-0.9-2.3-1.4-3.6-1.6c7-13,20.9-22,37-22c15.7,0,29.5,8.6,36.6,21.2
			c-1.5,0.4-2.7,1.2-3.7,2.4c-1,1.2-1.5,2.7-1.6,4.3l-0.4,34.7c0,0.8,0.1,1.5,0.4,2.2c0.2,0.6,0.5,1.2,0.9,1.8
			c-7.7,9.1-19.2,14.9-32.2,14.9C76.4,107,64.8,101.3,57.2,92.3z M47.6,205.2c0-0.4,0-0.8,0-1.2v-54.6c0-17.8,14.1-32.4,31.4-32.4
			h19.6c13.8,0,25.6,9.3,29.8,22.1L106,124.5c-1.7-1.1-3.8-0.9-5.3,0.4c-1.5,1.4-1.9,3.5-1,5.3l5.3,10h-2.7c-3.5,0-6.3,2.8-6.3,6.3
			v46.6c0,5.2,1.7,9.2,4.1,12.1H47.6z M187.8,192.9c-0.1,1.3-1.7,13.2-11.2,13.2h-63.6c-1.5-0.3-11-2.4-11-13v-46.6
			c0-0.2,0.1-0.3,0.3-0.3h2.7c2.1,0,4-1.1,5-2.8c1.1-1.8,1.2-4,0.2-5.9l-2.3-4.5l20.9,13.7H175c1.1,0.1,10.2,1.3,12.7,9.1
			C187.9,158.6,188.2,168.1,187.8,192.9z M117.2,177.7h6.9v-6.9h-6.9V177.7z M131,177.7h6.9v-6.9H131V177.7z M144.7,177.7h6.9v-6.9
			h-6.9V177.7z M158.5,177.7h6.9v-6.9h-6.9V177.7z"/>
	</g>
</g>
</svg>
