<?xml version="1.0" encoding="utf-8"?>
<!-- Generator: Adobe Illustrator 22.0.0, SVG Export Plug-In . SVG Version: 6.00 Build 0)  -->
<svg version="1.1" id="Layer_1" xmlns="http://www.w3.org/2000/svg" xmlns:xlink="http://www.w3.org/1999/xlink" x="0px" y="0px"
	 viewBox="0 0 216 216" style="enable-background:new 0 0 216 216;" xml:space="preserve">
<style type="text/css">
	.st0{fill:#585858;}
</style>
<path class="st0" d="M158,176H58v-16h-6v37c0,6.6,5.4,12,12,12h88c6.6,0,12-5.4,12-12v-38.7l-6,6.5V176z M108.5,203
	c-5.8,0-10.5-4.7-10.5-10.5s4.7-10.5,10.5-10.5s10.5,4.7,10.5,10.5S114.3,203,108.5,203z M58,39h100v65h6V17c0-6.6-5.4-12-12-12H64
	c-6.6,0-12,5.4-12,12v29.9l6-2.3V39z M97.5,19h21c1.9,0,3.5,1.6,3.5,3.5c0,1.9-1.6,3.5-3.5,3.5h-21c-1.9,0-3.5-1.6-3.5-3.5
	C94,20.6,95.6,19,97.5,19z M58.9,79.4H67l7.2,7.7c0,0,2.7,1.6,3.3-1.6v-6h1.6c5.4,0,9.9-4.4,9.9-9.9v-7.7c0-5.4-4.4-9.9-9.9-9.9
	H58.9c-5.4,0-9.9,4.4-9.9,9.9v7.7C49,75,53.4,79.4,58.9,79.4z M60.3,60c0.2-0.2,0.5-0.3,0.8-0.3h16.4c0.6,0,1.1,0.5,1.1,1.1
	c0,0.3-0.1,0.6-0.3,0.8c-0.2,0.2-0.5,0.3-0.8,0.3H61.1c-0.6,0-1.1-0.5-1.1-1.1C60,60.5,60.1,60.2,60.3,60z M60.8,65.7h17
	c0.5,0,0.8,0.4,0.8,0.8s-0.4,0.8-0.8,0.8h-17c-0.5,0-0.8-0.4-0.8-0.8S60.3,65.7,60.8,65.7z M60.8,70.6h7.7c0.5,0,0.8,0.4,0.8,0.8
	s-0.4,0.8-0.8,0.8h-7.7c-0.5,0-0.8-0.4-0.8-0.8S60.3,70.6,60.8,70.6z M78.5,166.3c0,0,4.9,3,5.9-3v-10.9h3c9.8,0,17.8-8,17.8-17.8
	v-13.8c0-9.8-8-17.8-17.8-17.8H50.8C41,103,33,111,33,120.8v13.8c0,9.8,8,17.8,17.8,17.8h14.6L78.5,166.3z M53.4,117.4
	c0.4-0.4,0.8-0.6,1.4-0.6h29.7c1.1,0,2,0.9,2,2c0,0.5-0.2,1-0.6,1.4c-0.4,0.4-0.9,0.6-1.4,0.6H54.7c-1.1,0-2-0.9-2-2
	C52.8,118.3,53,117.8,53.4,117.4z M54.3,127.7h30.6c0.8,0,1.5,0.7,1.5,1.5c0,0.8-0.7,1.5-1.5,1.5H54.3c-0.8,0-1.5-0.7-1.5-1.5
	C52.8,128.4,53.4,127.7,54.3,127.7z M52.8,138.1c0-0.8,0.7-1.5,1.5-1.5h13.8c0.8,0,1.5,0.7,1.5,1.5c0,0.8-0.7,1.5-1.5,1.5H54.3
	C53.4,139.6,52.8,138.9,52.8,138.1z M33.3,86.2h1.4c4.6,0,8.3-3.8,8.3-8.3v-6.5c0-4.6-3.8-8.3-8.3-8.3H17.5c-4.6,0-8.3,3.8-8.3,8.3
	v6.5c0,4.6,3.8,8.3,8.3,8.3h6.9l6.1,6.5c0,0,2.3,1.4,2.8-1.4V86.2z M18.7,69.8c0.2-0.2,0.4-0.3,0.7-0.3h13.9c0.5,0,0.9,0.4,0.9,0.9
	c0,0.3-0.1,0.5-0.3,0.7c-0.2,0.2-0.4,0.3-0.7,0.3H19.4c-0.5,0-0.9-0.4-0.9-0.9C18.4,70.2,18.5,69.9,18.7,69.8z M25.6,80.1h-6.5
	c-0.4,0-0.7-0.3-0.7-0.7c0-0.4,0.3-0.7,0.7-0.7h6.5c0.4,0,0.7,0.3,0.7,0.7C26.3,79.8,26,80.1,25.6,80.1z M19.1,76
	c-0.4,0-0.7-0.3-0.7-0.7c0-0.4,0.3-0.7,0.7-0.7h14.4c0.4,0,0.7,0.3,0.7,0.7c0,0.4-0.3,0.7-0.7,0.7H19.1z M34.5,45.2h6.9L45,49V35
	h-8.9c-0.4,0-0.7-0.3-0.7-0.7c0-0.4,0.3-0.7,0.7-0.7H45v-3.2h-8.6c-0.5,0-0.9-0.4-0.9-0.9c0-0.3,0.1-0.5,0.3-0.6
	c0.2-0.2,0.4-0.3,0.7-0.3H45V22H34.5c-4.6,0-8.3,3.8-8.3,8.3v6.5C26.2,41.4,29.9,45.2,34.5,45.2z M36.1,37.8h6.5
	c0.4,0,0.7,0.3,0.7,0.7c0,0.4-0.3,0.7-0.7,0.7h-6.5c-0.4,0-0.7-0.3-0.7-0.7C35.4,38.1,35.8,37.8,36.1,37.8z M118.1,102.5l8.3-8.9
	h9.4c6.3,0,11.4-5.1,11.4-11.4v-8.9c0-6.3-5.1-11.4-11.4-11.4h-23.4c-6.3,0-11.4,5.1-11.4,11.4v8.9c0,6.3,5.1,11.4,11.4,11.4h1.9v7
	C114.9,104.4,118.1,102.5,118.1,102.5z M133.6,85.4h-8.9c-0.5,0-0.9-0.4-0.9-0.9c0-0.5,0.4-0.9,0.9-0.9h8.9c0.5,0,0.9,0.4,0.9,0.9
	C134.6,85,134.1,85.4,133.6,85.4z M114.3,70.9h19c0.3,0,0.7,0.1,0.9,0.4c0.2,0.2,0.4,0.5,0.4,0.9c0,0.7-0.6,1.3-1.3,1.3h-19
	c-0.3,0-0.7-0.1-0.9-0.4c-0.2-0.2-0.4-0.5-0.4-0.9C113,71.4,113.6,70.9,114.3,70.9z M114,79.7c-0.5,0-0.9-0.4-0.9-0.9
	c0-0.5,0.4-0.9,0.9-0.9h19.6c0.5,0,0.9,0.4,0.9,0.9c0,0.5-0.4,0.9-0.9,0.9H114z M169.3,112h-28.6c-7.6,0-13.9,6.3-13.9,13.9v10.8
	c0,7.6,6.3,13.9,13.9,13.9h2.3v8.5c0.8,4.6,4.6,2.3,4.6,2.3l10.2-10.8h11.4c7.6,0,13.9-6.3,13.9-13.9v-10.8
	C183.2,118.3,177,112,169.3,112z M166.6,140.6h-10.8c-0.6,0-1.2-0.5-1.2-1.2s0.5-1.2,1.2-1.2h10.8c0.6,0,1.2,0.5,1.2,1.2
	S167.3,140.6,166.6,140.6z M166.6,133.6h-23.9c-0.6,0-1.2-0.5-1.2-1.2c0-0.6,0.5-1.2,1.2-1.2h23.9c0.6,0,1.2,0.5,1.2,1.2
	C167.8,133.1,167.3,133.6,166.6,133.6z M166.2,125.9h-23.2c-0.4,0-0.8-0.2-1.1-0.5c-0.3-0.3-0.5-0.7-0.5-1.1c0-0.8,0.7-1.5,1.5-1.5
	h23.2c0.4,0,0.8,0.2,1.1,0.5c0.3,0.3,0.5,0.7,0.5,1.1C167.8,125.2,167.1,125.9,166.2,125.9z M198.1,68h-18.2c-4.9,0-8.9,4-8.9,8.9
	v6.9c0,4.9,4,8.9,8.9,8.9h1.5v5.4c0.5,3,3,1.5,3,1.5l6.5-6.9h7.3c4.9,0,8.9-4,8.9-8.9v-6.9C207,72,203,68,198.1,68z M196.4,86.2
	h-6.9c-0.4,0-0.7-0.3-0.7-0.7s0.3-0.7,0.7-0.7h6.9c0.4,0,0.7,0.3,0.7,0.7S196.8,86.2,196.4,86.2z M196.4,81.8h-15.3
	c-0.4,0-0.7-0.3-0.7-0.7s0.3-0.7,0.7-0.7h15.3c0.4,0,0.7,0.3,0.7,0.7S196.8,81.8,196.4,81.8z M196.2,76.9h-14.8
	c-0.3,0-0.5-0.1-0.7-0.3c-0.2-0.2-0.3-0.4-0.3-0.7c0-0.5,0.4-1,1-1h14.8c0.3,0,0.5,0.1,0.7,0.3c0.2,0.2,0.3,0.4,0.3,0.7
	C197.1,76.4,196.7,76.9,196.2,76.9z M188.4,25.1h0.9v3.3c0.3,1.8,1.8,0.9,1.8,0.9l4-4.2h4.5c3,0,5.4-2.4,5.4-5.4v-4.2
	c0-3-2.4-5.4-5.4-5.4h-11.2c-3,0-5.4,2.4-5.4,5.4v4.2C183,22.6,185.4,25.1,188.4,25.1z M198.5,21.2h-4.2c-0.3,0-0.5-0.2-0.5-0.5
	s0.2-0.5,0.5-0.5h4.2c0.3,0,0.5,0.2,0.5,0.5S198.8,21.2,198.5,21.2z M189.3,14.2h9c0.2,0,0.3,0.1,0.4,0.2c0.1,0.1,0.2,0.3,0.2,0.4
	c0,0.3-0.3,0.6-0.6,0.6h-9c-0.2,0-0.3-0.1-0.4-0.2c-0.1-0.1-0.2-0.3-0.2-0.4C188.7,14.5,189,14.2,189.3,14.2z M189.2,17.5h9.3
	c0.3,0,0.5,0.2,0.5,0.5s-0.2,0.5-0.5,0.5h-9.3c-0.3,0-0.5-0.2-0.5-0.5S188.9,17.5,189.2,17.5z M183,48.3v-5.8c0-4.1-3.4-7.5-7.5-7.5
	H171v5.8h2.8c0.2,0,0.4,0.1,0.6,0.2c0.2,0.2,0.3,0.4,0.3,0.6c0,0.5-0.4,0.8-0.8,0.8H171v2.9h3c0.3,0,0.6,0.3,0.6,0.6
	s-0.3,0.6-0.6,0.6h-3v2.5h3c0.3,0,0.6,0.3,0.6,0.6c0,0.3-0.3,0.6-0.6,0.6h-3v5.4h4.5C179.6,55.8,183,52.5,183,48.3z"/>
</svg>
