<?xml version="1.0" encoding="utf-8"?>
<!-- Generator: Adobe Illustrator 22.0.0, SVG Export Plug-In . SVG Version: 6.00 Build 0)  -->
<svg version="1.1" id="Layer_1" xmlns="http://www.w3.org/2000/svg" xmlns:xlink="http://www.w3.org/1999/xlink" x="0px" y="0px"
	 viewBox="0 0 216 216" style="enable-background:new 0 0 216 216;" xml:space="preserve">
<style type="text/css">
	.st0{fill:#515151;}
</style>
<path class="st0" d="M190.7,81.7v31.9l8.2,4.4V81.7H190.7z M12.9,192c-0.1,0-0.1-0.1-0.1-0.1V81.7H4.6v110.2c0,4.6,3.7,8.3,8.3,8.3
	h104.8c-0.9-2.8-1.9-5.6-2.7-8.2H12.9z"/>
<path class="st0" d="M162.3,22H41.9c-3.2,0-5.8,2.6-5.8,5.8v75.2l8.2,6.4V30.1h115.6v77.2c1.8-0.2,4.4-0.2,8.2,0V27.7
	C168.1,24.6,165.5,22,162.3,22z"/>
<rect x="36.3" y="71.3" transform="matrix(0.6158 -0.7879 0.7879 0.6158 -72.6653 75.1317)" class="st0" width="8.8" height="81.6"/>
<polygon class="st0" points="6.8,79.3 44.3,46.7 44.3,59.1 12.9,86.4 "/>
<path class="st0" d="M120.7,12.6c4,3.5,11.2,9.9,19.7,17.4l-14.1,0c-5-4.4-9.1-8.1-11.8-10.4c-11.6-10.1-24-0.7-25,0.1l-12,10.4
	l-14.3,0l20.2-17.6C90.2,7.1,106.4,0.2,120.7,12.6z"/>
<path class="st0" d="M196.6,80.3l-6.2,7c-0.3-0.3-14.3-12.8-30.5-27.3V47.4C178.5,64.1,196.3,80,196.6,80.3z"/>
<path class="st0" d="M124.7,122.2l-5.9,7.3c-1.6-1.6-3-2.9-4.1-4c-11.1-10.7-23.9-1.8-24.9-1.1l-79.7,63l-5.8-7.3L84.1,117
	c6.8-5.1,23.3-11.3,37,1.8C122.1,119.7,123.3,120.9,124.7,122.2z"/>
<path class="st0" d="M198.8,89.5l-23.9,18.4c-2.6-0.7-5.1-0.9-7.4-1l-2.1-2.7l28.2-21.6L198.8,89.5z"/>
<path class="st0" d="M6.8,79.3l-2.2,2.4l4,4.1c0,0,2.5-3.7,2.5-4S6.8,79.3,6.8,79.3z"/>
<polygon class="st0" points="196,79.7 198.8,81.7 197.4,84.4 192.7,82.1 "/>
<path class="st0" d="M163.6,181.6c-9.6,0-17.3-7.8-17.3-17.3s7.8-17.3,17.3-17.3c9.6,0,17.3,7.8,17.3,17.3S173.1,181.6,163.6,181.6z
	 M163.6,155.1c-5.1,0-9.2,4.1-9.2,9.2s4.1,9.2,9.2,9.2s9.2-4.1,9.2-9.2S168.6,155.1,163.6,155.1z"/>
<path class="st0" d="M212.3,173.4v-18.3l-14.3-2.3l-1.4-5l8-11.5L191.9,124l-11,8.2l-5.1-2.6l-1.9-13.7h-19.5l-2.2,14.2l-4.4,1.6
	l-11.8-7.9l-13.3,13l8.2,11.2l-2.2,4.8l-13.6,2.3v18.3l13.3,2.2l2.2,4.1l-7.9,12l13,13.1l12.1-7.7l4.7,1.6l1.9,14.3h18.3l2.6-13.4
	l4.7-2l12,7.3l13-12.7l-8.4-10.6l2.2-5.6L212.3,173.4z M193.5,191l-2.8,2.8l-9.7-7c0,0-8.2,3.9-12.8,5.3l-2.8,12.8h-3.1l-2.3-12.7
	c0,0-6-1.1-12.3-4.7h-0.7L137,194l-2.9-3.2l7-9.2c0,0-4.2-8.7-5-13.2l-11.4-2.5l-1-0.2v-3.5l12.6-2.2c0,0,0.3-8,4.8-12l-7-10.1
	l2.9-3.1l10.5,7.2c0,0,7.3-4.1,12.4-4.8l2.5-12.8h3.5l2.2,12.3c0,0,10.1,2.6,12.8,5.8l9.7-7.6l2,2l-6.5,9.9c0,0,5.3,9.5,5.3,13
	l12.4,2.1v3.8l-11.1,2.1h-1c0,0-1.6,8.2-5.8,13L193.5,191z"/>
</svg>
