<?xml version="1.0" encoding="utf-8"?>
<!-- Generator: Adobe Illustrator 22.0.0, SVG Export Plug-In . SVG Version: 6.00 Build 0)  -->
<svg version="1.1" id="Layer_1" xmlns="http://www.w3.org/2000/svg" xmlns:xlink="http://www.w3.org/1999/xlink" x="0px" y="0px"
	 viewBox="0 0 216 216" style="enable-background:new 0 0 216 216;" xml:space="preserve">
<style type="text/css">
	.st0{fill:#585858;}
</style>
<path class="st0" d="M144.5,191.9l-10.5-3l-12,4l-13-4l-13,4l-12-4l-12,4l-13.1-4l-11,5l-13.9-5l-9.5,3.6V70H122v-5h-0.4V47h5.4
	v-2.3h-13.2V47h5.4v18h-6.4c-0.3-1-0.7-2.8-1.2-5.3c-0.4-2.1-1.2-3.6-2.6-4.2v-0.1c1.9-0.7,3.4-2.5,3.4-5.3c0-1.6-0.5-3-1.4-3.9
	c-1.1-1.2-2.7-1.7-5.1-1.7c-1.6,0-3.2,0.2-4.4,0.4v20h-8.1c3-1.4,5.1-4.8,5.1-10.2c0-6.1-3.1-10.4-8-10.4c-4.8,0-8.3,4.3-8.3,10.8
	c0,4.8,1.9,8.4,4.9,9.8H71.5v-7.9c0.5,0.2,1.2,0.2,1.8,0.2c2.2,0,4.2-0.8,5.4-2.3c0.9-1.1,1.4-2.5,1.4-4.4c0-1.8-0.6-3.3-1.6-4.3
	c-1.1-1.1-2.7-1.7-5-1.7c-1.8,0-3.3,0.2-4.4,0.4V65h-3v-1.9h-7.7v-7.4h6.9v-2.2h-6.9v-6.5h7.3v-2.2h-9.6V65h-2.7
	c-0.3-1-0.7-2.8-1.2-5.3c-0.4-2.1-1.2-3.6-2.6-4.2v-0.1c1.9-0.7,3.4-2.5,3.4-5.3c0-1.6-0.5-3-1.4-3.9c-1.1-1.2-2.7-1.7-5.1-1.7
	c-1.6,0-3.2,0.2-4.4,0.4v20H24.5V23.5h120v36.7l5,3.1V22.4c0-2.2-1.8-3.9-3.9-3.9H23.4c-2.2,0-3.9,1.8-3.9,3.9v175.2l2.3-0.6
	l2.7-0.7l3.8-1h0l5.7-2.2l13.6,4.9l0.5,0.2l0.3-0.2l10.7-4.9l12.9,4l12-4l12,4l13-4l13,4l12-4l10.5,3l1.5,0.4v0.2l2,0.3l1.5,0.2V126
	l-5-3.7V191.9z M103.7,46.8c0.4-0.1,1.2-0.2,2.3-0.2c2.4,0,4.1,1.2,4.1,3.9c0,2.4-1.6,3.9-4,3.9h-2.3V46.8z M103.7,56.4h2.2
	c2.1,0.1,3,1.2,3.6,4c0.4,2.2,0.8,3.8,1.1,4.6h-6.8V56.4z M84.6,55.1c0-4.5,1.9-8.6,5.7-8.6c3.8,0,5.7,4.3,5.7,8.4
	c0,4.7-2.1,8.6-5.7,8.6C86.7,63.5,84.6,59.6,84.6,55.1z M71.5,46.9c0.4-0.1,1.2-0.2,2.2-0.2c2.5,0,4.2,1.3,4.2,4
	c0,2.8-1.7,4.4-4.5,4.4c-0.8,0-1.4-0.1-1.9-0.2V46.9z M44.3,46.8c0.4-0.1,1.2-0.2,2.3-0.2c2.4,0,4.1,1.2,4.1,3.9
	c0,2.4-1.6,3.9-4,3.9h-2.3V46.8z M44.3,56.4h2.2c2.1,0.1,3,1.2,3.6,4c0.4,2.2,0.8,3.8,1.1,4.6h-6.8V56.4z M46,91h-8v4h8V91z M62,91
	h-8v4h8V91z M78,91h-8v4h8V91z M38,126h8v-4h-8V126z M54,126h8v-4h-8V126z M70,126h8v-4h-8V126z M86,91v4h8v-4H86z M102,95h8v-4h-8
	V95z M38,161h26v-8H38V161z M103.5,162c-4.5,0-8.6-1.4-12.1-3.7l-6.8,2.2c4.9,4.7,11.6,7.5,18.9,7.5c13.4,0,24.7-9.7,27-22.5
	l-6.8,2.2C120.7,156,112.8,162,103.5,162z M76.5,135.2l6.8-2.2c3-8.2,10.9-14.1,20.1-14.1c4.6,0,8.8,1.4,12.3,3.9l6.8-2.1
	c-4.9-4.8-11.7-7.7-19.1-7.7C90.1,113,79,122.6,76.5,135.2z M127,126l-50,16l4,13l50-17L127,126z M124,70l-6,6c0,11,8,19,15,27
	c25,25,32,19,32,19l6-5C134,103,124,70,124,70z M152,89c-9.5-9.5-3-18-3-18c-7-6-15-8-17-8c-10,2,11,27,16,32c24,21,29,16,30,16
	c2-8-8-19-9-21C161.5,97.5,154,91,152,89z M181.5,41c-9.7,0-17.5,7.8-17.5,17.5c0,2,0.3,3.8,0.9,5.6L152,77c-1,3,1,5,1,5s2,2,4,4
	c4,3,6,1,6,1l12.2-12.2c2,0.8,4.1,1.2,6.3,1.2c9.7,0,17.5-7.8,17.5-17.5C199,48.8,191.2,41,181.5,41z M187,53c-6-6-13,0-13,0l-2-2
	c10-10,17,0,17,0L187,53z"/>
</svg>
