<?xml version="1.0" encoding="utf-8"?>
<!-- Generator: Adobe Illustrator 22.0.0, SVG Export Plug-In . SVG Version: 6.00 Build 0)  -->
<svg version="1.1" id="Layer_1" xmlns="http://www.w3.org/2000/svg" xmlns:xlink="http://www.w3.org/1999/xlink" x="0px" y="0px"
	 viewBox="0 0 216 216" style="enable-background:new 0 0 216 216;" xml:space="preserve">
<style type="text/css">
	.st0{fill:#585858;}
</style>
<path class="st0" d="M112.5,202H33V37h21v10.4c0,2,1.6,3.6,3.6,3.6h71.8c2,0,3.6-1.6,3.6-3.6V37h21v87.7c9.3,0.8,8.5,3.8,8.5,3.8
	l0.5,0.2V36.1c0-4.5-3.6-8.1-8.1-8.1H133v-5.4c0-2-1.6-3.6-3.6-3.6h-18.5c-0.8-9-8.3-16-17.4-16s-16.7,7-17.4,16H57.6
	c-2,0-3.6,1.6-3.6,3.6V28H32.1c-4.5,0-8.1,3.6-8.1,8.1v166.8c0,4.5,3.6,8.1,8.1,8.1h91.6l-2.3-4.5L112.5,202z M131,77H57
	c-2.2,0-4,1.8-4,4s1.8,4,4,4h74c2.2,0,4-1.8,4-4S133.2,77,131,77z M135,111c0-2.2-1.8-4-4-4H57c-2.2,0-4,1.8-4,4s1.8,4,4,4h74
	C133.2,115,135,113.2,135,111z M121,141l3.8-6H57c-2.2,0-4,1.8-4,4s1.8,4,4,4h61L121,141z M53,169c0,2.2,1.8,4,4,4h47.6
	c0-2.1,0.4-4,0.4-4l2.9-4H57C54.8,165,53,166.8,53,169z M154,134c-21.5,0-39,17.5-39,39s17.5,39,39,39s39-17.5,39-39
	S175.5,134,154,134z M154,205c-17.6,0-32-14.4-32-32s14.4-32,32-32s32,14.4,32,32S171.6,205,154,205z M173,172h-15.5v-17
	c0-1.9-1.6-3.5-3.5-3.5s-3.5,1.6-3.5,3.5v20c0,1.9,1.6,3.5,3.5,3.5c0.6,0,1.2-0.2,1.8-0.5H173c1.7,0,3-1.4,3-3
	C176,173.3,174.7,172,173,172z"/>
</svg>
