<?xml version="1.0" encoding="utf-8"?>
<!-- Generator: Adobe Illustrator 22.0.0, SVG Export Plug-In . SVG Version: 6.00 Build 0)  -->
<svg version="1.1" id="Layer_1" xmlns="http://www.w3.org/2000/svg" xmlns:xlink="http://www.w3.org/1999/xlink" x="0px" y="0px"
	 viewBox="0 0 216 216" style="enable-background:new 0 0 216 216;" xml:space="preserve">
<path d="M156.6,156c14.5-15.2,23.5-35.7,23.5-58.3c0-46.5-37.8-84.4-84.4-84.4c-46.5,0-84.4,37.8-84.4,84.4
	c0,46.5,37.8,84.4,84.4,84.4c22.6,0,43.1-8.9,58.3-23.5l52.4,52.4l2.6-2.6L156.6,156z M95.7,177.1c-43.8,0-79.4-35.6-79.4-79.4
	c0-43.8,35.6-79.4,79.4-79.4c43.8,0,79.4,35.6,79.4,79.4C175.1,141.5,139.5,177.1,95.7,177.1z M92.6,66.1h7.4V51.2h-7.4V66.1z
	 M92.6,144.2h7.4V80.9h-7.4V144.2z"/>
</svg>
