<?xml version="1.0" encoding="utf-8"?>
<!-- Generator: Adobe Illustrator 22.0.0, SVG Export Plug-In . SVG Version: 6.00 Build 0)  -->
<svg version="1.1" id="Layer_1" xmlns="http://www.w3.org/2000/svg" xmlns:xlink="http://www.w3.org/1999/xlink" x="0px" y="0px"
	 viewBox="0 0 216 216" style="enable-background:new 0 0 216 216;" xml:space="preserve">
<style type="text/css">
	.st0{fill:#585858;}
</style>
<path class="st0" d="M206.3,152.2l-48-37.2c-4.8-2.4-3.6,2.4-3.6,2.4c1.2,2.4,10.3,25.2,10.3,25.2h-60.6v22.8h61.3
	c-1.9,4.4-4.3,9.9-9.8,22.8c-0.9,3-1,5.3-0.1,5.8c0.2,0.1,0.9,0.3,2.5-1c0,0,45.6-34.8,48-37.2C208.1,154,206.3,152.2,206.3,152.2z
	 M100,96.2l76.9-46.5v64.7l14.4,11V26H9l0,15.2l0,0V154H90v-14.4H23.5V49.9L100,96.2z M163.8,41.3L100,79.8L36.2,41.3H163.8z"/>
</svg>
