<?xml version="1.0" encoding="utf-8"?>
<!-- Generator: Adobe Illustrator 22.0.0, SVG Export Plug-In . SVG Version: 6.00 Build 0)  -->
<svg version="1.1" id="Layer_1" xmlns="http://www.w3.org/2000/svg" xmlns:xlink="http://www.w3.org/1999/xlink" x="0px" y="0px"
	 viewBox="0 0 216 216" style="enable-background:new 0 0 216 216;" xml:space="preserve">
<style type="text/css">
	.st0{fill:#515151;}
</style>
<path class="st0" d="M171.2,172.4H171v26.5H25V17.1h103.5v-11H14v203.8h168v-46L171.2,172.4z M171,60.4v23.2l11-9.4V60.4H171z"/>
<path class="st0" d="M134.2,6.1h-8.8v57.5H182V53.4L134.2,6.1z M136.2,54.1V22.4L169,54.1H136.2z"/>
<g>
	<path class="st0" d="M68.6,120.7V93.3c-8.5-2.4-14.8-6.1-18.8-11.1c-4-4.9-6-11-6-18c0-7.1,2.3-13.2,6.8-18
		c4.5-4.9,10.5-7.7,18-8.4v-6.5h9.5v6.5c6.9,0.8,12.4,3.2,16.5,7.1c4.1,3.9,6.7,9.1,7.8,15.7L86,62.7c-1-5.1-3.6-8.6-7.8-10.5v25.6
		c10.5,2.8,17.6,6.5,21.4,11c3.8,4.5,5.7,10.3,5.7,17.4c0,7.9-2.4,14.5-7.2,19.9c-4.8,5.4-11.4,8.7-19.9,9.9v12.2h-9.5v-11.9
		c-7.5-0.9-13.7-3.7-18.4-8.4c-4.7-4.7-7.7-11.4-9-19.9l17.1-1.8c0.7,3.5,2,6.5,3.9,9C64.2,117.8,66.3,119.6,68.6,120.7z M68.6,52.1
		c-2.6,0.9-4.6,2.4-6.1,4.4c-1.5,2.1-2.3,4.4-2.3,6.9c0,2.3,0.7,4.5,2.1,6.4c1.4,2,3.5,3.6,6.3,4.8V52.1z M78.1,121.6
		c3.3-0.6,5.9-2.1,8-4.5c2-2.4,3.1-5.3,3.1-8.5c0-2.9-0.9-5.4-2.6-7.6c-1.7-2.1-4.5-3.7-8.5-4.9V121.6z"/>
</g>
<polygon class="st0" points="127.5,150.5 153,172.5 135.3,180.5 120.8,167.7 "/>
<polygon class="st0" points="119.5,174.5 130.2,183.3 115,189.8 "/>
<polygon class="st0" points="173.7,94.3 177.5,98 139,142.2 141.8,144.7 181.2,100.3 202.3,119.5 157.3,170.2 128.5,145.2 "/>
</svg>
