<?xml version="1.0" encoding="utf-8"?>
<!-- Generator: Adobe Illustrator 22.0.0, SVG Export Plug-In . SVG Version: 6.00 Build 0)  -->
<svg version="1.1" id="Layer_1" xmlns="http://www.w3.org/2000/svg" xmlns:xlink="http://www.w3.org/1999/xlink" x="0px" y="0px"
	 viewBox="0 0 216 216" style="enable-background:new 0 0 216 216;" xml:space="preserve">
<style type="text/css">
	.st0{fill:#FEB829;}
</style>
<path class="st0" d="M208,198.4l-61.5-61.5c-0.1-0.1-0.2-0.2-0.4-0.3C157.3,123.1,164,105.8,164,87c0-43-35-78-78-78S8,44,8,87
	s35,78,78,78c18.8,0,36.1-6.7,49.6-17.8c0.1,0.1,0.2,0.2,0.3,0.4l61.5,61.5c2.9,2.9,7.7,2.9,10.6,0S210.9,201.3,208,198.4z M86,154
	c-36.9,0-67-30.1-67-67s30.1-67,67-67s67,30.1,67,67S122.9,154,86,154z"/>
</svg>
