<?xml version="1.0" encoding="utf-8"?>
<!-- Generator: Adobe Illustrator 22.0.0, SVG Export Plug-In . SVG Version: 6.00 Build 0)  -->
<svg version="1.1" id="Layer_1" xmlns="http://www.w3.org/2000/svg" xmlns:xlink="http://www.w3.org/1999/xlink" x="0px" y="0px"
	 viewBox="0 0 216 216" style="enable-background:new 0 0 216 216;" xml:space="preserve">
<style type="text/css">
	.st0{fill:#585858;}
</style>
<path class="st0" d="M52,183c-3.3,0-6-2.7-6-6V48c0-3.3,2.7-6,6-6h12v1c0,5,4,9,9,9h54c5,0,9-4,9-9v-1h12c3.3,0,6,2.7,6,6v81.2
	c1.3-0.1,2.7-0.2,4-0.2c2.7,0,5.4,0.3,8,0.7V48c0-9.9-8.1-18-18-18h-12.1c-0.5-4.5-4.3-8-8.9-8h-9.5c0-9.6-7.9-17.5-17.5-17.5
	S82.5,12.4,82.5,22H73c-4.6,0-8.4,3.5-8.9,8H52c-9.9,0-18,8.1-18,18v129c0,9.9,8.1,18,18,18h64.6c-1.8-3.7-3.1-7.8-3.9-12H52z
	 M100,13.5c4.7,0,8.5,3.8,8.5,8.5h-17C91.5,17.3,95.3,13.5,100,13.5z M154,132.5c-21.8,0-39.5,17.7-39.5,39.5s17.7,39.5,39.5,39.5
	s39.5-17.7,39.5-39.5S175.8,132.5,154,132.5z M154,201.5c-16.3,0-29.5-13.2-29.5-29.5s13.2-29.5,29.5-29.5s29.5,13.2,29.5,29.5
	S170.3,201.5,154,201.5z M135.5,69h-41C92,69,90,71,90,73.5c0,2.5,2,4.5,4.5,4.5h41c2.5,0,4.5-2,4.5-4.5C140,71,138,69,135.5,69z
	 M139,126.5c0-2.5-2-4.5-4.5-4.5h-41c-2.5,0-4.5,2-4.5,4.5c0,2.5,2,4.5,4.5,4.5h41C137,131,139,129,139,126.5z M134.5,95h-41
	C91,95,89,97,89,99.5c0,2.5,2,4.5,4.5,4.5h41c2.5,0,4.5-2,4.5-4.5C139,97,137,95,134.5,95z M90,153.5c0,2.5,2,4.5,4.5,4.5h18.3
	c1.1-3.2,2.5-6.2,4.3-9H94.5c-1.2,0-2.4,0.5-3.2,1.3S90,152.3,90,153.5z M169.6,156c-1.8-1.3-4.3-0.8-5.6,0.9l-15.5,21.8l-7.3-7.3
	c-1.6-1.6-4.1-1.6-5.7,0c-1.6,1.6-1.6,4.1,0,5.7l9.9,9.9c0.2,0.2,0.4,0.3,0.6,0.5c0.2,0.2,0.4,0.5,0.7,0.7c1.8,1.3,4.3,0.8,5.6-0.9
	l18.2-25.6C171.8,159.8,171.3,157.3,169.6,156z M83.3,139.5c-1.2-0.8-2.8-0.6-3.6,0.6l-10.1,14.2l-4.8-4.8c-1-1-2.7-1-3.7,0
	c-1,1-1,2.7,0,3.7l6.5,6.5c0.1,0.1,0.2,0.2,0.4,0.3c0.1,0.2,0.3,0.3,0.5,0.4c1.2,0.8,2.8,0.6,3.6-0.6l11.9-16.7
	C84.8,141.9,84.5,140.3,83.3,139.5z M83.3,113.5c-1.2-0.8-2.8-0.6-3.6,0.6l-10.1,14.2l-4.8-4.8c-1-1-2.7-1-3.7,0c-1,1-1,2.7,0,3.7
	l6.5,6.5c0.1,0.1,0.2,0.2,0.4,0.3c0.1,0.2,0.3,0.3,0.5,0.4c1.2,0.8,2.8,0.6,3.6-0.6l11.9-16.7C84.8,115.9,84.5,114.3,83.3,113.5z
	 M84.3,87.5c-1.2-0.8-2.8-0.6-3.6,0.6l-10.1,14.2l-4.8-4.8c-1-1-2.7-1-3.7,0c-1,1-1,2.7,0,3.7l6.5,6.5c0.1,0.1,0.2,0.2,0.4,0.3
	c0.1,0.2,0.3,0.3,0.5,0.4c1.2,0.8,2.8,0.6,3.6-0.6l11.9-16.7C85.8,89.9,85.5,88.3,84.3,87.5z M84.3,59.5c-1.2-0.8-2.8-0.6-3.6,0.6
	L70.6,74.3l-4.8-4.8c-1-1-2.7-1-3.7,0c-1,1-1,2.7,0,3.7l6.5,6.5c0.1,0.1,0.2,0.2,0.4,0.3c0.1,0.2,0.3,0.3,0.5,0.4
	c1.2,0.8,2.8,0.6,3.6-0.6l11.9-16.7C85.8,61.9,85.5,60.3,84.3,59.5z"/>
</svg>
