<?xml version="1.0" encoding="utf-8"?>
<!-- Generator: Adobe Illustrator 22.0.0, SVG Export Plug-In . SVG Version: 6.00 Build 0)  -->
<svg version="1.1" id="Layer_1" xmlns="http://www.w3.org/2000/svg" xmlns:xlink="http://www.w3.org/1999/xlink" x="0px" y="0px"
	 viewBox="0 0 216 216" style="enable-background:new 0 0 216 216;" xml:space="preserve">
<style type="text/css">
	.st0{fill:#585858;}
</style>
<path class="st0" d="M156,110.4V44.5L117.3,5H29.6C25.4,5,22,8.4,22,12.6v166.8c0,4.2,3.4,7.6,7.6,7.6h66.8
	c9.1,15.8,26.1,26.5,45.6,26.5c29,0,52.5-23.5,52.5-52.5C194.5,136.9,178.2,116.5,156,110.4z M92.7,179H30V13h82.5
	c0.2,10.6,0.5,28.5,0.5,32c0,5,5,4,5,4l30,0.1v59.7c-2-0.2-4-0.3-6-0.3c-29,0-52.5,23.5-52.5,52.5C89.5,167.3,90.6,173.4,92.7,179z
	 M142,206.5c-15.4,0-29.1-7.7-37.3-19.5c-1.8-2.5-3.3-5.2-4.5-8c-2.4-5.5-3.7-11.6-3.7-18c0-25.1,20.4-45.5,45.5-45.5
	c2,0,4,0.1,6,0.4c2.8,0.4,5.4,1,8,1.8c18.3,5.9,31.5,23.1,31.5,43.3C187.5,186.1,167.1,206.5,142,206.5z M46.5,66h85
	c1.9,0,3.5-1.6,3.5-3.5s-1.6-3.5-3.5-3.5h-85c-1.9,0-3.5,1.6-3.5,3.5S44.6,66,46.5,66z M46.5,87h85c1.9,0,3.5-1.6,3.5-3.5
	s-1.6-3.5-3.5-3.5h-85c-1.9,0-3.5,1.6-3.5,3.5S44.6,87,46.5,87z M115,102.5c0-1.9-1.6-3.5-3.5-3.5h-65c-1.9,0-3.5,1.6-3.5,3.5
	s1.6,3.5,3.5,3.5h65C113.4,106,115,104.4,115,102.5z M83.5,118h-37c-1.9,0-3.5,1.6-3.5,3.5s1.6,3.5,3.5,3.5h37
	c1.9,0,3.5-1.6,3.5-3.5S85.4,118,83.5,118z M71.5,137h-25c-1.9,0-3.5,1.6-3.5,3.5s1.6,3.5,3.5,3.5h25c1.9,0,3.5-1.6,3.5-3.5
	S73.4,137,71.5,137z M146,146c0-1.7-1.3-3-3-3s-3,1.3-3,3s1.3,3,3,3S146,147.7,146,146z M149.1,150.6c0.7-1.2,1.1-2.6,1.1-4.1
	c0-1.6-0.5-3.1-1.2-4.3l-1.3,0.8c0.7,1,1,2.3,1,3.6c0,1.2-0.3,2.3-0.8,3.2L149.1,150.6z M137.1,142.1c-0.8,1.3-1.3,2.8-1.3,4.4
	c0,1.5,0.4,2.9,1.1,4.1l1.2-0.9c-0.5-0.9-0.8-2-0.8-3.2c0-1.2,0.3-2.4,0.9-3.3L137.1,142.1z M151.5,153.2c1.4-2,2.3-4.5,2.3-7.2
	c0-2.6-0.8-4.9-2-6.9l-1.3,0.7c1.2,1.7,1.9,3.9,1.9,6.2c0,2.2-0.6,4.2-1.7,5.9L151.5,153.2z M134.2,139.2c-1.3,1.9-2,4.3-2,6.8
	c0,2.6,0.8,5,2.1,7l1.2-0.9c-1.1-1.7-1.8-3.8-1.8-6.1c0-2.1,0.6-4.1,1.6-5.7L134.2,139.2z M128.3,146c0,3.9,1.3,7.5,3.5,10.2
	l1.1-1.1c-1.9-2.5-3.1-5.7-3.1-9.1c0-3.2,1-6.2,2.7-8.6l-1.1-1.1C129.4,139,128.3,142.4,128.3,146z M154.7,136.3l-1.1,1.1
	c1.7,2.4,2.7,5.4,2.7,8.6c0,3.4-1.1,6.5-3,9l0.9,1.3c2.2-2.8,3.6-6.4,3.6-10.3C157.8,142.4,156.6,139,154.7,136.3z M149.6,167.4
	L149.6,167.4L149.6,167.4l-5-16.2h-3.1l-4.5,14.5l-0.1,0.1l0.1,0.1l-5.9,18.9h24L149.6,167.4z M152.8,182.6l-9.2-9.2l4.8-4.8
	L152.8,182.6z M147.3,165.1l-4-4l2.1-2L147.3,165.1z M142.6,152.8h0.9l1.7,5.4l-2.5,2.3l-1.9-1.9L142.6,152.8z M140.4,159.6l1.5,1.5
	l-2.8,2.6L140.4,159.6z M138.5,165.6l4.1-3.8l5.3,5.3l0.1,0.3l-5.2,5.2l-5-5L138.5,165.6z M137.5,168.8l4.6,4.6l-8.7,8.7
	L137.5,168.8z M133.6,183.3l9.2-9.2l9.2,9.2H133.6z M113.2,162l9.9-6.8c0.9-0.6,1.1-1.9,0.5-2.8c-0.6-0.9-1.9-1.1-2.8-0.5l-6.4,4.4
	c2.2-13.8,14.2-24.4,28.6-24.4c13.6,0,25,9.4,28.1,22c0,0,0,0,0,0c0.1,0.2,2.1,2.3,3.9-0.8c-3.5-14.4-16.5-25.2-32.1-25.2
	c-16.2,0-29.6,11.7-32.5,27l-4.6-6c-0.7-0.9-1.9-1-2.8-0.4c-0.9,0.7-1,1.9-0.4,2.8l7.4,9.5c0,0,0,0,0.1,0.1c0.1,0.2,0.1,0.3,0.2,0.5
	C111,162.4,112.3,162.7,113.2,162z M183.5,170.3l-7.2-9.6c0,0,0,0-0.1-0.1c-0.1-0.2-0.1-0.3-0.2-0.5c-0.6-0.9-1.9-1.2-2.8-0.6
	l-10,6.6c-0.9,0.6-1.2,1.9-0.6,2.8c0.6,0.9,1.9,1.2,2.8,0.6l6.3-4.1c-2.1,13.9-14.2,24.6-28.6,24.6c-13.9,0-25.6-9.9-28.4-23
	c-2.4-1.9-4,0.6-4,0.6c3.1,15,16.4,26.4,32.3,26.4c16.4,0,30-12,32.5-27.6l4.7,6.3c0.7,0.9,1.9,1.1,2.8,0.4S184.1,171.2,183.5,170.3
	z"/>
</svg>
