<?xml version="1.0" encoding="utf-8"?>
<!-- Generator: Adobe Illustrator 22.0.0, SVG Export Plug-In . SVG Version: 6.00 Build 0)  -->
<svg version="1.1" id="Layer_1" xmlns="http://www.w3.org/2000/svg" xmlns:xlink="http://www.w3.org/1999/xlink" x="0px" y="0px"
	 viewBox="0 0 216 216" style="enable-background:new 0 0 216 216;" xml:space="preserve">
<style type="text/css">
	.st0{fill:#585858;}
</style>
<path class="st0" d="M108,210.5c-56.5,0-102.5-46-102.5-102.5S51.5,5.5,108,5.5s102.5,46,102.5,102.5S164.5,210.5,108,210.5z
	 M108,17.5c-49.9,0-90.5,40.6-90.5,90.5c0,49.9,40.6,90.5,90.5,90.5c49.9,0,90.5-40.6,90.5-90.5C198.5,58.1,157.9,17.5,108,17.5z"/>
<rect x="14" y="100" transform="matrix(0.7071 0.7071 -0.7071 0.7071 106.5858 -45.3209)" class="st0" width="188" height="12"/>
<path class="st0" d="M91,113H51c-6.6,0-12,5.4-12,12v24c0,6.6,5.4,12,12,12h21.8L84,173c0,0,4,2,4-4v-8h3c6.6,0,12-5.4,12-12v-24
	C103,118.4,97.6,113,91,113z M76.3,144.3c-0.5,0.5-1.1,0.7-1.8,0.7h-18c-1.4,0-2.5-1.1-2.5-2.5c0-0.7,0.3-1.3,0.7-1.8
	c0.5-0.5,1.1-0.7,1.8-0.7h18c1.4,0,2.5,1.1,2.5,2.5C77,143.2,76.7,143.8,76.3,144.3z M86.3,132.3c-0.5,0.5-1.1,0.7-1.8,0.7h-28
	c-1.4,0-2.5-1.1-2.5-2.5c0-0.7,0.3-1.3,0.7-1.8c0.5-0.5,1.1-0.7,1.8-0.7h28c1.4,0,2.5,1.1,2.5,2.5C87,131.2,86.7,131.8,86.3,132.3z"
	/>
<path class="st0" d="M165,99h-40c-6.6,0-12,5.4-12,12v24c0,6.6,5.4,12,12,12h3v10c0,0,1,7,7,0l8.6-10H165c6.6,0,12-5.4,12-12v-24
	C177,104.4,171.6,99,165,99z M139.1,130.1c-0.5,0.5-1.3,0.9-2.1,0.9h-3c-1.7,0-3-1.4-3-3c0-0.8,0.3-1.6,0.9-2.1
	c0.5-0.5,1.3-0.9,2.1-0.9h3c1.7,0,3,1.3,3,3C140,128.8,139.7,129.6,139.1,130.1z M151.1,130.1c-0.5,0.5-1.3,0.9-2.1,0.9h-3
	c-1.7,0-3-1.4-3-3c0-0.8,0.3-1.6,0.9-2.1c0.5-0.5,1.3-0.9,2.1-0.9h3c1.7,0,3,1.3,3,3C152,128.8,151.7,129.6,151.1,130.1z M160,119
	c-0.6,0.6-1.5,1-2.5,1h-26c-1.9,0-3.5-1.6-3.5-3.5c0-1,0.4-1.8,1-2.5c0.6-0.6,1.5-1,2.5-1h26c1.9,0,3.5,1.6,3.5,3.5
	C161,117.5,160.6,118.3,160,119z"/>
<path class="st0" d="M107,53H77c-6.6,0-12,5.4-12,12v17c0,6.6,5.4,12,12,12h1v7c0,0,0,7,6,0c2.1-2.4,4-4.9,5.7-7H107
	c6.6,0,12-5.4,12-12V65C119,58.4,113.6,53,107,53z M85.8,79.7c-1.1,1.2-3,1.3-4.2,0.2c-1.2-1.1-1.3-3-0.2-4.2l6.8-7.4
	c1.1-1.2,3-1.3,4.2-0.2c0.6,0.6,1,1.4,1,2.2c0,0.7-0.3,1.5-0.8,2L85.8,79.7z M102.6,72.4l-6.8,7.3c-1.1,1.2-3,1.3-4.2,0.2
	c-1.2-1.1-1.3-3-0.2-4.2l6.8-7.4c1.1-1.2,3-1.3,4.2-0.2c0.6,0.6,1,1.4,1,2.2C103.4,71,103.1,71.8,102.6,72.4z"/>
</svg>
