<?xml version="1.0" encoding="utf-8"?>
<!-- Generator: Adobe Illustrator 22.0.0, SVG Export Plug-In . SVG Version: 6.00 Build 0)  -->
<svg version="1.1" id="Layer_1" xmlns="http://www.w3.org/2000/svg" xmlns:xlink="http://www.w3.org/1999/xlink" x="0px" y="0px"
	 viewBox="0 0 216 216" style="enable-background:new 0 0 216 216;" xml:space="preserve">
<style type="text/css">
	.st0{fill:#515151;}
</style>
<g>
	<circle class="st0" cx="108.2" cy="68.1" r="8.8"/>
	<path class="st0" d="M124,56.9l-2.9,3c1.3,2.2,2.1,4.8,2.1,7.6c0,3.2-1,6.1-2.7,8.6l3.2,2.6c2.3-3.1,3.6-7,3.6-11.1
		C127.2,63.5,126,59.9,124,56.9z M95.9,59.2l-2.8-3.1c-2.4,3.2-3.8,7.1-3.8,11.4c0,4.5,1.5,8.6,4.1,11.8l2.7-3.2
		c-1.7-2.4-2.8-5.4-2.8-8.6C93.4,64.4,94.3,61.6,95.9,59.2z"/>
	<path class="st0" d="M131,49.8l-2.9,3c3.2,4.2,5.1,9.4,5.1,15.1c0,6-2.1,11.5-5.6,15.8l2.9,2.9c4.3-5.1,6.9-11.6,6.9-18.7
		C137.4,61.1,135,54.7,131,49.8z M85.8,49.7c-4,5-6.5,11.3-6.5,18.2c0,7.1,2.5,13.6,6.8,18.6l2.8-3.1c-3.4-4.3-5.5-9.7-5.5-15.5
		c0-5.9,2.1-11.3,5.5-15.6L85.8,49.7z"/>
	<path class="st0" d="M138.4,42.1l-3.9,3.3c5.5,6.2,8.8,14.3,8.8,23.2c0,8.5-3.1,16.4-8.1,22.4l4.2,3c5.7-6.9,9.1-15.8,9.1-25.4
		C148.4,58.5,144.6,49.2,138.4,42.1z M78.3,41.7C71.9,48.8,68,58.3,68,68.6c0,9.9,3.6,18.9,9.5,25.9l3.9-3.4
		c-5.1-6.1-8.2-13.9-8.2-22.5c0-9.2,3.5-17.5,9.3-23.8L78.3,41.7z"/>
	<path class="st0" d="M112.3,82h-8.8l-27.5,87.6h64.1L112.3,82z M108.2,85.2l25.1,79.3H82.5L108.2,85.2z"/>
	
		<rect x="100.4" y="114.1" transform="matrix(0.7071 0.7071 -0.7071 0.7071 131.601 -30.5052)" class="st0" width="4.5" height="59.1"/>
	
		<rect x="111.6" y="113.6" transform="matrix(-0.7071 0.7071 -0.7071 -0.7071 295.4734 163.9256)" class="st0" width="4.5" height="59.1"/>
	
		<rect x="109.1" y="94.3" transform="matrix(-0.7071 0.7071 -0.7071 -0.7071 267.6242 108.6723)" class="st0" width="4.5" height="30.9"/>
	
		<rect x="103.2" y="93.3" transform="matrix(-0.7071 -0.7071 0.7071 -0.7071 103.1272 260.1817)" class="st0" width="4.5" height="30.9"/>
	<path class="st0" d="M182.6,119.4l-0.5,0.3c-6.9,34.8-37.6,61.1-74.4,61.1c-36.3,0-66.7-25.6-74.1-59.8c-2.4-2-5.8-1.2-5.8-1.2
		c-4.1,2.6-3.3,6.7-3.3,6.7h-0.2c9.6,37.1,43.4,64.5,83.4,64.5c42,0,77.1-30.2,84.6-70L182.6,119.4z M107.7,29.3
		c35.5,0,65.4,24.5,73.6,57.5v0c0.8,1,4,4.6,7,3.2c0,0,2.8-1.3,3.3-4.6c-8.9-38-43.1-66.4-83.8-66.4c-42.9,0-78.6,31.6-85.1,72.7
		l10.2,1.3C38.7,56.9,70,29.3,107.7,29.3z"/>
	<path class="st0" d="M27.1,105.9l-0.3,0.2c-2.4,1.5-5.5,0.8-7-1.6l-16-25.3c-1.5-2.4-0.8-5.5,1.6-7l0.3-0.2c2.4-1.5,5.5-0.8,7,1.6
		l16,25.3C30.2,101.2,29.5,104.4,27.1,105.9z"/>
	<path class="st0" d="M23.8,105.3l-0.2-0.3c-1.5-2.4-0.8-5.5,1.6-7l25.3-16c2.4-1.5,5.5-0.8,7,1.6l0.2,0.3c1.5,2.4,0.8,5.5-1.6,7
		l-25.3,16C28.4,108.4,25.3,107.7,23.8,105.3z"/>
	<path class="st0" d="M18.9,103c0,0,1.8,4.5,4.9,6.2c1.3,0.7,2.9,0.5,4.1-0.3l8.1-5.3l-3.1-10.7c0,0-10.2-1.3-10.2-1.3L18.9,103z"/>
	<path class="st0" d="M189,107.3l0.3-0.2c2.4-1.5,5.5-0.8,7,1.6l16,25.3c1.5,2.4,0.8,5.5-1.6,7l-0.3,0.2c-2.4,1.5-5.5,0.8-7-1.6
		l-16-25.3C186,112,186.7,108.8,189,107.3z"/>
	<path class="st0" d="M192.4,107.9l0.2,0.3c1.5,2.4,0.8,5.5-1.6,7l-25.3,16c-2.4,1.5-5.5,0.8-7-1.6l-0.2-0.3c-1.5-2.4-0.8-5.5,1.6-7
		l25.3-16C187.7,104.8,190.9,105.5,192.4,107.9z"/>
	<path class="st0" d="M197.2,110.2c0,0-1.4-3.5-3.9-5.5c-1.6-1.3-3.9-1.2-5.6-0.1l-7.6,5l3.1,10.7l10.2,1.3L197.2,110.2z"/>
</g>
</svg>
