<?xml version="1.0" encoding="utf-8"?>
<!-- Generator: Adobe Illustrator 22.0.0, SVG Export Plug-In . SVG Version: 6.00 Build 0)  -->
<svg version="1.1" id="Layer_1" xmlns="http://www.w3.org/2000/svg" xmlns:xlink="http://www.w3.org/1999/xlink" x="0px" y="0px"
	 viewBox="0 0 216 216" style="enable-background:new 0 0 216 216;" xml:space="preserve">
<style type="text/css">
	.st0{fill:#585858;}
</style>
<path class="st0" d="M196.6,183H189v-50.4l7.9,6.1c1.3,1,3.2,0.7,4.2-0.6c1-1.3,0.7-3.2-0.6-4.2L152,96.7V69.9l8.3,6.3
	c1.3,1,3.2,0.7,4.2-0.6c1-1.3,0.7-3.2-0.6-4.2L146,57.8V21c1.7,0,3-1.4,3-3c0-1.7-1.3-3-3-3h-32c-1.7,0-3,1.3-3,3c0,1.6,1.3,3,3,3h1
	v13.1l-7.3-5.5c-0.5-0.4-1.1-0.6-1.7-0.6c-0.9-0.4-2.1-0.2-2.9,0.4L47.2,71.7c-1.3,1-1.5,2.9-0.5,4.2c1,1.3,2.9,1.5,4.2,0.5l8.1-6.3
	v56.9c-19.5,1.3-35,17.6-35,37.4c0,6.7,1.8,13,4.9,18.5h-8.5c-3,0-5.4,2.4-5.4,5.4v8.2c0,3,2.4,5.4,5.4,5.4h176.2
	c3,0,5.4-2.4,5.4-5.4v-8.2C202,185.4,199.6,183,196.6,183z M152,104.3l31,23.7v18h-11.4c-3.6,0-6.6,3-6.6,6.6V183h-13V104.3z
	 M183,152v31h-12v-30.4c0-0.3,0.3-0.6,0.6-0.6H183z M121,21h19v32.2l-19-14.5V21z M65,65.5l40.3-31.3L146,65.3V149h-10
	c-1.7,0-3,1.3-3,3c0,1.6,1.3,3,3,3h10v28H94.1c3.1-5.5,4.9-11.8,4.9-18.5c0-3.3-0.4-6.5-1.2-9.5H124c1.7,0,3-1.4,3-3
	c0-1.7-1.3-3-3-3H96c-0.1,0-0.2,0-0.4,0c-5.4-12-17-20.6-30.6-21.9V65.5z M72.2,162c-0.2-1-0.6-2-1.1-2.9l14.7-14.7
	c4,4.8,6.6,10.9,7.1,17.5H72.2z M92.8,168c-0.7,6-3,11.5-6.6,16l-14.8-14.8c0.2-0.4,0.3-0.8,0.5-1.2H92.8z M65,133.2
	c6.2,0.7,11.9,3.2,16.5,7l-14.7,14.7c-0.6-0.3-1.2-0.6-1.9-0.8V133.2z M59,133.1v20.7c-0.8,0.2-1.5,0.4-2.2,0.8L42,139.8
	C46.8,136,52.6,133.6,59,133.1z M37.7,143.9l14.6,14.6c-0.7,1.1-1.2,2.2-1.5,3.5H30.1C30.7,155.1,33.4,148.9,37.7,143.9z
	 M51.9,169.9l-14.7,14.7c-3.8-4.6-6.3-10.3-7-16.5h20.9C51.3,168.6,51.6,169.3,51.9,169.9z M20.4,197c-0.2,0-0.4-0.2-0.4-0.4v-8.2
	c0-0.2,0.2-0.4,0.4-0.4h11.9c2.9,3.6,6.5,6.7,10.5,9H20.4z M59,195.9c-6.6-0.5-12.7-3.1-17.5-7.1l14.7-14.7c0.9,0.5,1.8,0.9,2.9,1.1
	V195.9z M55.5,164.5c0-3.3,2.7-6,6-6s6,2.7,6,6s-2.7,6-6,6S55.5,167.8,55.5,164.5z M65,174.9c0.9-0.3,1.7-0.7,2.5-1.2l14.6,14.6
	c-4.7,4.1-10.6,6.8-17.1,7.5V174.9z M197,196.6c0,0.2-0.2,0.4-0.4,0.4H80.2c4-2.3,7.6-5.4,10.5-9h105.9c0.2,0,0.4,0.2,0.4,0.4V196.6
	z M92.5,73.9v10.9c0,2.6,2.1,4.7,4.7,4.7h15.7c2.6,0,4.7-2.1,4.7-4.7V74h0.5c1.7,0,3-1.4,3-3c0-1.7-1.3-3-3-3H93c-1.7,0-3,1.3-3,3
	C90,72.5,91.1,73.7,92.5,73.9z M97.5,74h15v10.5h-15V74z M98.5,115.8V105H99c1.7,0,3-1.4,3-3c0-1.7-1.3-3-3-3H74c-1.7,0-3,1.3-3,3
	c0,1.5,1.1,2.7,2.5,2.9v10.9c0,2.6,2.1,4.7,4.7,4.7h15.7C96.4,120.5,98.5,118.4,98.5,115.8z M93.5,115.5h-15V105h15V115.5z M109,102
	c0,1.5,1.1,2.7,2.5,2.9v10.9c0,2.6,2.1,4.7,4.7,4.7h15.7c2.6,0,4.7-2.1,4.7-4.7V105h0.5c1.7,0,3-1.4,3-3c0-1.7-1.3-3-3-3h-25
	C110.3,99,109,100.3,109,102z M116.5,105h15v10.5h-15V105z M115,165h-4c-1.7,0-3,1.3-3,3c0,1.6,1.3,3,3,3h4c1.7,0,3-1.4,3-3
	C118,166.3,116.7,165,115,165z M127,174c0,1.6,1.3,3,3,3h4c1.7,0,3-1.4,3-3c0-1.7-1.3-3-3-3h-4C128.3,171,127,172.3,127,174z"/>
</svg>
