<?xml version="1.0" encoding="utf-8"?>
<!-- Generator: Adobe Illustrator 22.0.0, SVG Export Plug-In . SVG Version: 6.00 Build 0)  -->
<svg version="1.1" id="Layer_1" xmlns="http://www.w3.org/2000/svg" xmlns:xlink="http://www.w3.org/1999/xlink" x="0px" y="0px"
	 viewBox="0 0 216 216" style="enable-background:new 0 0 216 216;" xml:space="preserve">
<style type="text/css">
	.st0{fill:#585858;}
</style>
<g>
	<g>
		<path class="st0" d="M109.5,196.5c0,0-75,0-80,0c-11-2-9-11-9-11c1.8-8.1,7.7-29.2,27-47c23.1-21.3,49.9-23.6,57.5-24l-0.1-0.1
			c1,0.1,2,0.1,3.1,0.1c30.6,0,55.5-24.9,55.5-55.5S138.6,3.5,108,3.5C77.4,3.5,52.5,28.4,52.5,59c0,18.3,8.9,34.5,22.5,44.6
			c0,0,0,0,0,0c-42.5,15.1-56.5,44.9-59.5,49.9c-15,34-11,34-10,42c6,16,22,16,22,16s74,0,82,0s9-4,8.5-6.5
			C118,195.5,109.5,196.5,109.5,196.5z M69.5,59c0-21.2,17.3-38.5,38.5-38.5c21.2,0,38.5,17.3,38.5,38.5S129.2,97.5,108,97.5
			C86.8,97.5,69.5,80.2,69.5,59z M135,138.5c0,4.1,3.4,7.5,7.5,7.5h62c4.1,0,7.5-3.4,7.5-7.5s-3.4-7.5-7.5-7.5h-62
			C138.4,131,135,134.4,135,138.5z M204.5,163h-62c-4.1,0-7.5,3.4-7.5,7.5s3.4,7.5,7.5,7.5h62c4.1,0,7.5-3.4,7.5-7.5
			S208.6,163,204.5,163z M204.5,197h-62c-4.1,0-7.5,3.4-7.5,7.5s3.4,7.5,7.5,7.5h62c4.1,0,7.5-3.4,7.5-7.5S208.6,197,204.5,197z"/>
	</g>
</g>
</svg>
