<?xml version="1.0" encoding="utf-8"?>
<!-- Generator: Adobe Illustrator 22.0.0, SVG Export Plug-In . SVG Version: 6.00 Build 0)  -->
<svg version="1.1" id="Layer_1" xmlns="http://www.w3.org/2000/svg" xmlns:xlink="http://www.w3.org/1999/xlink" x="0px" y="0px"
	 viewBox="0 0 216 216" style="enable-background:new 0 0 216 216;" xml:space="preserve">
<style type="text/css">
	.st0{fill:#F3C276;}
</style>
<circle class="st0" cx="110.5" cy="109.5" r="99.5"/>
<path d="M187.5,104.1c-0.3-0.5-0.6-1-1-1.5c-0.1-0.1-0.1-0.2-0.2-0.3c-0.3-0.4-0.5-0.8-0.8-1.2c0,0,0,0,0,0c0,0,0,0,0,0l-1.5-2.1
	l0,0c-15.8-20.2-44.2-32.6-74.9-32.6c-33.4,0-63.9,14.7-78.5,37.7l0-0.1l-1.3,2.2c-0.6,1.1-1.2,2.1-1.7,3.1l-0.4,0.8l0.4,0.7
	c0.6,1,1.3,2,2,3c0,0,0,0,0,0c0,0,0,0,0,0l1.5,2.1l0,0c15.8,20.2,44.2,32.6,74.9,32.6c33.4,0,63.9-14.7,78.5-37.7l0,0.1l1.3-2.2
	c0.6-1.1,1.2-2.1,1.7-3.1l0.4-0.8L187.5,104.1z M34.1,109.9C45.6,89.6,70.2,75.7,98.7,73c-15.1,4.5-26.2,18.5-26.2,35
	c0,15.5,9.7,28.7,23.3,34C69.7,139.5,46.7,127.7,34.1,109.9z M125,140.8c12.2-5.9,20.5-18.4,20.5-32.8c0-5.2-1.1-10.2-3.2-15
	l-0.3-0.6l-4,3.4l0.1,0.3c1.5,3.8,2.3,7.8,2.3,11.9c0,17.4-14.1,31.5-31.5,31.5S77.5,125.4,77.5,108S91.6,76.5,109,76.5
	c6.2,0,12.2,1.8,17.4,5.2l0.3,0.2l3.6-3.6l-0.5-0.3c-3.3-2.3-6.8-4-10.5-5.1c26.1,2.5,49,14.3,61.6,32.1
	C170.6,123.4,149.7,136.4,125,140.8z M110,98c-5.5,0-10,4.5-10,10c0,5.5,4.5,10,10,10s10-4.5,10-10C120,102.5,115.5,98,110,98z"/>
</svg>
