<?xml version="1.0" encoding="utf-8"?>
<!-- Generator: Adobe Illustrator 22.0.0, SVG Export Plug-In . SVG Version: 6.00 Build 0)  -->
<svg version="1.1" id="Layer_1" xmlns="http://www.w3.org/2000/svg" xmlns:xlink="http://www.w3.org/1999/xlink" x="0px" y="0px"
	 viewBox="0 0 216 216" style="enable-background:new 0 0 216 216;" xml:space="preserve">
<style type="text/css">
	.st0{fill:#2B9E2D;}
</style>
<path class="st0" d="M107.5,2C49.9,2,3,48.9,3,106.5C3,164.1,49.9,211,107.5,211c57.6,0,104.5-46.9,104.5-104.5
	C212,48.9,165.1,2,107.5,2z M107.5,206C52.6,206,8,161.4,8,106.5S52.6,7,107.5,7S207,51.6,207,106.5S162.4,206,107.5,206z
	 M155.5,58.5c0,0-25,8-60,73l-14-27l-30,17c0,0,33,17,47,39c0-2,36-61,59-65C157.5,95.5,149.5,86.5,155.5,58.5z"/>
</svg>
