<?xml version="1.0" encoding="utf-8"?>
<!-- Generator: Adobe Illustrator 22.0.0, SVG Export Plug-In . SVG Version: 6.00 Build 0)  -->
<svg version="1.1" id="Layer_1" xmlns="http://www.w3.org/2000/svg" xmlns:xlink="http://www.w3.org/1999/xlink" x="0px" y="0px"
	 viewBox="0 0 216 216" style="enable-background:new 0 0 216 216;" xml:space="preserve">
<style type="text/css">
	.st0{fill:#FFB81C;}
</style>
<image style="display:none;overflow:visible;" width="512" height="512" xlink:href="../../../Custom View Detail.png"  transform="matrix(0.3828 0 0 0.3828 10.004 12.0041)">
</image>
<path class="st0" d="M171.3,177.6V9.8H18.8V183l0,1.2l0,0c0,0.3,0,0.6,0,0.9c0,12.2,9.3,22.2,21,22.9v0h141.8
	c8.6,0,15.7-7.2,15.7-16.1v-14.2H171.3z M43.2,203.2h-1.1c-0.7,0.1-1.5,0.1-2.3,0.1v0c-9.1-0.7-16.3-8.3-16.5-17.8l0,0l0-0.3
	c0,0,0-0.1,0-0.1c0,0,0-0.1,0-0.1l0-5h0V14.4h143.5v163.2H58.2l0.4,4.6h0l0.1,0.7l0,0c0.1,0.7,0.1,1.4,0.1,2.2
	C58.8,194.4,51.9,202.1,43.2,203.2z M192.8,191.9c0,6.3-5,11.5-11.2,11.5H54.4c5.4-4.2,8.9-10.8,8.9-18.3c0-1-0.1-1.9-0.2-2.8h129.7
	V191.9z M144,142H37v4h107V142z M103,123H37v4h66V123z M80,101H37v4h43V101z M92.1,88.1c0,0.1,0.1,0.2,0.1,0.3
	c0.4,0.9,1.1,2,2.1,3.1c0,0,0,0.1,0.1,0.1c0.1,0.2,0.3,0.3,0.4,0.5c0,0,0,0,0,0c10.3,14.3,20.9,17.5,21.7,17.8l0.6,0.2l0.6-0.2
	c0.6-0.2,1.2-0.5,1.8-0.7c1.6-0.6,3.6-1.7,5.9-3.2c25-16.2,29.5-55.9,29.7-57.8l0.2-1.8l-1.8-0.3c-24.8-4.8-34.8-15.2-34.9-15.4
	l-1.4-1.5l-1.5,1.5c-9.5,9.5-35.8,15.4-36,15.5l-1.9,0.4l0.3,1.9C81.1,66.2,86.4,79,92.1,88.1z M136.8,88.5
	c-0.1,0.1-0.2,0.3-0.3,0.4c-7.6,10.9-16,15.4-19.9,16.9c-0.1-0.1-0.3-0.1-0.4-0.2c-0.7-0.3-1.7-0.8-2.8-1.4c0,0,0,0,0,0
	c-3.5-2-8.9-6-14.3-13.1c-1.1-1.5-2.3-3.1-3.4-4.9c-0.5-3.1,1.1-5.8,1.7-6.6l11.8-7.3c1.5,0.6,2.9,1.1,4.2,1.3c1,0.3,2,0.4,3.1,0.4
	c0.1,0,0.2,0,0.4,0c3.7,0,6-1.4,7.4-2.5c2.5,1.6,7.7,4.9,10.6,7.1c2.4,1.8,2.9,6.3,2.9,8.6C137.4,87.6,137.1,88,136.8,88.5z
	 M108,61.5c0-4.7,3.8-8.5,8.5-8.5s8.5,3.8,8.5,8.5c0,4.6-3.7,8.3-8.2,8.5c-0.8,0-1.8-0.1-2.8-0.4C110.5,68.5,108,65.3,108,61.5z
	 M117,34.7c3.6,3.1,13.9,10.7,33.8,14.8c-0.7,4.9-3.2,18.8-9.9,31.8c-0.6-2.2-1.7-4.5-3.7-6c-2.9-2.1-7.7-5.3-10.3-7
	c1.3-2,2.1-4.4,2.1-6.9c0-6.9-5.6-12.5-12.5-12.5S104,54.6,104,61.5c0,2.9,1,5.5,2.6,7.6l-12,7.3l-0.2,0.3c-0.1,0.1-1.2,1.5-2,3.7
	c-4-7.8-7.7-17.9-10.1-30.9C88.4,48,107.5,42.8,117,34.7z"/>
</svg>
