<?xml version="1.0" encoding="utf-8"?>
<!-- Generator: Adobe Illustrator 22.0.0, SVG Export Plug-In . SVG Version: 6.00 Build 0)  -->
<svg version="1.1" id="Layer_1" xmlns="http://www.w3.org/2000/svg" xmlns:xlink="http://www.w3.org/1999/xlink" x="0px" y="0px"
	 viewBox="0 0 216 216" style="enable-background:new 0 0 216 216;" xml:space="preserve">
<style type="text/css">
	.st0{fill:#FFB81C;}
</style>
<path class="st0" d="M208.2,17.9H8.9c-3.6,0-6.6,3-6.6,6.6v125.6c0,3.6,3,6.6,6.6,6.6h79.6l-1.4,21.9c0,0,0,9.5-15.1,15.2
	c0,0-5,3.3,0,5.2H145c5-1.9,0-5.2,0-5.2c-15.1-5.7-15.1-15.2-15.1-15.2l-1.4-21.9h79.6c3.6,0,6.6-3,6.6-6.6V24.5
	C214.8,20.9,211.8,17.9,208.2,17.9z M208.8,150.1c0,0.3-0.3,0.6-0.6,0.6H8.9c-0.3,0-0.6-0.3-0.6-0.6V24.5c0-0.3,0.3-0.6,0.6-0.6
	h199.3c0.3,0,0.6,0.3,0.6,0.6V150.1z M155.9,52.4c-17.2,2-30.6,16.6-30.6,34.4c0,19.1,15.5,34.6,34.6,34.6c5.7,0,11.1-1.4,15.8-3.8
	L155.9,88V52.4z M162.2,50.9v33.5l26.2-19.5C188.4,64.9,178.7,50.7,162.2,50.9z M163.6,89.5l17.6,27.2c0,0,9.4-5.4,13.6-19.3
	c0,0,5.2-15.1-4-28.5L163.6,89.5z M54.8,84.6H43.9c-0.8,0-1.4,0.6-1.4,1.4v32.7c0,0.8,0.6,1.4,1.4,1.4h10.9c0.8,0,1.4-0.6,1.4-1.4
	V86C56.3,85.2,55.6,84.6,54.8,84.6z M34.5,98.9H23.6c-0.8,0-1.4,0.6-1.4,1.4v18.3c0,0.8,0.6,1.4,1.4,1.4h10.9c0.8,0,1.4-0.6,1.4-1.4
	v-18.3C35.9,99.6,35.3,98.9,34.5,98.9z M95.4,49.3h-15c-1.1,0-1.9,0.9-1.9,1.9v0.6c0,1.1,0.9,1.9,1.9,1.9h10.2L70,76.9l-19.6-16
	c-0.7-0.6-1.9-0.5-2.5,0.3l-0.1,0.1L22.6,85c-0.7,0.7-0.7,1.8-0.1,2.5l0.8,0.8c0.7,0.7,1.8,0.7,2.5,0.1l23.7-22.2l19.6,16
	c0.5,0.4,1.1,0.5,1.7,0.3c0.4-0.1,0.8-0.2,1.1-0.6l21.1-23.8v8c0,1.1,0.9,1.9,1.9,1.9h0.6c1.1,0,1.9-0.9,1.9-1.9V51.2
	C97.4,50.2,96.5,49.3,95.4,49.3z M75.2,91.7H64.3c-0.8,0-1.4,0.6-1.4,1.4v25.5c0,0.8,0.6,1.4,1.4,1.4h10.9c0.8,0,1.4-0.6,1.4-1.4
	V93.2C76.6,92.4,76,91.7,75.2,91.7z M95.8,77.7H85c-0.8,0-1.4,0.6-1.4,1.4v39.6c0,0.8,0.6,1.4,1.4,1.4h10.9c0.8,0,1.4-0.6,1.4-1.4
	V79.1C97.3,78.3,96.6,77.7,95.8,77.7z"/>
</svg>
