<?xml version="1.0" encoding="utf-8"?>
<!-- Generator: Adobe Illustrator 22.0.0, SVG Export Plug-In . SVG Version: 6.00 Build 0)  -->
<svg version="1.1" id="Layer_1" xmlns="http://www.w3.org/2000/svg" xmlns:xlink="http://www.w3.org/1999/xlink" x="0px" y="0px"
	 viewBox="0 0 216 216" style="enable-background:new 0 0 216 216;" xml:space="preserve">
<style type="text/css">
	.st0{fill:#FFB81C;}
	.st1{fill:#FFFFFF;}
</style>
<path class="st0" d="M188.2,36.5h-65.7c-0.1,0-0.2,0-0.2,0v-3.1c0-5.3-5-9.2-10.2-7.9L24.7,48c-3.7,0.9-6.2,4.3-6.1,8.1l2.3,110
	c0.1,3.9,2.9,7.2,6.8,7.9l85,14.3c5,0.8,9.5-3,9.5-8v-3.9c0.1,0,0.2,0,0.2,0h65.7c5.3,0,9.6-4.3,9.6-9.6V46.1
	C197.8,40.8,193.5,36.5,188.2,36.5z M144,164.3h-19.1v-12.1H144V164.3z M144,144.6h-19.1V131H144V144.6z M144,123.5h-19.1v-13.6H144
	V123.5z M144,102.4h-19.1V88.8H144V102.4z M144,81.2h-19.1V67.6H144V81.2z M144,60h-19.1V48.5H144V60z M185.8,164.3h-33.2v-12.1
	h33.2V164.3z M185.8,144.6h-33.2V131h33.2V144.6z M185.8,123.5h-33.2v-13.6h33.2V123.5z M185.8,102.4h-33.2V88.8h33.2V102.4z
	 M185.8,81.2h-33.2V67.6h33.2V81.2z M185.8,60h-33.2V48.5h33.2V60z"/>
<path class="st1" d="M69.1,101.9l8.8-13.3H89l-13.6,19.2l13.9,19.5H78.1l-9-13.5l-9,13.5H49l13.9-19.5L49.3,88.6h11.1L69.1,101.9z"
	/>
</svg>
