<?xml version="1.0" encoding="utf-8"?>
<!-- Generator: Adobe Illustrator 22.0.0, SVG Export Plug-In . SVG Version: 6.00 Build 0)  -->
<svg version="1.1" id="Layer_1" xmlns="http://www.w3.org/2000/svg" xmlns:xlink="http://www.w3.org/1999/xlink" x="0px" y="0px"
	 viewBox="0 0 216 216" style="enable-background:new 0 0 216 216;" xml:space="preserve">
<style type="text/css">
	.st0{fill:#FFB81C;}
	.st1{fill:#FFFFFF;}
</style>
<path class="st0" d="M107.1,3.5C49.3,3.5,2.4,50.5,2.4,108.2C2.4,166,49.3,213,107.1,213c57.8,0,104.8-47,104.8-104.8
	C211.9,50.5,164.9,3.5,107.1,3.5z M107.1,205c-53.4,0-96.8-43.4-96.8-96.8c0-53.4,43.4-96.8,96.8-96.8c53.4,0,96.8,43.4,96.8,96.8
	C203.9,161.6,160.5,205,107.1,205z M51.2,49.5l-2.8,2.2c-16.2,12.7-26.8,31.1-29.7,51.7c-2.9,20.6,2.2,41.2,14.4,57.9
	c12.4,17.1,30.9,28.3,52,31.7c4.3,0.7,8.5,1,12.7,1c16.7,0,32.9-5.2,46.5-15.1l2.8-2.1l-46.9-64.4L51.2,49.5z M86.2,186
	c-19.3-3-36.1-13.3-47.4-28.9C16.7,126.8,21.9,83.8,50,59.4l44.7,57.1l42.7,58.6C122.3,185,104.3,188.9,86.2,186z M178.5,52
	c-12.7-16.2-31.1-26.8-51.7-29.7c-20.6-2.9-41.2,2.2-57.9,14.4l-2.8,2.1l46.9,64.4l49.2,62.8l2.8-2.2c16.6-13,27.2-31.9,29.8-53.1
	C197.3,89.5,191.5,68.7,178.5,52z M187.7,109.9c-2.2,18.2-10.9,34.5-24.5,46.2L118.6,99L75.9,40.4C107,20,149.9,26.8,173,56.3
	C184.8,71.5,190.1,90.5,187.7,109.9z"/>
<path class="st0" d="M156.5,135.5c2.9-3.2,4.7-7.5,4.7-12.2V88.5c0-10-8.1-18.1-18.1-18.1H70.2c-10,0-18.1,8.1-18.1,18.1v34.8
	c0,10,8.1,18.1,18.1,18.1h64l34,32.6L156.5,135.5z M129.3,126.8c-1.1,1.1-2.7,1.8-4.4,1.8H91.2c-3.4,0-6.2-2.8-6.2-6.2
	c0-1.7,0.7-3.3,1.8-4.4c1.1-1.1,2.7-1.8,4.4-1.8H125c3.4,0,6.2,2.8,6.2,6.2C131.2,124.1,130.5,125.7,129.3,126.8z M129.3,110.3
	c-1.1,1.1-2.7,1.8-4.4,1.8H91.2c-3.4,0-6.2-2.8-6.2-6.2c0-1.7,0.7-3.3,1.8-4.4c1.1-1.1,2.7-1.8,4.4-1.8H125c3.4,0,6.2,2.8,6.2,6.2
	C131.2,107.6,130.5,109.1,129.3,110.3z M129.3,93.6c-1.1,1.1-2.7,1.8-4.4,1.8H91.2c-3.4,0-6.2-2.8-6.2-6.2c0-1.7,0.7-3.3,1.8-4.4
	c1.1-1.1,2.7-1.8,4.4-1.8H125c3.4,0,6.2,2.8,6.2,6.2C131.2,90.9,130.5,92.5,129.3,93.6z"/>
<path class="st0" d="M131.2,122.4c0,1.7-0.7,3.3-1.8,4.4c-1.1,1.1-2.7,1.8-4.4,1.8H91.2c-3.4,0-6.2-2.8-6.2-6.2
	c0-1.7,0.7-3.3,1.8-4.4c1.1-1.1,2.7-1.8,4.4-1.8H125C128.4,116.2,131.2,119,131.2,122.4z"/>
<path class="st0" d="M131.2,105.9c0,1.7-0.7,3.3-1.8,4.4c-1.1,1.1-2.7,1.8-4.4,1.8H91.2c-3.4,0-6.2-2.8-6.2-6.2
	c0-1.7,0.7-3.3,1.8-4.4c1.1-1.1,2.7-1.8,4.4-1.8H125C128.4,99.7,131.2,102.4,131.2,105.9z"/>
<path class="st0" d="M85,89.2c0-1.7,0.7-3.3,1.8-4.4c1.1-1.1,2.7-1.8,4.4-1.8H125c3.4,0,6.2,2.8,6.2,6.2c0,1.7-0.7,3.3-1.8,4.4
	c-1.1,1.1-2.7,1.8-4.4,1.8H91.2C87.7,95.4,85,92.6,85,89.2z"/>
<path class="st1" d="M131.2,89.2c0,1.7-0.7,3.3-1.8,4.4c-1.1,1.1-2.7,1.8-4.4,1.8H91.2c-3.4,0-6.2-2.8-6.2-6.2
	c0-1.7,0.7-3.3,1.8-4.4c1.1-1.1,2.7-1.8,4.4-1.8H125C128.4,83,131.2,85.8,131.2,89.2z"/>
<path class="st1" d="M131.2,105.9c0,1.7-0.7,3.3-1.8,4.4c-1.1,1.1-2.7,1.8-4.4,1.8H91.2c-3.4,0-6.2-2.8-6.2-6.2
	c0-1.7,0.7-3.3,1.8-4.4c1.1-1.1,2.7-1.8,4.4-1.8H125C128.4,99.7,131.2,102.4,131.2,105.9z"/>
<path class="st1" d="M131.2,122.4c0,1.7-0.7,3.3-1.8,4.4c-1.1,1.1-2.7,1.8-4.4,1.8H91.2c-3.4,0-6.2-2.8-6.2-6.2
	c0-1.7,0.7-3.3,1.8-4.4c1.1-1.1,2.7-1.8,4.4-1.8H125C128.4,116.2,131.2,119,131.2,122.4z"/>
</svg>
