<?xml version="1.0" encoding="utf-8"?>
<!-- Generator: Adobe Illustrator 22.0.0, SVG Export Plug-In . SVG Version: 6.00 Build 0)  -->
<svg version="1.1" id="Layer_1" xmlns="http://www.w3.org/2000/svg" xmlns:xlink="http://www.w3.org/1999/xlink" x="0px" y="0px"
	 viewBox="0 0 216 216" style="enable-background:new 0 0 216 216;" xml:space="preserve">
<style type="text/css">
	.st0{fill:#FFB81C;stroke:#FFB81C;stroke-miterlimit:10;}
</style>
<path class="st0" d="M173.5,7.5H43c-8.8,0-16,7.2-16,16v171c0,8.8,7.2,16,16,16h130.5c8.8,0,16-7.2,16-16v-171
	C189.5,14.7,182.3,7.5,173.5,7.5z M181.5,194.5c0,4.4-3.6,8-8,8H43c-4.4,0-8-3.6-8-8v-171c0-4.4,3.6-8,8-8h130.5c4.4,0,8,3.6,8,8
	V194.5z M47,37h119c2.2,0,4-1.8,4-4s-1.8-4-4-4H47c-2.2,0-4,1.8-4,4S44.8,37,47,37z M47,55h53c2.2,0,4-1.8,4-4s-1.8-4-4-4H47
	c-2.2,0-4,1.8-4,4S44.8,55,47,55z M93,149H47c-2.2,0-4,1.8-4,4s1.8,4,4,4h46c2.2,0,4-1.8,4-4S95.2,149,93,149z M93,165H47
	c-2.2,0-4,1.8-4,4s1.8,4,4,4h46c2.2,0,4-1.8,4-4S95.2,165,93,165z M93,182H47c-2.2,0-4,1.8-4,4s1.8,4,4,4h46c2.2,0,4-1.8,4-4
	S95.2,182,93,182z M166,55c2.2,0,4-1.8,4-4s-1.8-4-4-4h-45c-2.2,0-4,1.8-4,4s1.8,4,4,4H166z M123,82c-2.2,0-4,1.8-4,4s1.8,4,4,4h45
	c2.2,0,4-1.8,4-4s-1.8-4-4-4H123z M168,98h-45c-2.2,0-4,1.8-4,4s1.8,4,4,4h45c2.2,0,4-1.8,4-4S170.2,98,168,98z M122.7,149h-11.4
	c-2.4,0-4.3,1.9-4.3,4.3v32.4c0,2.4,1.9,4.3,4.3,4.3h11.4c2.4,0,4.3-1.9,4.3-4.3v-32.4C127,150.9,125.1,149,122.7,149z M145.2,137.5
	h-11.4c-2.4,0-4.3,1.9-4.3,4.3v44.4c0,2.4,1.9,4.3,4.3,4.3h11.4c2.4,0,4.3-1.9,4.3-4.3v-44.4C149.5,139.4,147.6,137.5,145.2,137.5z
	 M169.2,125.5h-11.4c-2.4,0-4.3,1.9-4.3,4.3v57.4c0,2.4,1.9,4.3,4.3,4.3h11.4c2.4,0,4.3-1.9,4.3-4.3v-57.4
	C173.5,127.4,171.6,125.5,169.2,125.5z M74,100l-4.7-31.7C54.4,70.6,43,83.5,43,99c0,17.1,13.9,31,31,31s31-13.9,31-31
	c0-1.1-0.1-2.2-0.2-3.2L74,100z M73,67l4,29l30-4C107,92,101,63,73,67z"/>
</svg>
