<?xml version="1.0" encoding="utf-8"?>
<!-- Generator: Adobe Illustrator 22.0.0, SVG Export Plug-In . SVG Version: 6.00 Build 0)  -->
<svg version="1.1" id="Layer_1" xmlns="http://www.w3.org/2000/svg" xmlns:xlink="http://www.w3.org/1999/xlink" x="0px" y="0px"
	 viewBox="0 0 216 216" style="enable-background:new 0 0 216 216;" xml:space="preserve">
<style type="text/css">
	.st0{fill:#FFB81C;}
</style>
<path class="st0" d="M12.9,192c-0.1,0-0.1-0.1-0.1-0.1v-6.7l56.9-45l0.5,0.4l1.5-1.9l18.1-14.3c1-0.7,13.8-9.6,24.9,1.1
	c1.1,1.1,2.5,2.4,4.1,4l5.9-7.3c-1.4-1.3-2.6-2.5-3.6-3.4c-13.7-13.1-30.2-6.9-37-1.8l-14.9,11.8l-24.9-19.4V30.1h115.6v77.2
	c1.8-0.2,4.4-0.2,8.2,0V107c2.1,0.1,4.4,0.3,6.8,0.9l15.8-12.1v17.8l8.2,4.4V81.7l-2.8-2c-2.7-2.4-14.4-12.9-27.9-25v-27
	c0-3.2-2.6-5.8-5.8-5.8h-31c-4.5-4-8.2-7.2-10.6-9.4c-14.3-12.4-30.5-5.5-37.1-0.1L72.8,22H41.9c-3.2,0-5.8,2.6-5.8,5.8v26.1
	L6.8,79.3l-2.2,2.4v98.1l-0.4,0.3l0.4,0.5v11.3c0,4.6,3.7,8.3,8.3,8.3h104.8c-0.9-2.8-1.9-5.6-2.7-8.2H12.9z M168.1,67.3
	c9.8,8.8,17.9,16,20.9,18.8l-20.9,16.1V67.3z M89.6,19.7c1-0.8,13.3-10.2,25-0.1c0.8,0.7,1.7,1.4,2.6,2.3H87.1L89.6,19.7z
	 M36.2,66.2v36.7l8.2,6.4L13.9,85.6L36.2,66.2z M12.8,95.8l49.3,38.5l-49.3,39V95.8z M163.6,146.9c-9.6,0-17.3,7.8-17.3,17.3
	s7.8,17.3,17.3,17.3s17.3-7.8,17.3-17.3S173.1,146.9,163.6,146.9z M163.6,173.4c-5.1,0-9.2-4.1-9.2-9.2s4.1-9.2,9.2-9.2
	s9.2,4.1,9.2,9.2S168.6,173.4,163.6,173.4z M212.3,173.4v-18.3l-14.3-2.3l-1.4-5l8-11.5L191.9,124l-11,8.2l-5.1-2.6l-1.9-13.7h-19.5
	l-2.2,14.2l-4.4,1.6l-11.8-7.9l-13.3,13l8.2,11.2l-2.2,4.8l-13.6,2.3v18.3l13.3,2.2l2.2,4.1l-7.9,12l13,13.1l12.1-7.7l4.7,1.6
	l1.9,14.3h18.3l2.6-13.4l4.7-2l12,7.3l13-12.7l-8.4-10.6l2.2-5.6L212.3,173.4z M193.5,191l-2.8,2.8l-9.7-7c0,0-8.2,3.9-12.8,5.3
	l-2.8,12.8h-3.1l-2.3-12.7c0,0-6-1.1-12.3-4.7h-0.7L137,194l-2.9-3.2l7-9.2c0,0-4.2-8.7-5-13.2l-11.4-2.5l-1-0.2v-3.5l12.6-2.2
	c0,0,0.3-8,4.8-12l-7-10.1l2.9-3.1l10.5,7.2c0,0,7.3-4.1,12.4-4.8l2.5-12.8h3.5l2.2,12.3c0,0,10.1,2.6,12.8,5.8l9.7-7.6l2,2
	l-6.5,9.9c0,0,5.3,9.5,5.3,13l12.4,2.1v3.8l-11.1,2.1h-1c0,0-1.6,8.2-5.8,13L193.5,191z"/>
</svg>
