<?xml version="1.0" encoding="utf-8"?>
<!-- Generator: Adobe Illustrator 22.0.0, SVG Export Plug-In . SVG Version: 6.00 Build 0)  -->
<svg version="1.1" id="Layer_1" xmlns="http://www.w3.org/2000/svg" xmlns:xlink="http://www.w3.org/1999/xlink" x="0px" y="0px"
	 viewBox="0 0 216 216" style="enable-background:new 0 0 216 216;" xml:space="preserve">
<style type="text/css">
	.st0{fill:#FFB81C;}
</style>
<path class="st0" d="M114.5,202H35V37h21v10.4c0,2,1.6,3.6,3.6,3.6h71.8c2,0,3.6-1.6,3.6-3.6V37h21v87.7c9.3,0.8,8.5,3.8,8.5,3.8
	l0.5,0.2V36.1c0-4.5-3.6-8.1-8.1-8.1H135v-5.4c0-2-1.6-3.6-3.6-3.6h-18.5c-0.8-9-8.3-16-17.4-16s-16.7,7-17.4,16H59.6
	c-2,0-3.6,1.6-3.6,3.6V28H34.1c-4.5,0-8.1,3.6-8.1,8.1v166.8c0,4.5,3.6,8.1,8.1,8.1h91.6l-2.3-4.5L114.5,202z M133,77H59
	c-2.2,0-4,1.8-4,4s1.8,4,4,4h74c2.2,0,4-1.8,4-4S135.2,77,133,77z M137,111c0-2.2-1.8-4-4-4H59c-2.2,0-4,1.8-4,4s1.8,4,4,4h74
	C135.2,115,137,113.2,137,111z M123,141l3.8-6H59c-2.2,0-4,1.8-4,4s1.8,4,4,4h61L123,141z M55,169c0,2.2,1.8,4,4,4h47.6
	c0-2.1,0.4-4,0.4-4l2.9-4H59C56.8,165,55,166.8,55,169z M156,134c-21.5,0-39,17.5-39,39s17.5,39,39,39s39-17.5,39-39
	S177.5,134,156,134z M156,205c-17.6,0-32-14.4-32-32s14.4-32,32-32s32,14.4,32,32S173.6,205,156,205z M175,172h-15.5v-17
	c0-1.9-1.6-3.5-3.5-3.5s-3.5,1.6-3.5,3.5v20c0,1.9,1.6,3.5,3.5,3.5c0.6,0,1.2-0.2,1.8-0.5H175c1.7,0,3-1.4,3-3
	C178,173.3,176.7,172,175,172z"/>
</svg>
