<?xml version="1.0" encoding="utf-8"?>
<!-- Generator: Adobe Illustrator 22.0.0, SVG Export Plug-In . SVG Version: 6.00 Build 0)  -->
<svg version="1.1" id="Layer_1" xmlns="http://www.w3.org/2000/svg" xmlns:xlink="http://www.w3.org/1999/xlink" x="0px" y="0px"
	 viewBox="0 0 216 216" style="enable-background:new 0 0 216 216;" xml:space="preserve">
<style type="text/css">
	.st0{fill:#FFB81C;}
</style>
<path class="st0" d="M116.9,68.1c0-4.8-3.9-8.8-8.8-8.8c-4.8,0-8.8,3.9-8.8,8.8c0,4.8,3.9,8.8,8.8,8.8
	C113,76.8,116.9,72.9,116.9,68.1z M123.6,78.6c2.3-3.1,3.6-7,3.6-11.1c0-3.9-1.2-7.6-3.2-10.6l-2.9,3c1.3,2.2,2.1,4.8,2.1,7.6
	c0,3.2-1,6.1-2.7,8.6L123.6,78.6z M93.1,56.1c-2.4,3.2-3.8,7.1-3.8,11.4c0,4.5,1.5,8.6,4.1,11.8l2.7-3.2c-1.7-2.4-2.8-5.4-2.8-8.6
	c0-3.1,0.9-5.9,2.5-8.3L93.1,56.1z M85.8,49.7c-4,5-6.5,11.3-6.5,18.2c0,7.1,2.5,13.6,6.8,18.6l2.8-3.1c-3.4-4.3-5.5-9.7-5.5-15.5
	c0-5.9,2.1-11.3,5.5-15.6L85.8,49.7z M130.5,86.6c4.3-5.1,6.9-11.6,6.9-18.7c0-6.8-2.4-13.2-6.4-18.1l-2.9,3
	c3.2,4.2,5.1,9.4,5.1,15.1c0,6-2.1,11.5-5.6,15.8L130.5,86.6z M68,68.6c0,9.9,3.6,18.9,9.5,25.9l3.9-3.4c-5.1-6.1-8.2-13.9-8.2-22.5
	c0-9.2,3.5-17.5,9.3-23.8l-4.1-3.2C71.9,48.8,68,58.3,68,68.6z M138.4,42.1l-3.9,3.3c5.5,6.2,8.8,14.3,8.8,23.2
	c0,8.5-3.1,16.4-8.1,22.4l4.2,3c5.7-6.9,9.1-15.8,9.1-25.4C148.4,58.5,144.6,49.2,138.4,42.1z M117.9,99.5l0.1-0.1l-0.2-0.2
	L112.3,82h-8.8l-27.5,87.6h64.1L117.9,99.5z M130.9,157.1l-19.3-19.3l10-10L130.9,157.1z M116.6,111.9l-5.6-5.6l2.9-2.9L116.6,111.9
	z M108.2,85.2l4.2,13.4l-4.5,4.5l-4.2-4.2L108.2,85.2z M102.2,103.8l2.5,2.5l-5,5L102.2,103.8z M96.7,120.6l11.2-11.2l11.6,11.6
	l0.6,1.8l-11.7,11.7l-12.3-12.3L96.7,120.6z M94.6,127.1l10.7,10.7l-20.9,20.9L94.6,127.1z M108.4,141l23.6,23.6H84.8L108.4,141z
	 M27.9,108.9l8.1-5.3l20.1-12.7c2.4-1.5,3.1-4.6,1.6-7l-0.2-0.3c-1.5-2.4-4.6-3.1-7-1.6L32.9,93.2l-0.1-0.3
	c5.8-36,37.2-63.7,74.8-63.7c35.5,0,65.4,24.5,73.6,57.5v0c0.8,1,4,4.6,7,3.2c0,0,2.8-1.3,3.3-4.6c-8.9-38-43.1-66.4-83.8-66.4
	c-42.3,0-77.5,30.6-84.7,70.8L12.7,73.5c-1.5-2.4-4.6-3.1-7-1.6l-0.3,0.2c-2.4,1.5-3.1,4.6-1.6,7l15,23.9c0,0,1.8,4.5,4.9,6.2
	C25.1,109.8,26.7,109.7,27.9,108.9z M212.3,134.1l-15-23.9c0,0-1.4-3.5-3.9-5.5c-1.6-1.3-3.9-1.2-5.6-0.1l-7.6,5L160,122.3
	c-2.4,1.5-3.1,4.6-1.6,7l0.2,0.3c1.5,2.4,4.6,3.1,7,1.6l16.2-10.2c-7.3,34.2-37.8,59.9-74.1,59.9c-36.3,0-66.7-25.6-74.1-59.8
	c-2.4-2-5.8-1.2-5.8-1.2c-4.1,2.6-3.3,6.7-3.3,6.7h-0.2c9.6,37.1,43.4,64.5,83.4,64.5c41.8,0,76.7-29.9,84.5-69.4l11.3,17.9
	c1.5,2.4,4.6,3.1,7,1.6l0.3-0.2C213.1,139.6,213.8,136.4,212.3,134.1z"/>
</svg>
