<?xml version="1.0" encoding="utf-8"?>
<!-- Generator: Adobe Illustrator 22.0.0, SVG Export Plug-In . SVG Version: 6.00 Build 0)  -->
<svg version="1.1" id="Layer_1" xmlns="http://www.w3.org/2000/svg" xmlns:xlink="http://www.w3.org/1999/xlink" x="0px" y="0px"
	 viewBox="0 0 216 216" style="enable-background:new 0 0 216 216;" xml:space="preserve">
<style type="text/css">
	.st0{fill:#FFB81C;}
</style>
<path class="st0" d="M108,5.5C51.5,5.5,5.5,51.5,5.5,108s46,102.5,102.5,102.5s102.5-46,102.5-102.5S164.5,5.5,108,5.5z M108,198.5
	c-49.9,0-90.5-40.6-90.5-90.5c0-23.3,8.9-44.6,23.4-60.6L65,71.5V82c0,6.6,5.4,12,12,12h1v7c0,0,0,7,6,0c1.7-2,3.3-3.9,4.7-5.8
	l24.3,24.3V135c0,6.6,5.4,12,12,12h3v10c0,0,1,7,7,0l7.2-8.4l26.5,26.5C152.6,189.6,131.3,198.5,108,198.5z M92.6,72.4l-4.7,5.1
	l-4.2-4.2l4.5-4.9c1.1-1.2,3-1.3,4.2-0.2c0.6,0.6,1,1.4,1,2.2C93.4,71,93.1,71.8,92.6,72.4z M98.2,68.3c1.1-1.2,3-1.3,4.2-0.2
	c0.6,0.6,1,1.4,1,2.2c0,0.7-0.3,1.5-0.8,2l-6.8,7.3c-1.1,1.2-3,1.3-4.2,0.2c-1.2-1.1-1.3-3-0.2-4.2L98.2,68.3z M131.5,120
	c-0.4,0-0.9-0.1-1.3-0.2l-2-2c-0.2-0.4-0.2-0.8-0.2-1.3c0-1,0.4-1.8,1-2.5c0.6-0.6,1.5-1,2.5-1h26c1.9,0,3.5,1.6,3.5,3.5
	c0,1-0.4,1.8-1,2.5c-0.6,0.6-1.5,1-2.5,1H131.5z M152,128c0,0.8-0.3,1.6-0.9,2.1c-0.5,0.5-1.3,0.9-2.1,0.9h-3c-1.7,0-3-1.4-3-3
	c0-0.8,0.3-1.6,0.9-2.1c0.5-0.5,1.3-0.9,2.1-0.9h3C150.7,125,152,126.3,152,128z M140,128c0,0.4-0.1,0.9-0.3,1.2l-4.2-4.2h1.5
	C138.7,125,140,126.3,140,128z M177,166.5L157.5,147h7.5c6.6,0,12-5.4,12-12v-24c0-6.6-5.4-12-12-12h-40c-4.2,0-7.9,2.2-10,5.5
	L104.5,94h2.5c6.6,0,12-5.4,12-12V65c0-6.6-5.4-12-12-12H77c-3.7,0-7,1.7-9.2,4.3L49.5,39C65.3,25.6,85.7,17.5,108,17.5
	c49.9,0,90.5,40.6,90.5,90.5C198.5,130.3,190.4,150.7,177,166.5z M91,113H51c-6.6,0-12,5.4-12,12v24c0,6.6,5.4,12,12,12h21.8L84,173
	c0,0,4,2,4-4v-8h3c6.6,0,12-5.4,12-12v-24C103,118.4,97.6,113,91,113z M76.3,144.3c-0.5,0.5-1.1,0.7-1.8,0.7h-18
	c-1.4,0-2.5-1.1-2.5-2.5c0-0.7,0.3-1.3,0.7-1.8c0.5-0.5,1.1-0.7,1.8-0.7h18c1.4,0,2.5,1.1,2.5,2.5C77,143.2,76.7,143.8,76.3,144.3z
	 M86.3,132.3c-0.5,0.5-1.1,0.7-1.8,0.7h-28c-1.4,0-2.5-1.1-2.5-2.5c0-0.7,0.3-1.3,0.7-1.8c0.5-0.5,1.1-0.7,1.8-0.7h28
	c1.4,0,2.5,1.1,2.5,2.5C87,131.2,86.7,131.8,86.3,132.3z"/>
</svg>
